<svg width="223" height="148" viewBox="0 0 223 148" fill="none" xmlns="http://www.w3.org/2000/svg">
<path d="M171.039 143C172.208 142.1 173.363 141.17 174.507 140.211C189.08 127.977 201.586 109.952 205.715 87.9711C209.846 65.9896 203.935 40.0941 189.138 28.3284C176.272 18.1001 159.799 20.0159 145.31 25.3758C130.819 30.7339 116.861 39.2043 101.881 41.2331C84.1393 43.6351 65.1183 37.0482 49.0062 47.0451C31.1232 58.1399 23.0623 88.4608 28.8554 113.198C31.5117 124.536 36.5841 134.524 43.1363 142.686L171.039 143Z" fill="#F5FAFA"/>
<path d="M199.546 136.154C196.257 136.154 193.581 133.654 193.581 130.581C193.581 127.509 196.257 125.009 199.546 125.009C202.836 125.009 205.512 127.509 205.512 130.581C205.512 133.654 202.836 136.154 199.546 136.154ZM199.546 127.087C197.403 127.087 195.659 128.654 195.659 130.581C195.659 132.509 197.403 134.076 199.546 134.076C201.69 134.076 203.434 132.509 203.434 130.581C203.435 128.654 201.691 127.087 199.546 127.087Z" fill="#809BCE"/>
<path d="M197.444 143.053H184.39L182.158 120.402H199.676L197.444 143.053Z" fill="#809BCE"/>
<path d="M195.173 141.17H186.66L185.205 126.971H196.629L195.173 141.17Z" fill="#EBEBFF"/>
<path d="M106.43 6.89455C103.276 8.35403 99.0776 10.7035 99.8761 14.8802C100.659 18.977 105.604 18.2373 108.49 17.258C110.628 16.533 112.693 15.5579 114.595 14.3391C115.83 13.5478 117.566 12.1798 117.145 10.4839C116.783 9.02756 115.093 8.60095 113.794 8.86784C111.91 9.25452 109.76 10.4019 108.284 11.6113C106.944 12.7094 105.901 14.4189 106.164 16.2115C106.403 17.8506 107.757 19.0191 109.262 19.5329C111.139 20.1738 113.684 20.0425 115.57 19.4698C116.716 19.122 117.777 18.0839 117.026 16.8419C116.138 15.3719 114.295 15.7281 113.018 16.3743C111.293 17.2475 109.251 18.3886 108.399 20.219C107.751 21.6091 107.854 23.3334 109.114 24.34C110.349 25.3266 112.13 25.3298 113.625 25.2163C114.863 25.1218 116.883 24.8633 117.08 23.3019C117.279 21.7279 115.343 21.0113 114.113 21.4767C112.208 22.1965 111.014 24.5459 110.436 26.3648C109.754 28.5146 109.766 30.8136 110.429 32.9634C110.513 33.2366 110.944 33.12 110.86 32.8447C109.997 30.0476 110.296 26.9742 111.773 24.4335C112.48 23.2157 113.874 21.2918 115.538 21.8298C116.427 22.1177 117.058 23.1695 116.27 23.9617C115.716 24.5186 114.783 24.6542 114.039 24.734C112.96 24.8496 111.8 24.8958 110.74 24.6227C108.91 24.1519 108 22.497 108.681 20.6918C109.237 19.2187 110.598 18.294 111.893 17.5207C113.125 16.7862 115.581 15.2479 116.641 17.0668C117.829 19.1042 113.964 19.3196 112.903 19.4005C111.345 19.5182 109.694 19.4625 108.331 18.604C106.889 17.6962 106.243 16.1274 106.768 14.483C107.295 12.8291 108.669 11.7269 110.136 10.9157C111.28 10.2832 112.622 9.54662 113.913 9.2976C114.823 9.12212 115.972 9.26607 116.515 10.1298C117.164 11.1637 116.39 12.2922 115.64 12.9983C113.542 14.9747 110.372 16.223 107.661 17.0573C104.837 17.9263 100.204 18.1133 100.244 13.9566C100.279 10.362 103.834 8.58414 106.654 7.27912C106.915 7.15934 106.689 6.77477 106.43 6.89455Z" fill="#809BCE"/>
<path d="M66.5705 38.8143C67.9567 39.7695 69.2987 40.7783 70.6283 41.8015L72.6068 43.3539L74.5585 44.9375L73.2004 45.2667L74.266 42.6131C74.623 41.7288 75.0031 40.8553 75.3707 39.9746L75.8148 38.9114L76.7116 39.6178C77.3569 40.1261 77.9878 40.6536 78.6271 41.1702C79.2641 41.6894 79.8867 42.2277 80.5176 42.7552C81.1372 43.2966 81.7646 43.8285 82.3741 44.3842C82.9898 44.9314 83.5936 45.494 84.1864 46.0689L83.7587 46.6205C83.0526 46.1897 82.3579 45.7451 81.6737 45.2872C80.9838 44.8362 80.3118 44.3615 79.6315 43.8977C78.963 43.4186 78.2862 42.9504 77.6243 42.4638C76.9646 41.9747 76.2961 41.4956 75.642 40.9973L76.9839 40.6399C76.6249 41.523 76.2791 42.4118 75.9091 43.2903L74.7962 45.925L74.3234 47.0437L73.4376 46.2533L71.5623 44.5793L69.7131 42.8746C68.4912 41.725 67.2812 40.5623 66.1165 39.3457L66.5705 38.8143Z" fill="#98D4D3"/>
<path d="M80.5705 26.8143C81.9567 27.7695 83.2987 28.7783 84.6283 29.8015L86.6068 31.3539L88.5585 32.9375L87.2004 33.2667L88.266 30.6131C88.623 29.7288 89.0031 28.8553 89.3707 27.9746L89.8148 26.9114L90.7116 27.6178C91.3569 28.1261 91.9878 28.6536 92.6271 29.1702C93.2641 29.6894 93.8867 30.2277 94.5176 30.7552C95.1372 31.2966 95.7646 31.8285 96.3741 32.3842C96.9898 32.9314 97.5936 33.494 98.1864 34.0689L97.7587 34.6205C97.0526 34.1897 96.3579 33.7451 95.6737 33.2872C94.9838 32.8362 94.3118 32.3615 93.6315 31.8977C92.963 31.4186 92.2862 30.9504 91.6243 30.4638C90.9646 29.9747 90.2961 29.4956 89.642 28.9973L90.9839 28.6399C90.6249 29.523 90.2791 30.4118 89.9091 31.2903L88.7962 33.925L88.3234 35.0437L87.4376 34.2533L85.5623 32.5793L83.7131 30.8746C82.4912 29.725 81.2812 28.5623 80.1165 27.3457L80.5705 26.8143Z" fill="#98D4D3"/>
<path d="M142.201 41.3452C141.036 42.5618 139.826 43.7244 138.604 44.8741L136.755 46.5788L134.88 48.2527L133.994 49.0432L133.521 47.9245L132.408 45.2898C132.039 44.4104 131.692 43.5224 131.333 42.6394L132.675 42.9968C132.022 43.4942 131.353 43.9733 130.693 44.4633C130.031 44.9498 129.354 45.4181 128.686 45.8972C128.006 46.3616 127.334 46.8362 126.645 47.2872C125.96 47.7461 125.266 48.1897 124.56 48.6205L124.132 48.069C124.726 47.4936 125.329 46.9319 125.944 46.3842C126.554 45.8285 127.181 45.2975 127.801 44.7552C128.432 44.2277 129.054 43.6903 129.691 43.1702C130.33 42.6536 130.961 42.1261 131.607 41.6178L132.503 40.9114L132.948 41.9746C133.315 42.8539 133.695 43.7288 134.052 44.6131L135.118 47.2667L133.76 46.9376L135.711 45.3539L137.69 43.8015C139.02 42.7783 140.361 41.7704 141.748 40.8143L142.201 41.3452Z" fill="#98D4D3"/>
<path d="M128.646 30.7213C127.94 31.4214 127.205 32.0877 126.462 32.7459L125.335 33.7208L124.192 34.6764L123.652 35.1276L123.32 34.4404L122.539 32.822C122.28 32.2818 122.035 31.7372 121.783 31.1952L122.645 31.4482C122.244 31.7294 121.833 31.9992 121.427 32.2758C121.021 32.5503 120.604 32.8133 120.193 33.0831C119.775 33.3437 119.362 33.6108 118.936 33.863C118.515 34.1202 118.086 34.3679 117.65 34.6075L117.363 34.2632C117.724 33.9334 118.091 33.612 118.466 33.2993C118.838 32.9818 119.221 32.6795 119.599 32.3703C119.985 32.0703 120.365 31.764 120.755 31.4687C121.146 31.1755 121.532 30.8755 121.927 30.5874L122.477 30.1871L122.789 30.8401C123.046 31.3801 123.313 31.9179 123.564 32.4606L124.315 34.0891L123.444 33.8526L124.638 32.9535L125.851 32.074C126.666 31.4951 127.49 30.9257 128.343 30.3887L128.646 30.7213Z" fill="#98D4D3"/>
<path d="M125.886 78.9691L110.377 78.0276L90.1412 83.3748C83.0445 85.2494 77.2833 90.4264 74.6669 97.2824L62.0233 130.393L86.8702 108.376L93.7137 143.04L140.13 142.891L139.981 94.7628L125.886 78.9691Z" fill="#98D4D3"/>
<path d="M113.513 96.9388C110.702 96.9388 108.077 95.844 106.342 93.9096L106.674 93.6112C108.531 95.6811 111.468 96.7424 114.526 96.4429C117.803 96.1245 120.666 94.292 122.383 91.414L122.767 91.6431C120.976 94.643 117.989 96.5553 114.57 96.8874C114.215 96.921 113.863 96.9388 113.513 96.9388Z" fill="#81B0B0"/>
<path d="M115.443 90.8813C112.47 92.3187 108.82 90.8992 107.325 87.7218L106.821 86.6458L101.706 75.778L98.5765 69.1236L113.694 61.8178L120.276 75.8053C122.981 81.5581 120.825 88.2797 115.443 90.8813Z" fill="#FFDAC2"/>
<path d="M115.135 72.9715C113.805 79.4524 110.48 83.8929 106.821 86.6468L101.706 75.779L115.135 72.9715Z" fill="#FCCDAD"/>
<path d="M116.908 64.8618C116.908 72.6878 112.496 78.0528 106.898 80.8184C101.138 83.6638 95.1237 72.7298 92.251 65.4198C89.269 57.8324 97.4784 52.1416 104.35 52.1416C111.222 52.1416 116.908 57.0349 116.908 64.8618Z" fill="#FFDDC7"/>
<path d="M117.219 60.3983C116.549 52.3643 114.917 44.7706 107.474 46.7113C104.648 42.769 92.8205 42.8436 89.9194 52.2162C88.0481 58.2621 82.0347 61.2168 82.0347 61.2168C89.2501 65.01 95.9013 63.5894 105.169 56.5305C108.07 60.7703 116.327 61.0676 116.327 61.0676L117.219 60.3983Z" fill="#1B1B43"/>
<path d="M119.527 64.1726C119.852 61.6359 118.508 59.3734 116.525 59.1191C114.542 58.8648 112.671 60.715 112.346 63.2517C112.02 65.7884 113.364 68.051 115.347 68.3053C117.33 68.5596 119.201 66.7093 119.527 64.1726Z" fill="#FFDAC2"/>
<path d="M116.66 61.801C116.18 62.1972 116.021 62.7341 116.026 63.3088C116.029 63.5925 116.074 63.8815 116.157 64.1557C116.245 64.43 116.361 64.6895 116.56 64.9165L116.428 65.1424C116.06 65.0215 115.786 64.7126 115.617 64.3858C115.445 64.0538 115.361 63.684 115.361 63.3109C115.364 62.939 115.447 62.5534 115.655 62.2245C115.856 61.8945 116.191 61.6382 116.552 61.5636L116.66 61.801Z" fill="#FCCDAD"/>
<path d="M151.742 95.1389C147.332 85.864 138.231 79.7235 127.98 79.0983L125.887 78.9691L141.326 114.125L158.225 107.852L151.742 95.1389Z" fill="#98D4D3"/>
<path d="M97.8042 72.2265C97.6371 69.6606 98.0826 63.6346 96.5212 64.3039C94.9598 64.9732 94.569 73.6754 94.569 73.6754C94.569 73.6754 94.3462 59.17 92.6724 59.8393C90.9985 60.5086 90.9985 70.9971 87.3168 82.1549L66.6371 125.829C64.15 131.083 67.2833 137.272 72.9899 138.377C77.1761 139.187 81.3475 136.915 82.9394 132.959C88.295 119.651 98.1331 90.9297 99.0882 85.3366C99.8689 80.7616 99.6672 78.7831 99.3656 77.6073C98.8665 75.6634 97.9345 74.2292 97.8042 72.2265Z" fill="#FFDAC2"/>
<path d="M87.446 81.1914C88.0785 79.4703 88.4925 77.6725 88.8781 75.8757C89.2575 74.0758 89.5769 72.2622 89.9047 70.4507L90.8746 65.0068C91.0458 64.1 91.2223 63.1933 91.4346 62.2907C91.5418 61.8388 91.6563 61.3891 91.7992 60.9405C91.8717 60.7167 91.9505 60.4928 92.0535 60.2701C92.1039 60.1587 92.1638 60.0473 92.2384 59.936C92.3193 59.8309 92.4055 59.6974 92.623 59.6291L92.6062 59.6333C92.6703 59.6207 92.7396 59.6134 92.8048 59.6123C92.8668 59.6218 92.9287 59.6459 92.9876 59.6691C93.0822 59.7258 93.1715 59.7973 93.2209 59.8677C93.3427 60.0106 93.41 60.1566 93.4772 60.3027C93.6054 60.5937 93.6979 60.8869 93.7746 61.1811C93.9312 61.7695 94.0404 62.3611 94.1361 62.9526C94.322 64.1379 94.4502 65.3273 94.549 66.5178C94.7423 68.8998 94.8453 71.2861 94.8222 73.6775L94.3147 73.667C94.3704 72.3168 94.4723 70.9761 94.6246 69.6353C94.7875 68.2967 94.9745 66.9549 95.3959 65.6415C95.5115 65.3147 95.6376 64.989 95.8319 64.6769C95.9339 64.5235 96.0484 64.368 96.2186 64.2419C96.3794 64.1063 96.6305 64.0412 96.8596 64.0727C96.9132 64.0853 96.9636 64.1042 97.0161 64.1221C97.0697 64.1452 97.1128 64.1442 97.18 64.2041C97.2105 64.2282 97.2399 64.2556 97.2673 64.2829C97.2914 64.3091 97.2998 64.3302 97.3166 64.3533C97.3429 64.3985 97.3797 64.4489 97.3954 64.492C97.4743 64.6685 97.5257 64.8387 97.5688 65.0079C97.656 65.3473 97.7065 65.6835 97.7559 66.0208C97.9303 67.3689 97.9765 68.7191 97.9649 70.0672C97.9607 70.747 97.9177 71.4069 97.9765 72.0605C98.0301 72.7161 98.1499 73.3665 98.3191 74.0064C98.4893 74.6463 98.7057 75.2747 98.9411 75.8988C99.1828 76.5166 99.4244 77.1713 99.56 77.8374C99.8479 79.1729 99.8794 80.5452 99.7554 81.8891C99.6304 83.2351 99.3677 84.5622 99.0167 85.8619L98.8234 85.8115C99.1481 84.5149 99.3835 83.1952 99.4822 81.867C99.5799 80.541 99.5221 79.2002 99.2195 77.9141C99.0735 77.2658 98.8507 76.6574 98.5985 76.0291C98.3558 75.3997 98.131 74.7598 97.9523 74.1041C97.7737 73.4474 97.6455 72.775 97.5856 72.093C97.5205 71.409 97.5604 70.725 97.5594 70.064C97.5625 68.7307 97.5068 67.392 97.3293 66.0796C97.2799 65.7539 97.2284 65.4261 97.1454 65.1161C97.1054 64.9616 97.0571 64.8093 96.9983 64.68C96.9846 64.6433 96.9668 64.6286 96.9531 64.6002C96.9363 64.5655 96.9258 64.5624 96.9258 64.5624C96.9373 64.554 96.89 64.5456 96.8669 64.5361C96.8396 64.5277 96.8123 64.514 96.785 64.5077C96.5874 64.4762 96.372 64.6506 96.2123 64.9154C96.0526 65.1749 95.9349 65.4776 95.8299 65.7833C95.4369 67.0306 95.2551 68.3639 95.1048 69.6858C94.9619 71.0108 94.8695 72.3494 94.8232 73.6796L94.3157 73.6691C94.3378 71.2976 94.26 68.9198 94.0783 66.5535C93.9868 65.3704 93.8671 64.1894 93.6895 63.0209C93.5991 62.4378 93.4941 61.8557 93.348 61.2925C93.2765 61.0109 93.1893 60.7335 93.079 60.4792C93.0244 60.3552 92.9613 60.2281 92.8888 60.1451C92.8541 60.0915 92.8174 60.0757 92.7911 60.0526C92.7795 60.0536 92.7711 60.0452 92.7627 60.041C92.7543 60.0473 92.7491 60.0484 92.7396 60.0431L92.7228 60.0473C92.7144 60.0463 92.6419 60.1009 92.5915 60.1797C92.5379 60.2596 92.4864 60.3499 92.4423 60.4487C92.3508 60.6442 92.2741 60.8554 92.2037 61.0687C92.064 61.4974 91.9484 61.9397 91.8402 62.3842C91.6258 63.2742 91.4441 64.1757 91.2686 65.0783L90.2672 70.5127C89.9373 72.3263 89.5769 74.1357 89.1671 75.9356C88.75 77.7324 88.3044 79.5302 87.6351 81.2597L87.446 81.1914Z" fill="#FAC5A1"/>
<path d="M166.305 132.385C166.229 137.526 163.988 141.119 161.182 143.19L155.483 143.101L154.072 143.079H154.041L147.341 127.829L147.328 127.793L141.325 114.127L158.222 107.852L164.528 123.33C165.823 126.753 166.345 129.769 166.305 132.385Z" fill="#FFDAC2"/>
<path d="M161.627 126.23L117.269 131.193L111.498 129.328C108.884 128.484 106.023 129.003 103.878 130.717C98.8445 134.737 90.6624 142.147 92.7828 142.743C96.3532 143.747 101.016 141.867 105.203 140.817C107.515 140.236 109.958 140.511 112.08 141.597L114.982 143.084L159.172 143.078L161.627 126.23Z" fill="#FFDAC2"/>
<path d="M137.207 105.223L136.806 105.42L141.127 114.218L141.527 114.021L137.207 105.223Z" fill="#81B0B0"/>
<path d="M95.6471 137.696H70.2076V143.052H95.6471V137.696Z" fill="#8BAAC0"/>
<path d="M78.8363 143.053H38.4448L26.8404 102.661H67.232L78.8363 143.053Z" fill="#95B8D1"/>
<path d="M79.3665 5.11758C79.8936 3.34544 78.8843 1.48154 77.1122 0.954428C75.3401 0.427318 73.4762 1.43661 72.949 3.20874C72.4219 4.98088 73.4312 6.84478 75.2034 7.37189C76.9755 7.899 78.8394 6.88971 79.3665 5.11758Z" fill="#95B8D1"/>
<path d="M9.3889 85.0492C9.93646 82.7303 8.50051 80.4066 6.18162 79.8591C3.86273 79.3115 1.53902 80.7474 0.991466 83.0663C0.443912 85.3852 1.87986 87.7089 4.19875 88.2565C6.51764 88.804 8.84135 87.3681 9.3889 85.0492Z" fill="#95B8D1"/>
<path d="M216.524 95.8808C218.373 95.8808 219.872 94.382 219.872 92.5331C219.872 90.6842 218.373 89.1854 216.524 89.1854C214.675 89.1854 213.177 90.6842 213.177 92.5331C213.177 94.382 214.675 95.8808 216.524 95.8808Z" fill="#95B8D1"/>
<path d="M212.343 94.7249L212.335 94.2784C212.875 94.2679 213.407 94.1754 213.914 94.001L214.059 94.4234C213.508 94.6125 212.931 94.7134 212.343 94.7249ZM210.618 94.4917C210.058 94.3246 209.53 94.0714 209.046 93.7393L209.299 93.3716C209.744 93.6763 210.23 93.9096 210.746 94.064L210.618 94.4917ZM215.6 93.6112L215.333 93.2529C215.765 92.9303 216.143 92.5447 216.456 92.1076L216.819 92.3671C216.479 92.842 216.069 93.2602 215.6 93.6112ZM207.779 92.5447C207.42 92.0813 207.135 91.5685 206.935 91.02L207.355 90.8677C207.538 91.372 207.8 91.8449 208.131 92.2715L207.779 92.5447ZM217.601 90.8109L217.176 90.6743C217.34 90.1637 217.423 89.6299 217.423 89.0888C217.423 88.9511 217.418 88.8156 217.407 88.6811L217.851 88.6454C217.863 88.7914 217.869 88.9396 217.868 89.0888C217.869 89.6772 217.779 90.2561 217.601 90.8109ZM206.601 89.3126C206.598 89.239 206.597 89.1655 206.596 89.0909C206.596 88.5771 206.665 88.0696 206.801 87.581L207.231 87.6997C207.106 88.1494 207.042 88.617 207.042 89.0888C207.042 89.156 207.045 89.2254 207.047 89.2937L206.601 89.3126ZM217.036 87.1207C216.832 86.6237 216.553 86.1625 216.205 85.7495L216.546 85.4627C216.924 85.9113 217.227 86.4115 217.449 86.9516L217.036 87.1207ZM207.895 86.2413L207.522 85.9954C207.843 85.5068 208.236 85.0728 208.691 84.7051L208.972 85.0518C208.553 85.3912 208.191 85.7905 207.895 86.2413ZM214.997 84.6956C214.541 84.4077 214.046 84.1944 213.523 84.061L213.634 83.6281C214.2 83.7731 214.739 84.0053 215.234 84.3174L214.997 84.6956ZM210.36 84.248L210.199 83.8319C210.743 83.6207 211.316 83.4967 211.901 83.4631L211.926 83.9086C211.388 83.9401 210.861 84.0536 210.36 84.248Z" fill="#95B8D1"/>
<path d="M137.304 13.9818C135.95 13.9818 134.849 12.8806 134.849 11.5273C134.849 10.1739 135.95 9.07275 137.304 9.07275C138.657 9.07275 139.758 10.1739 139.758 11.5273C139.758 12.8806 138.657 13.9818 137.304 13.9818ZM137.304 9.51931C136.196 9.51931 135.296 10.4198 135.296 11.5273C135.296 12.6348 136.196 13.5363 137.304 13.5363C138.411 13.5363 139.312 12.6348 139.312 11.5273C139.312 10.4198 138.41 9.51931 137.304 9.51931Z" fill="#95B8D1"/>
<path d="M223 143H3V148H223V143Z" fill="#B8E0D2"/>
</svg>
