<svg width="179" height="38" viewBox="0 0 179 38" fill="none" xmlns="http://www.w3.org/2000/svg">
<path d="M10.848 1.536V15.072C10.848 15.2 10.848 15.312 10.848 15.408C10.88 15.472 10.912 15.536 10.944 15.6C11.04 15.568 11.136 15.52 11.232 15.456C11.328 15.392 11.44 15.264 11.568 15.072C12.144 14.368 12.928 13.808 13.92 13.392C14.944 12.976 16.032 12.768 17.184 12.768C20.224 12.768 22.848 14.032 25.056 16.56C27.264 19.088 28.368 22.096 28.368 25.584C28.368 28.816 27.424 31.472 25.536 33.552C23.648 35.632 21.2 36.672 18.192 36.672C15.888 36.672 13.792 35.968 11.904 34.56C11.392 34.176 10.976 33.984 10.656 33.984C10.368 33.984 10 34.096 9.552 34.32L7.248 35.28C6.768 35.44 6.352 35.6 6 35.76C5.648 35.92 5.344 36.064 5.088 36.192C4.544 36.512 4.112 36.672 3.792 36.672C3.248 36.672 2.976 36.352 2.976 35.712L3.12 34.32L3.216 31.92V9.12C3.216 7.648 2.736 6.784 1.776 6.528L1.296 6.384C0.816 6.16 0.576 5.808 0.576 5.328C0.576 4.88 0.8 4.576 1.248 4.416L9.744 0.863997L10.176 0.815998C10.528 0.815998 10.752 1.056 10.848 1.536ZM16.08 15.6C14.64 15.6 13.392 16.24 12.336 17.52C11.312 18.768 10.8 20.32 10.8 22.176L10.704 26.352V26.688C10.704 28.512 11.12 29.952 11.952 31.008C12.784 32.064 13.952 32.592 15.456 32.592C17.312 32.592 18.784 31.76 19.872 30.096C20.96 28.432 21.504 26.144 21.504 23.232C21.504 20.96 21.008 19.12 20.016 17.712C19.024 16.304 17.712 15.6 16.08 15.6ZM40.7543 13.344V30.432C40.7543 31.616 40.8823 32.416 41.1383 32.832C41.3943 33.248 41.9543 33.552 42.8183 33.744C43.6823 33.936 44.1143 34.336 44.1143 34.944C44.1143 35.648 43.6823 36 42.8183 36H31.2983C30.4023 36 29.9543 35.632 29.9543 34.896C29.9543 34.384 30.2743 34.048 30.9143 33.888C31.5543 33.696 32.0023 33.52 32.2583 33.36C32.5463 33.168 32.7703 32.928 32.9303 32.64C33.0583 32.288 33.1223 31.92 33.1223 31.536C33.1543 31.12 33.1703 30.752 33.1703 30.432V29.568V20.688C33.1703 19.376 32.6903 18.56 31.7303 18.24L31.2503 18.096C30.7703 17.936 30.5303 17.584 30.5303 17.04C30.5303 16.592 30.7383 16.288 31.1543 16.128L39.6503 12.672C39.6823 12.64 39.7303 12.624 39.7943 12.624C39.8903 12.592 39.9863 12.56 40.0823 12.528C40.4343 12.528 40.6583 12.8 40.7543 13.344ZM31.3943 7.2C31.7463 6.112 32.5783 5.152 33.8903 4.32C35.2343 3.488 36.6103 3.072 38.0183 3.072C38.9143 3.072 39.6183 3.264 40.1303 3.648C40.6743 4 40.9463 4.496 40.9463 5.136C40.9463 6.096 40.4183 7.024 39.3623 7.92C38.6903 8.528 37.8743 9.024 36.9143 9.408C35.9543 9.792 35.0583 9.984 34.2263 9.984C32.2423 9.984 31.2503 9.312 31.2503 7.968L31.3943 7.2ZM55.0556 13.2H61.1036C61.3916 13.2 61.5356 13.28 61.5356 13.44L61.4396 13.824L60.7676 15.6C60.6076 15.984 60.3196 16.176 59.9036 16.176H55.6796C55.2956 16.176 55.1036 16.4 55.1036 16.848V30.816C55.1036 32.576 55.8556 33.456 57.3596 33.456C58.3836 33.456 59.2476 33.184 59.9516 32.64C60.6556 32.064 61.1356 31.776 61.3916 31.776C62.0636 31.776 62.3996 32.112 62.3996 32.784C62.3996 33.104 62.1756 33.52 61.7276 34.032C59.9996 35.792 57.3276 36.672 53.7116 36.672C51.7276 36.672 50.1276 36.352 48.9116 35.712C47.6956 35.072 47.0876 34.224 47.0876 33.168L47.1836 31.92C47.4396 30.544 47.5676 28.992 47.5676 27.264V16.848C47.5676 16.4 47.3596 16.176 46.9436 16.176H44.8316C44.1596 16.176 43.8236 15.824 43.8236 15.12C43.8236 14.544 44.3196 13.92 45.3116 13.248C46.4956 12.512 47.8236 11.408 49.2956 9.936C50.7676 8.464 51.9356 7.056 52.7996 5.712C53.1836 5.008 53.6316 4.656 54.1436 4.656C54.7516 4.656 55.0556 5.024 55.0556 5.76V13.2ZM70.6515 26.592C70.2675 26.688 70.0755 26.832 70.0755 27.024C70.0755 27.216 70.2195 27.664 70.5075 28.368C72.1395 31.472 74.5075 33.024 77.6115 33.024C78.7635 33.024 79.8515 32.8 80.8755 32.352C81.9315 31.904 82.9875 31.184 84.0435 30.192C84.4595 29.808 84.8115 29.616 85.0995 29.616C85.7395 29.616 86.0595 29.952 86.0595 30.624C86.0595 30.912 85.9315 31.248 85.6755 31.632C84.5875 33.232 83.0675 34.48 81.1155 35.376C79.1955 36.272 77.0515 36.72 74.6835 36.72C70.8435 36.72 67.6915 35.6 65.2275 33.36C62.7635 31.12 61.5315 28.24 61.5315 24.72C61.5315 21.264 62.6995 18.352 65.0355 15.984C67.4035 13.584 70.3315 12.384 73.8195 12.384C75.8035 12.384 77.5955 12.784 79.1955 13.584C80.7955 14.352 82.1395 15.472 83.2275 16.944C83.8355 17.776 84.3795 18.704 84.8595 19.728C85.1795 20.464 85.3395 20.976 85.3395 21.264C85.3395 21.552 85.1955 21.744 84.9075 21.84L70.6515 26.592ZM69.5475 24L69.9315 23.904L77.5155 21.408C77.8995 21.248 78.0915 21.072 78.0915 20.88C78.0915 20.656 77.9315 20.144 77.6115 19.344C77.3235 18.512 76.8755 17.744 76.2675 17.04C75.2755 15.888 74.1075 15.312 72.7635 15.312C71.5475 15.312 70.5555 15.808 69.7875 16.8C69.0515 17.76 68.6835 19.056 68.6835 20.688C68.6835 21.616 68.7635 22.4 68.9235 23.04C69.1155 23.68 69.3235 24 69.5475 24ZM100.932 20.688L103.62 21.504C106.372 22.4 108.388 23.456 109.668 24.672C110.948 25.888 111.588 27.392 111.588 29.184C111.588 31.328 110.724 33.104 108.996 34.512C107.268 35.92 105.092 36.624 102.468 36.624C101.604 36.624 100.564 36.544 99.3484 36.384C98.1324 36.224 96.9804 36.016 95.8924 35.76C95.3164 35.568 94.9164 35.472 94.6924 35.472C94.3404 35.472 93.9884 35.76 93.6364 36.336C93.3164 36.912 92.9484 37.2 92.5324 37.2C92.2124 37.2 91.9884 37.136 91.8604 37.008C91.7324 36.88 91.5724 36.624 91.3804 36.24L87.2044 29.712C86.9804 29.36 86.8684 28.976 86.8684 28.56C86.8684 28.304 86.9484 28.096 87.1084 27.936C87.3004 27.744 87.5244 27.648 87.7804 27.648C88.1964 27.648 88.6924 28 89.2684 28.704L91.2364 30.384L93.5884 32.112C95.5724 33.392 97.7004 34.032 99.9724 34.032C101.06 34.032 101.94 33.776 102.612 33.264C103.316 32.72 103.668 32 103.668 31.104C103.668 30.272 103.332 29.584 102.66 29.04C102.02 28.464 100.82 27.856 99.0604 27.216L95.7964 26.016C94.3564 25.504 93.3324 25.12 92.7244 24.864C92.1484 24.576 91.4924 24.224 90.7564 23.808C88.6444 22.592 87.5884 20.96 87.5884 18.912C87.5884 17.088 88.3884 15.584 89.9884 14.4C91.6204 13.184 93.6684 12.576 96.1324 12.576C96.9964 12.576 97.8124 12.64 98.5804 12.768C99.3484 12.896 100.372 13.12 101.652 13.44L102.516 13.584C102.996 13.584 103.348 13.28 103.572 12.672C103.828 12.032 104.196 11.712 104.676 11.712C105.028 11.712 105.284 11.808 105.444 12C105.604 12.16 105.78 12.416 105.972 12.768L109.284 18.288C109.54 18.736 109.668 19.056 109.668 19.248C109.668 19.792 109.38 20.064 108.804 20.064C108.452 20.064 108.004 19.792 107.46 19.248C106.18 18 104.708 17.008 103.044 16.272C101.412 15.536 99.8284 15.168 98.2924 15.168C97.3964 15.168 96.6604 15.376 96.0844 15.792C95.5084 16.208 95.2204 16.752 95.2204 17.424C95.2204 17.936 95.3964 18.368 95.7484 18.72C96.1324 19.04 96.8524 19.376 97.9084 19.728L100.932 20.688ZM123.301 13.344V30.432C123.301 31.616 123.429 32.416 123.685 32.832C123.941 33.248 124.501 33.552 125.365 33.744C126.229 33.936 126.661 34.336 126.661 34.944C126.661 35.648 126.229 36 125.365 36H113.845C112.949 36 112.501 35.632 112.501 34.896C112.501 34.384 112.821 34.048 113.461 33.888C114.101 33.696 114.549 33.52 114.805 33.36C115.093 33.168 115.317 32.928 115.477 32.64C115.605 32.288 115.669 31.92 115.669 31.536C115.701 31.12 115.717 30.752 115.717 30.432V29.568V20.688C115.717 19.376 115.237 18.56 114.277 18.24L113.797 18.096C113.317 17.936 113.077 17.584 113.077 17.04C113.077 16.592 113.285 16.288 113.701 16.128L122.197 12.672C122.229 12.64 122.277 12.624 122.341 12.624C122.437 12.592 122.533 12.56 122.629 12.528C122.981 12.528 123.205 12.8 123.301 13.344ZM113.941 7.2C114.293 6.112 115.125 5.152 116.437 4.32C117.781 3.488 119.157 3.072 120.565 3.072C121.461 3.072 122.165 3.264 122.677 3.648C123.221 4 123.493 4.496 123.493 5.136C123.493 6.096 122.965 7.024 121.909 7.92C121.237 8.528 120.421 9.024 119.461 9.408C118.501 9.792 117.605 9.984 116.773 9.984C114.789 9.984 113.797 9.312 113.797 7.968L113.941 7.2ZM127.139 36C126.37 36 125.986 35.6 125.986 34.8C125.986 34.48 126.05 34.256 126.178 34.128L140.674 16.512L140.819 16.128C140.659 16.064 140.451 16.016 140.195 15.984C139.939 15.952 139.731 15.936 139.571 15.936C135.059 15.936 131.939 17.056 130.211 19.296C129.699 19.968 129.315 20.4 129.059 20.592C128.835 20.752 128.515 20.832 128.099 20.832C127.523 20.832 127.235 20.528 127.235 19.92L127.331 19.44L130.931 12.576C131.091 12.224 131.395 12.048 131.843 12.048C132.163 12.048 132.419 12.144 132.611 12.336L132.995 12.72C133.347 13.04 133.891 13.2 134.627 13.2L150.802 13.344C151.475 13.344 151.811 13.648 151.811 14.256C151.811 14.544 151.731 14.8 151.571 15.024L137.315 32.448L137.075 32.832C137.075 32.992 137.187 33.104 137.411 33.168C137.635 33.2 138.035 33.216 138.611 33.216L139.811 33.168L143.795 32.88C145.043 32.752 146.163 32.416 147.155 31.872C148.147 31.328 148.915 30.624 149.459 29.76C149.875 29.056 150.211 28.592 150.467 28.368C150.723 28.144 151.011 28.032 151.331 28.032C152.035 28.032 152.387 28.384 152.387 29.088L152.291 29.52L148.787 36.48C148.435 37.024 148.051 37.296 147.635 37.296C147.315 37.296 147.059 37.2 146.867 37.008L146.339 36.576C146.083 36.384 145.779 36.256 145.427 36.192C145.075 36.128 144.787 36.096 144.563 36.096L127.139 36ZM162.62 26.592C162.236 26.688 162.044 26.832 162.044 27.024C162.044 27.216 162.188 27.664 162.476 28.368C164.108 31.472 166.476 33.024 169.58 33.024C170.732 33.024 171.82 32.8 172.844 32.352C173.9 31.904 174.956 31.184 176.012 30.192C176.428 29.808 176.78 29.616 177.068 29.616C177.708 29.616 178.028 29.952 178.028 30.624C178.028 30.912 177.9 31.248 177.644 31.632C176.556 33.232 175.036 34.48 173.084 35.376C171.164 36.272 169.02 36.72 166.652 36.72C162.812 36.72 159.66 35.6 157.196 33.36C154.732 31.12 153.5 28.24 153.5 24.72C153.5 21.264 154.668 18.352 157.004 15.984C159.372 13.584 162.3 12.384 165.788 12.384C167.772 12.384 169.564 12.784 171.164 13.584C172.764 14.352 174.108 15.472 175.196 16.944C175.804 17.776 176.348 18.704 176.828 19.728C177.148 20.464 177.308 20.976 177.308 21.264C177.308 21.552 177.164 21.744 176.876 21.84L162.62 26.592ZM161.516 24L161.9 23.904L169.484 21.408C169.868 21.248 170.06 21.072 170.06 20.88C170.06 20.656 169.9 20.144 169.58 19.344C169.292 18.512 168.844 17.744 168.236 17.04C167.244 15.888 166.076 15.312 164.732 15.312C163.516 15.312 162.524 15.808 161.756 16.8C161.02 17.76 160.652 19.056 160.652 20.688C160.652 21.616 160.732 22.4 160.892 23.04C161.084 23.68 161.292 24 161.516 24Z" fill="#FCFEFF"/>
</svg>
