<svg width="237" height="187" viewBox="0 0 237 187" fill="none" xmlns="http://www.w3.org/2000/svg">
<path d="M227.45 185.998C213.49 185.998 10.1227 186.048 10.0052 185.684L9.98574 185.639C9.98574 185.639 9.9663 185.594 9.9663 185.572C9.88856 185.39 -21.3682 134.381 27.2241 98.8706C46.2368 84.976 26.0339 75.8046 41.1537 60.3371C58.529 42.5621 77.4908 62.2251 96.8117 54.166C100.225 52.7432 103.651 50.4534 107.08 46.9394C115.048 38.7805 126.012 35.0251 137.21 34.185C158.799 32.5758 183.093 41.6297 195.632 54.8643C198.156 57.5289 209.634 71.3182 200.586 90.2708C194.874 102.237 218.806 113.666 227.31 127.33C248.931 162.071 227.647 185.545 227.45 185.998Z" fill="#F5FAFA"/>
<path d="M138.492 89.4585C138.492 89.4585 138.017 96.8268 135.467 97.9201C135.275 98.001 135.072 98.0495 134.856 98.0535C132.906 98.1034 130.831 96.1056 129.859 95.0016C129.651 94.7657 129.495 94.5729 129.399 94.4476C128.155 92.8097 127.573 91.0384 132.117 87.7546C134.732 85.8646 134.462 76.2195 138.493 73.0233C141.165 70.9001 138.492 89.4585 138.492 89.4585Z" fill="#DDCEF0"/>
<path d="M122.837 74.7353C122.837 74.7353 122.656 70.8246 121.625 70.0792C120.594 69.3337 119.654 67.8967 119.331 68.2216C119.007 68.5465 120.958 70.7316 120.051 70.9001C119.621 70.9797 116.795 66.1335 115.947 66.3532C115.099 66.5743 115.292 70.094 116.113 71.5135C116.935 72.933 119.444 75.6182 119.444 75.6182L122.837 74.7353Z" fill="#FFD0B0"/>
<path d="M132.919 186.313H147.626C148.68 185.599 147.342 178.612 147.342 178.612C147.342 178.612 143.327 177.089 142.634 180.186C141.939 183.282 137.521 184.266 135.184 184.643C133.585 184.903 133.08 185.781 132.919 186.313Z" fill="black"/>
<path d="M155.346 113.896C155.346 113.896 154.882 122.476 154.303 132.416C153.885 139.545 153.41 147.374 153.002 153.238C152.948 154.016 152.894 154.76 152.843 155.462C152.828 155.681 152.812 155.896 152.796 156.113C151.743 169.261 148.222 180.78 148.222 180.78C144.086 181.65 142.219 180.057 142.219 180.057C142.219 180.057 139.369 146.666 138.315 133.199C137.539 123.286 136.877 108.853 136.877 108.853L155.346 113.896Z" fill="#A7D3F5"/>
<path d="M154.303 132.418C153.885 139.546 153.41 147.375 153.002 153.239C150.299 146.863 144.776 122.009 144.776 122.009L154.303 132.418Z" fill="#9CCCF0"/>
<path d="M154.732 186.313H169.439C170.493 185.599 169.154 178.612 169.154 178.612C169.154 178.612 165.14 177.089 164.447 180.186C163.751 183.282 159.334 184.266 156.996 184.643C155.396 184.903 154.891 185.781 154.732 186.313Z" fill="black"/>
<path d="M140.871 112.189C140.871 112.189 151.374 138.331 154.731 148.242C157.123 155.3 163.867 180.064 163.867 180.064C163.867 180.064 166.8 180.956 169.265 179.231C169.265 179.231 171.773 153.931 166.705 146.797C164.015 143.012 166.036 107.455 155.133 107.15C144.23 106.845 140.871 112.189 140.871 112.189Z" fill="#A7D3F5"/>
<path d="M162.448 96.4467C162.43 99.0888 162.403 101.604 162.376 103.78C162.359 105.253 162.342 106.57 162.329 107.668C162.307 109.339 162.295 110.5 162.302 110.916C162.33 113.166 160.893 113.675 159.409 114.016C159.409 114.016 158.04 114.311 156.311 114.605C154.62 114.889 152.577 115.168 151.135 115.157C143.761 115.099 137.59 112.929 137.59 112.929C136.203 112.929 135.571 110.783 135.343 107.788C135.189 105.759 135.815 85.5317 135.893 80.4806C135.947 76.8598 137.935 73.5126 138.49 73.0219C143.64 68.4683 158.835 69.0412 161.57 72.1821C162.247 72.9586 162.442 80.4469 162.466 88.651C162.473 91.2419 162.464 93.903 162.448 96.4467Z" fill="#E3D4F7"/>
<path d="M153.253 70.3811C151.313 72.4827 144.798 72.1713 144.991 70.3367C145.016 70.1102 145.059 68.7675 145.081 68.5586C145.097 68.3914 145.113 68.227 145.127 68.0733C145.171 67.6217 145.208 67.2214 145.236 66.8763C145.322 65.8706 145.351 65.3247 145.351 65.3247C145.351 65.3247 145.353 65.3247 145.357 65.3247C145.545 65.2721 149.733 64.0831 151.817 63.5898C152.517 63.4239 152.98 63.3377 152.972 63.3983C152.333 68.0787 153.889 69.691 153.253 70.3811Z" fill="#FFD0B0"/>
<path d="M152.038 64.9715C152.038 64.9715 150.288 66.7495 145.236 66.8763C145.322 65.8706 145.35 65.3247 145.35 65.3247C145.35 65.3247 145.353 65.3247 145.357 65.3247C145.545 65.2721 149.733 64.0831 151.817 63.5898C152.185 63.7407 151.698 64.7181 152.038 64.9715Z" fill="#FFC7A2"/>
<path d="M144.07 65.0753C144.07 65.0753 145.349 65.535 146.98 65.7533C149.365 66.0755 152.502 65.8855 153.487 62.9993C155.147 58.1424 157.267 55.2306 152.383 53.2463C149.769 52.1841 148.096 52.1274 146.96 52.5332C145.973 52.8823 145.391 53.582 144.952 54.2722C144.003 55.7617 142.095 64.226 144.07 65.0753Z" fill="#FFD4B7"/>
<path d="M145.318 50.5152C143.574 51.661 144.144 54.3463 146.198 54.7076C147.43 54.9246 148.463 54.9677 149.062 55.2333C150.276 55.7725 151.319 56.3454 151.032 58.2286C150.935 58.8689 150.623 59.6495 152.271 59.2626C152.541 59.1992 152.736 59.2181 152.87 59.299C153.555 59.7047 152.68 61.6729 152.415 62.0988C152.415 62.0988 152.037 63.5089 152.878 64.1937C152.98 64.2759 154.634 64.9984 158.62 58.8973C159.247 57.9401 159.846 55.7819 158.878 53.7046C157.914 51.6273 155.218 49 150.139 49C148.816 49 146.829 49.523 145.318 50.5152Z" fill="black"/>
<path d="M144.034 61.9398C144.034 61.9398 143.931 62.5679 145.394 63.0708C145.394 63.0708 146.62 63.4927 146.846 62.847C146.844 62.847 145.87 61.9182 144.034 61.9398Z" fill="white"/>
<path d="M161.57 72.1835C161.57 72.1835 169.045 83.3519 169.886 96.3092C169.886 96.3092 170.452 99.8356 165.729 99.4272C161.005 99.0174 157.637 91.2649 157.482 84.6946C157.325 78.1242 161.57 72.1835 161.57 72.1835Z" fill="#DDCEF0"/>
<path d="M162.448 96.4467C162.43 99.0888 162.403 101.604 162.376 103.78C162.359 105.253 162.342 106.57 162.329 107.668C160.051 107.255 158.325 103.099 159.033 100.33C159.756 97.5049 155.419 95.3372 153.58 93.4972C151.74 91.6571 152.259 90.6798 152.259 90.6798L162.448 96.4467Z" fill="#DDCEF0"/>
<path d="M161.05 89.143C161.05 89.143 159.428 82.8558 158.77 82.8558C158.114 82.8558 159.646 85.6152 159.033 86.4038C158.42 87.1924 155.277 85.5209 154.986 86.575C154.698 87.6292 161.408 90.4668 161.05 89.143Z" fill="#DDCEF0"/>
<path d="M151.698 85.3915C151.698 85.3915 148.47 84.4923 148.254 83.3613C148.037 82.2317 148.026 80.6262 146.961 80.0007C145.898 79.3752 143.389 78.592 142.936 79.1393C142.483 79.6866 143.424 81.0993 144.358 82.0416C145.293 82.9839 144.873 85.0059 145.84 85.7447C146.806 86.4834 150.226 87.9393 150.226 87.9393L151.698 85.3915Z" fill="#FFD0B0"/>
<path d="M148.254 83.3627C148.254 83.3627 148.479 81.7087 148.621 81.1573C148.762 80.606 148.346 80.8378 148.164 81.0468C147.982 81.2544 147.595 81.7909 147.707 82.3827C147.818 82.9758 148.254 83.3627 148.254 83.3627Z" fill="#FFD0B0"/>
<path d="M148.258 83.8871C148.258 83.8871 162.975 89.6 165.078 91.1772C167.18 92.7544 167.287 95.7457 166.567 97.0951C165.665 98.7855 162.396 98.3784 157.48 94.7468C153.59 91.8728 146.965 86.3594 146.965 86.3594L148.258 83.8871Z" fill="#FFD0B0"/>
<path d="M135.467 97.9174C135.275 97.9996 135.072 98.0468 134.856 98.0522C132.905 98.1021 130.831 96.1043 129.859 95.0002C130.987 94.3586 132.866 93.9946 133.674 94.5055C134.988 95.3373 134.856 94.1119 135.468 94.1119C136.079 94.1119 135.467 97.9174 135.467 97.9174Z" fill="#DDCEF0"/>
<path d="M119.445 75.6182C119.445 75.6182 128.598 96.3752 131.89 96.6489C135.182 96.9225 133.914 90.9831 133.213 89.0177C132.424 86.8069 128.809 83.7051 126.52 80.8149C124.631 78.4302 122.837 74.7353 122.837 74.7353L119.445 75.6182Z" fill="#FFD0B0"/>
<path d="M82.4052 81.1678C81.9065 80.2053 93.2866 76.7422 93.4672 86.235C93.4672 86.235 114.785 85.7107 104.606 73.8291C101.082 69.7163 101.445 66.3138 101.55 63.1486C101.658 59.9821 99.3554 50.7805 91.464 51.7066C91.464 51.7066 89.3975 50.8654 86.8187 52.204C80.9548 55.2465 67.8168 84.6686 82.4052 81.1678Z" fill="black"/>
<path d="M117.257 89.8815C117.257 89.8815 118.645 87.7691 119.763 87.7273C120.882 87.6855 122.953 87.1059 122.787 87.5197C122.621 87.9336 121.338 87.9754 121.213 88.2234C121.088 88.4714 123.117 88.8448 123.698 88.8866C124.278 88.9284 125.645 88.8866 125.603 89.1765C125.561 89.4663 123.139 90.6674 121.431 90.5016C119.722 90.3358 117.609 90.999 117.609 90.999L117.257 89.8815Z" fill="#FED6BC"/>
<path d="M97.1891 90.5649C97.1891 90.5649 97.944 92.0585 99.3109 93.7746C100.96 95.8398 103.502 98.2258 106.694 98.6963C108.219 98.9214 109.71 98.5938 111.081 97.9845C111.085 97.9831 111.086 97.9831 111.086 97.9831C114.963 96.2617 117.879 92.3039 117.879 92.3039C118.562 90.4396 117.443 89.1764 117.443 89.1764C117.443 89.1764 109.615 90.937 108.87 90.5649C108.124 90.1915 103.54 80.0233 102.715 78.3288C100.96 74.7282 98.1745 73.6956 98.1745 73.6956L97.1891 90.5649Z" fill="#94CECD"/>
<path d="M99.3123 93.7746C100.961 95.8398 103.503 98.2258 106.695 98.6963C108.22 98.9214 109.711 98.5938 111.082 97.9845C110.931 98.0047 107.058 98.4833 105.515 95.7211C103.94 92.9038 102.238 88.431 99.8987 89.9219C98.8904 90.5663 98.9349 92.1664 99.3123 93.7746Z" fill="#94CECD"/>
<path d="M67.9827 175.07C67.9827 175.07 65.594 177.25 66.0604 178.799C66.5268 180.348 68.6823 181.381 68.9735 183.274C69.2647 185.167 70.4307 186.2 71.4781 186.2C72.5255 186.2 76.478 186.2 76.478 186.2C76.478 186.2 77.2504 184.868 75.3861 184.466C73.5217 184.064 72.8181 181.84 72.9353 179.775C73.0513 177.71 72.7601 174.956 72.7601 174.956L68.7982 174.038L67.9827 175.07Z" fill="black"/>
<path d="M88.2018 175.995C88.2018 175.995 87.3418 185.231 88.3906 185.747L101.812 185.72C101.812 185.72 101.812 184.171 99.6561 183.827C97.5006 183.483 93.7126 182.22 93.0723 179.41C92.432 176.598 88.2018 175.995 88.2018 175.995Z" fill="black"/>
<path d="M77.8771 84.3357C77.8771 84.3357 79.7401 82.1195 79.9396 85.5031C80.0731 87.7462 80.2793 95.7872 80.6002 96.53C81.4076 98.3943 82.3189 98.6976 82.3189 98.6976L89.3664 100.424L91.8441 101.031L99.6573 98.6976C99.6573 98.6976 103.216 88.764 101.787 83.1723C100.358 77.5807 98.1745 73.697 98.1745 73.697C98.1745 73.697 92.878 71.6062 83.4971 73.1672L77.8771 84.3357Z" fill="#98D4D3"/>
<path d="M79.9398 91.4546C80.0732 93.6978 80.2795 95.7859 80.6003 96.53C81.4078 98.3943 82.319 98.6976 82.319 98.6976L89.3665 100.424L92.4266 99.5253C92.4266 99.5253 82.2098 97.9764 83.3422 89.1872L79.9398 91.4546Z" fill="#94CECD"/>
<path d="M99.1599 100.205C99.1599 100.205 103.029 112.249 103.278 116.35C103.526 120.451 95.8815 174.604 95.5742 176.493C95.2843 178.273 93.0722 179.408 93.0722 179.408C93.0722 179.408 92.0544 180.008 90.604 179.598C88.59 179.03 87.9524 178.349 87.9524 178.349C87.9524 178.349 84.9409 139.728 86.8039 125.931C88.6682 112.135 88.6898 100.203 88.6898 100.203H99.1599V100.205Z" fill="#7B96CA"/>
<path d="M82.7665 99.8461C82.7665 99.8461 76.8634 107.766 76.3134 113.119C75.7634 118.472 75.4507 137.277 74.2779 142.497C73.1051 147.716 68.7982 157.759 68.7982 174.038C68.7982 174.038 69.2457 174.971 70.6288 175.468C71.0709 175.627 71.6627 175.781 72.2383 175.913C73.3788 176.174 74.5475 175.616 75.0679 174.569C77.9796 168.706 87.2554 149.796 87.7313 145.871C88.0683 143.092 90.9962 124.708 97.3859 113.92C98.9199 111.33 96.445 101.03 96.445 101.03L82.7665 99.8461Z" fill="#809BCE"/>
<path d="M99.7787 98.3458C99.7787 98.3458 98.2258 99.5752 95.1388 99.6372C91.4533 99.7113 82.319 98.6976 82.319 98.6976C82.319 98.6976 81.9132 99.8313 81.9294 101.028C81.9294 101.028 93.0844 103.842 99.5482 101.44C99.5482 101.44 100.383 99.8704 99.7787 98.3458Z" fill="black"/>
<path d="M94.3422 100.91C94.3422 99.8596 95.0971 99.0063 96.0245 99.0063C96.952 99.0063 97.7069 99.8596 97.7069 100.91C97.7069 101.96 96.952 102.813 96.0245 102.813C95.0957 102.813 94.3422 101.959 94.3422 100.91ZM94.8989 100.91C94.8989 101.652 95.4031 102.256 96.0232 102.256C96.6433 102.256 97.1474 101.652 97.1474 100.91C97.1474 100.167 96.6433 99.5631 96.0232 99.5631C95.4031 99.5631 94.8989 100.167 94.8989 100.91Z" fill="white"/>
<path d="M87.3015 72.655C87.8339 71.3622 88.1453 69.3941 88.1359 66.9582L88.4891 67.0283L94.4379 68.2065C94.4379 68.2065 94.3031 70.0789 94.2991 71.8421C94.2991 71.8569 94.2991 71.8718 94.2991 71.8866C94.2924 73.418 95.3344 74.9547 92.8769 75.5627C92.1193 75.7501 86.1826 75.3686 87.3015 72.655Z" fill="#FED6BC"/>
<path d="M94.4391 68.2065C94.4391 68.2065 94.3043 70.0789 94.3003 71.8421C90.972 71.7477 89.2114 68.712 88.4902 67.0283L94.4391 68.2065Z" fill="#FFC7A2"/>
<path d="M95.5513 69.8767C95.5513 69.8767 87.6747 70.0061 87.6693 65.1006C87.6639 60.1951 86.6435 56.9073 91.6716 56.6174C96.6998 56.3276 97.6785 58.1987 98.0788 59.8352C98.4805 61.4717 97.6003 69.7163 95.5513 69.8767Z" fill="#FFDDC7"/>
<path d="M95.26 56.4961C95.26 56.4961 93.1032 62.2522 89.7938 63.1028C86.4844 63.9534 85.0487 63.0678 85.0487 63.0678C85.0487 63.0678 87.5871 61.0511 88.1141 57.5314C88.1141 57.5301 93.633 53.7569 95.26 56.4961Z" fill="black"/>
<path d="M94.7249 56.9639C94.7249 56.9639 96.3237 57.5611 96.9815 58.7285C97.6245 59.8689 98.1732 61.38 98.0465 63.2322C98.0465 63.2322 99.6708 59.3202 97.8456 57.1068C95.9098 54.7598 94.7249 56.9639 94.7249 56.9639Z" fill="black"/>
<path d="M83.4972 73.1672C83.4972 73.1672 79.9088 73.9558 78.3329 76.1909C76.7557 78.4246 74.859 96.5583 77.8773 97.5437C80.8955 98.5291 84.3114 97.084 84.4435 89.9219C84.5743 82.7612 83.4972 73.1672 83.4972 73.1672Z" fill="#94CECD"/>
<path d="M91.7201 83.0389C91.7201 83.0389 89.6428 84.9126 87.1031 86.4737C84.1765 88.2719 80.6878 89.8545 79.9019 90.9976C78.4353 93.1302 78.0322 96.4639 79.6579 96.9007C81.2837 97.3374 83.4135 96.7982 86.723 93.137C90.0324 89.4757 92.8983 85.3319 92.8983 85.3319L91.7201 83.0389Z" fill="#FED6BC"/>
<path d="M91.7201 83.0389C91.7201 83.0389 91.3979 79.9492 91.6446 79.2374C91.8913 78.5256 95.6536 76.6317 95.7129 77.2666C95.7722 77.9015 94.4889 78.8209 94.652 79.8629C94.834 81.033 95.0497 82.4538 94.435 83.0523C93.8216 83.6509 92.8982 85.3278 92.8982 85.3278L91.7201 83.0389Z" fill="#FED6BC"/>
<path d="M91.7202 83.0389C91.7202 83.0389 91.2417 81.184 90.848 80.607C90.4544 80.0301 91.5342 80.3307 91.8725 81.0289C92.2095 81.7259 91.7202 83.0389 91.7202 83.0389Z" fill="#FED6BC"/>
<path d="M118.354 0.469259C142.498 9.21227 129.691 43.1165 100 38.5853C102.159 34.8536 106.154 26.3775 103.779 18.0613C100.81 7.66598 110.703 -2.30155 118.354 0.469259Z" fill="#95B8D1"/>
<path d="M130.646 8.46926C106.502 17.2123 119.309 51.1165 149 46.5853C146.841 42.8536 142.846 34.3775 145.221 26.0613C148.19 15.666 138.297 5.69845 130.646 8.46926Z" fill="#98D4D3"/>
<circle cx="127" cy="27" r="2" fill="white"/>
<circle cx="133" cy="27" r="2" fill="white"/>
<circle cx="139" cy="27" r="2" fill="white"/>
</svg>
