<svg width="1920" height="1080" viewBox="0 0 1920 1080" fill="none" xmlns="http://www.w3.org/2000/svg">
<rect width="1920" height="1080" fill="white"/>
<path d="M361 196.5C241.8 333.7 70 273.5 0 226.5V0H625C586.667 8.33333 480.2 59.3 361 196.5Z" fill="#98D5D3"/>
<path d="M1202.32 681.811L1920 868V0H986L1054.29 514.532C1065 595.221 1123.54 661.37 1202.32 681.811Z" fill="#E5FCFF"/>
<path d="M1229.58 642.313L1920 828V0H1016L1083.5 477.187C1094.72 556.522 1152.21 621.503 1229.58 642.313Z" fill="#F5FEFF"/>
<path d="M497.225 530.723L0 438V1080H550.5L617.401 704.49C631.849 623.396 578.2 545.823 497.225 530.723Z" fill="#F2FEFF"/>
<path d="M477.224 549.847L0 458V1080H530.5L596.365 724.468C611.382 643.412 558.174 565.427 477.224 549.847Z" fill="#FAFFFF"/>
<path d="M1276.5 947C1104.5 917.4 1059 999.5 1017.5 1080H1920V947C1920 947 1833 1029.5 1744.5 963C1656 896.5 1578 937.556 1478 963C1421.67 977.333 1448.5 976.6 1276.5 947Z" fill="#98D4D3"/>
<path d="M136.848 94.536V108.072C136.848 108.2 136.848 108.312 136.848 108.408C136.88 108.472 136.912 108.536 136.944 108.6C137.04 108.568 137.136 108.52 137.232 108.456C137.328 108.392 137.44 108.264 137.568 108.072C138.144 107.368 138.928 106.808 139.92 106.392C140.944 105.976 142.032 105.768 143.184 105.768C146.224 105.768 148.848 107.032 151.056 109.56C153.264 112.088 154.368 115.096 154.368 118.584C154.368 121.816 153.424 124.472 151.536 126.552C149.648 128.632 147.2 129.672 144.192 129.672C141.888 129.672 139.792 128.968 137.904 127.56C137.392 127.176 136.976 126.984 136.656 126.984C136.368 126.984 136 127.096 135.552 127.32L133.248 128.28C132.768 128.44 132.352 128.6 132 128.76C131.648 128.92 131.344 129.064 131.088 129.192C130.544 129.512 130.112 129.672 129.792 129.672C129.248 129.672 128.976 129.352 128.976 128.712L129.12 127.32L129.216 124.92V102.12C129.216 100.648 128.736 99.784 127.776 99.528L127.296 99.384C126.816 99.16 126.576 98.808 126.576 98.328C126.576 97.88 126.8 97.576 127.248 97.416L135.744 93.864L136.176 93.816C136.528 93.816 136.752 94.056 136.848 94.536ZM142.08 108.6C140.64 108.6 139.392 109.24 138.336 110.52C137.312 111.768 136.8 113.32 136.8 115.176L136.704 119.352V119.688C136.704 121.512 137.12 122.952 137.952 124.008C138.784 125.064 139.952 125.592 141.456 125.592C143.312 125.592 144.784 124.76 145.872 123.096C146.96 121.432 147.504 119.144 147.504 116.232C147.504 113.96 147.008 112.12 146.016 110.712C145.024 109.304 143.712 108.6 142.08 108.6ZM166.754 106.344V123.432C166.754 124.616 166.882 125.416 167.138 125.832C167.394 126.248 167.954 126.552 168.818 126.744C169.682 126.936 170.114 127.336 170.114 127.944C170.114 128.648 169.682 129 168.818 129H157.298C156.402 129 155.954 128.632 155.954 127.896C155.954 127.384 156.274 127.048 156.914 126.888C157.554 126.696 158.002 126.52 158.258 126.36C158.546 126.168 158.77 125.928 158.93 125.64C159.058 125.288 159.122 124.92 159.122 124.536C159.154 124.12 159.17 123.752 159.17 123.432V122.568V113.688C159.17 112.376 158.69 111.56 157.73 111.24L157.25 111.096C156.77 110.936 156.53 110.584 156.53 110.04C156.53 109.592 156.738 109.288 157.154 109.128L165.65 105.672C165.682 105.64 165.73 105.624 165.794 105.624C165.89 105.592 165.986 105.56 166.082 105.528C166.434 105.528 166.658 105.8 166.754 106.344ZM157.394 100.2C157.746 99.112 158.578 98.152 159.89 97.32C161.234 96.488 162.61 96.072 164.018 96.072C164.914 96.072 165.618 96.264 166.13 96.648C166.674 97 166.946 97.496 166.946 98.136C166.946 99.096 166.418 100.024 165.362 100.92C164.69 101.528 163.874 102.024 162.914 102.408C161.954 102.792 161.058 102.984 160.226 102.984C158.242 102.984 157.25 102.312 157.25 100.968L157.394 100.2ZM181.056 106.2H187.104C187.392 106.2 187.536 106.28 187.536 106.44L187.44 106.824L186.768 108.6C186.608 108.984 186.32 109.176 185.904 109.176H181.68C181.296 109.176 181.104 109.4 181.104 109.848V123.816C181.104 125.576 181.856 126.456 183.36 126.456C184.384 126.456 185.248 126.184 185.952 125.64C186.656 125.064 187.136 124.776 187.392 124.776C188.064 124.776 188.4 125.112 188.4 125.784C188.4 126.104 188.176 126.52 187.728 127.032C186 128.792 183.328 129.672 179.712 129.672C177.728 129.672 176.128 129.352 174.912 128.712C173.696 128.072 173.088 127.224 173.088 126.168L173.184 124.92C173.44 123.544 173.568 121.992 173.568 120.264V109.848C173.568 109.4 173.36 109.176 172.944 109.176H170.832C170.16 109.176 169.824 108.824 169.824 108.12C169.824 107.544 170.32 106.92 171.312 106.248C172.496 105.512 173.824 104.408 175.296 102.936C176.768 101.464 177.936 100.056 178.8 98.712C179.184 98.008 179.632 97.656 180.144 97.656C180.752 97.656 181.056 98.024 181.056 98.76V106.2ZM196.652 119.592C196.268 119.688 196.076 119.832 196.076 120.024C196.076 120.216 196.22 120.664 196.508 121.368C198.14 124.472 200.508 126.024 203.612 126.024C204.764 126.024 205.852 125.8 206.876 125.352C207.932 124.904 208.988 124.184 210.044 123.192C210.46 122.808 210.812 122.616 211.1 122.616C211.74 122.616 212.06 122.952 212.06 123.624C212.06 123.912 211.932 124.248 211.676 124.632C210.588 126.232 209.068 127.48 207.116 128.376C205.196 129.272 203.052 129.72 200.684 129.72C196.844 129.72 193.692 128.6 191.228 126.36C188.764 124.12 187.532 121.24 187.532 117.72C187.532 114.264 188.7 111.352 191.036 108.984C193.404 106.584 196.332 105.384 199.82 105.384C201.804 105.384 203.596 105.784 205.196 106.584C206.796 107.352 208.14 108.472 209.228 109.944C209.836 110.776 210.38 111.704 210.859 112.728C211.18 113.464 211.34 113.976 211.34 114.264C211.34 114.552 211.196 114.744 210.908 114.84L196.652 119.592ZM195.548 117L195.932 116.904L203.516 114.408C203.9 114.248 204.092 114.072 204.092 113.88C204.092 113.656 203.932 113.144 203.612 112.344C203.324 111.512 202.876 110.744 202.268 110.04C201.276 108.888 200.108 108.312 198.764 108.312C197.548 108.312 196.556 108.808 195.788 109.8C195.052 110.76 194.684 112.056 194.684 113.688C194.684 114.616 194.764 115.4 194.924 116.04C195.116 116.68 195.324 117 195.548 117ZM226.932 113.688L229.62 114.504C232.372 115.4 234.388 116.456 235.668 117.672C236.948 118.888 237.588 120.392 237.588 122.184C237.588 124.328 236.724 126.104 234.996 127.512C233.268 128.92 231.092 129.624 228.468 129.624C227.604 129.624 226.564 129.544 225.348 129.384C224.132 129.224 222.98 129.016 221.892 128.76C221.316 128.568 220.916 128.472 220.692 128.472C220.34 128.472 219.988 128.76 219.636 129.336C219.316 129.912 218.948 130.2 218.532 130.2C218.212 130.2 217.988 130.136 217.86 130.008C217.732 129.88 217.572 129.624 217.38 129.24L213.204 122.712C212.98 122.36 212.868 121.976 212.868 121.56C212.868 121.304 212.948 121.096 213.108 120.936C213.3 120.744 213.524 120.648 213.78 120.648C214.196 120.648 214.692 121 215.268 121.704L217.236 123.384L219.588 125.112C221.572 126.392 223.7 127.032 225.972 127.032C227.06 127.032 227.94 126.776 228.612 126.264C229.316 125.72 229.668 125 229.668 124.104C229.668 123.272 229.332 122.584 228.66 122.04C228.02 121.464 226.82 120.856 225.06 120.216L221.796 119.016C220.356 118.504 219.332 118.12 218.724 117.864C218.148 117.576 217.492 117.224 216.756 116.808C214.644 115.592 213.588 113.96 213.588 111.912C213.588 110.088 214.388 108.584 215.988 107.4C217.62 106.184 219.668 105.576 222.132 105.576C222.996 105.576 223.812 105.64 224.58 105.768C225.348 105.896 226.372 106.12 227.652 106.44L228.516 106.584C228.996 106.584 229.348 106.28 229.572 105.672C229.828 105.032 230.196 104.712 230.676 104.712C231.028 104.712 231.284 104.808 231.444 105C231.604 105.16 231.78 105.416 231.972 105.768L235.284 111.288C235.54 111.736 235.668 112.056 235.668 112.248C235.668 112.792 235.38 113.064 234.804 113.064C234.452 113.064 234.004 112.792 233.46 112.248C232.18 111 230.708 110.008 229.044 109.272C227.412 108.536 225.828 108.168 224.292 108.168C223.396 108.168 222.66 108.376 222.084 108.792C221.508 109.208 221.22 109.752 221.22 110.424C221.22 110.936 221.396 111.368 221.748 111.72C222.132 112.04 222.852 112.376 223.908 112.728L226.932 113.688ZM249.301 106.344V123.432C249.301 124.616 249.429 125.416 249.685 125.832C249.941 126.248 250.501 126.552 251.365 126.744C252.229 126.936 252.661 127.336 252.661 127.944C252.661 128.648 252.229 129 251.365 129H239.845C238.949 129 238.501 128.632 238.501 127.896C238.501 127.384 238.821 127.048 239.461 126.888C240.101 126.696 240.549 126.52 240.805 126.36C241.093 126.168 241.317 125.928 241.477 125.64C241.605 125.288 241.669 124.92 241.669 124.536C241.701 124.12 241.717 123.752 241.717 123.432V122.568V113.688C241.717 112.376 241.237 111.56 240.277 111.24L239.797 111.096C239.317 110.936 239.077 110.584 239.077 110.04C239.077 109.592 239.285 109.288 239.701 109.128L248.197 105.672C248.229 105.64 248.277 105.624 248.341 105.624C248.437 105.592 248.533 105.56 248.629 105.528C248.981 105.528 249.205 105.8 249.301 106.344ZM239.941 100.2C240.293 99.112 241.125 98.152 242.437 97.32C243.781 96.488 245.157 96.072 246.565 96.072C247.461 96.072 248.165 96.264 248.677 96.648C249.221 97 249.493 97.496 249.493 98.136C249.493 99.096 248.965 100.024 247.909 100.92C247.237 101.528 246.421 102.024 245.461 102.408C244.501 102.792 243.605 102.984 242.773 102.984C240.789 102.984 239.797 102.312 239.797 100.968L239.941 100.2ZM253.139 129C252.37 129 251.986 128.6 251.986 127.8C251.986 127.48 252.05 127.256 252.178 127.128L266.674 109.512L266.819 109.128C266.659 109.064 266.451 109.016 266.195 108.984C265.939 108.952 265.731 108.936 265.571 108.936C261.059 108.936 257.939 110.056 256.211 112.296C255.699 112.968 255.315 113.4 255.059 113.592C254.835 113.752 254.515 113.832 254.099 113.832C253.523 113.832 253.235 113.528 253.235 112.92L253.331 112.44L256.931 105.576C257.091 105.224 257.395 105.048 257.843 105.048C258.163 105.048 258.419 105.144 258.611 105.336L258.995 105.72C259.347 106.04 259.891 106.2 260.627 106.2L276.802 106.344C277.475 106.344 277.811 106.648 277.811 107.256C277.811 107.544 277.731 107.8 277.571 108.024L263.315 125.448L263.075 125.832C263.075 125.992 263.187 126.104 263.411 126.168C263.635 126.2 264.035 126.216 264.611 126.216L265.811 126.168L269.795 125.88C271.043 125.752 272.163 125.416 273.155 124.872C274.147 124.328 274.915 123.624 275.459 122.76C275.875 122.056 276.211 121.592 276.467 121.368C276.723 121.144 277.011 121.032 277.331 121.032C278.035 121.032 278.387 121.384 278.387 122.088L278.291 122.52L274.787 129.48C274.435 130.024 274.051 130.296 273.635 130.296C273.315 130.296 273.059 130.2 272.867 130.008L272.339 129.576C272.083 129.384 271.779 129.256 271.427 129.192C271.075 129.128 270.787 129.096 270.563 129.096L253.139 129ZM288.62 119.592C288.236 119.688 288.044 119.832 288.044 120.024C288.044 120.216 288.188 120.664 288.476 121.368C290.108 124.472 292.476 126.024 295.58 126.024C296.732 126.024 297.82 125.8 298.844 125.352C299.9 124.904 300.956 124.184 302.012 123.192C302.428 122.808 302.78 122.616 303.068 122.616C303.708 122.616 304.028 122.952 304.028 123.624C304.028 123.912 303.9 124.248 303.644 124.632C302.556 126.232 301.036 127.48 299.084 128.376C297.164 129.272 295.02 129.72 292.652 129.72C288.812 129.72 285.66 128.6 283.196 126.36C280.732 124.12 279.5 121.24 279.5 117.72C279.5 114.264 280.668 111.352 283.004 108.984C285.372 106.584 288.3 105.384 291.788 105.384C293.772 105.384 295.564 105.784 297.164 106.584C298.764 107.352 300.108 108.472 301.196 109.944C301.804 110.776 302.348 111.704 302.828 112.728C303.148 113.464 303.308 113.976 303.308 114.264C303.308 114.552 303.164 114.744 302.876 114.84L288.62 119.592ZM287.516 117L287.9 116.904L295.484 114.408C295.868 114.248 296.06 114.072 296.06 113.88C296.06 113.656 295.9 113.144 295.58 112.344C295.292 111.512 294.844 110.744 294.236 110.04C293.244 108.888 292.076 108.312 290.732 108.312C289.516 108.312 288.524 108.808 287.756 109.8C287.02 110.76 286.652 112.056 286.652 113.688C286.652 114.616 286.732 115.4 286.892 116.04C287.084 116.68 287.292 117 287.516 117Z" fill="#FCFEFF"/>
</svg>
