<svg width="193" height="222" viewBox="0 0 193 222" fill="none" xmlns="http://www.w3.org/2000/svg">
<path d="M62.9395 93.7572L37.8447 76.4559L37.1677 85.4085L8.83373 68.8816L10.7334 65.6279L33.8652 79.1202L34.5812 69.6269L65.0778 90.6545L62.9395 93.7572Z" fill="#809BCE"/>
<path d="M7.2846 75.243L15.6089 61.3464L3.36354 63.4555L7.2846 75.243Z" fill="#809BCE"/>
<path d="M45.8916 82.0038L62.9397 93.7573L65.078 90.6545L45.8916 77.4252V82.0038Z" fill="#728CBD"/>
<path d="M97.2499 203.732C130.548 203.732 157.542 202.321 157.542 200.581C157.542 198.84 130.548 197.429 97.2499 197.429C63.9517 197.429 36.9581 198.84 36.9581 200.581C36.9581 202.321 63.9517 203.732 97.2499 203.732Z" fill="#F7F7F7"/>
<path d="M56.2273 180.186C56.2273 180.186 28.697 166.592 5.68695 179.499C-17.3231 192.412 60.3139 187.804 60.3139 187.804L56.2273 180.186Z" fill="#C2EDEC"/>
<path d="M58.9064 185.184C58.9064 185.184 21.3129 179.066 12.6038 181.511C3.89467 183.956 35.0245 173.737 58.1904 183.839C58.9064 185.184 58.9064 185.184 58.9064 185.184Z" fill="#87BDBC"/>
<path d="M61.5659 178.136C61.5659 178.136 42.2333 154.283 15.9305 156.402C-10.3722 158.521 62.0919 186.767 62.0919 186.767L61.5659 178.136Z" fill="#C2EDEC"/>
<path d="M61.9118 183.791C61.9118 183.791 30.3095 162.529 21.3763 161.112C12.4431 159.694 44.9952 163.416 61.8192 182.271C61.9118 183.791 61.9118 183.791 61.9118 183.791Z" fill="#87BDBC"/>
<path d="M131.516 188.399C131.516 188.399 184.57 197.887 183.562 181.842C182.554 165.798 155.384 175.32 155.384 175.32C155.384 175.32 177.006 166.645 181.399 151.667C185.788 136.689 141.239 167.795 141.239 167.795C141.239 167.795 154.921 157.313 158.043 141.336C161.161 125.355 131.453 144.039 131.516 188.399Z" fill="#E0B4C8"/>
<path opacity="0.46" d="M136.076 180.785C136.076 180.785 184.789 143.182 171.955 155.505C159.115 167.829 136.076 180.785 136.076 180.785Z" fill="#BE9CAB"/>
<path opacity="0.46" d="M176.095 181.073L137.868 181.609C137.868 181.613 170.454 185.651 176.095 181.073Z" fill="#BE9CAB"/>
<path opacity="0.46" d="M151.901 143.684L135.394 170.196C135.394 170.191 144.682 146.991 151.901 143.684Z" fill="#BE9CAB"/>
<g filter="url(#filter0_d)">
<path d="M61.4637 199.363H133.309C139.291 199.363 144.142 194.512 144.142 188.53V23.8016C144.137 17.8202 139.291 12.9688 133.309 12.9688H61.4637C55.4822 12.9688 50.6308 17.8202 50.6308 23.8016V188.535C50.6308 194.516 55.4822 199.363 61.4637 199.363Z" fill="#98D4D3"/>
</g>
<path d="M58.3262 188.652H136.445C139.217 188.652 141.467 186.402 141.467 183.63V22.7544C141.467 19.9829 139.217 17.7325 136.445 17.7325H58.3262C55.5546 17.7325 53.3043 19.9829 53.3043 22.7544V183.635C53.3043 186.406 55.5498 188.652 58.3262 188.652Z" fill="#FFFFFD"/>
<path d="M93.8109 193.859C93.8109 195.832 95.4086 197.434 97.3861 197.434C99.3588 197.434 100.961 195.836 100.961 193.859C100.961 191.886 99.3637 190.284 97.3861 190.284C95.4134 190.284 93.8109 191.886 93.8109 193.859Z" fill="white"/>
<path d="M123.601 18.7019C123.601 21.1568 121.609 23.149 119.154 23.149H75.8713C73.4164 23.149 71.4242 21.1568 71.4242 18.7019C71.4242 16.2469 73.4164 14.2547 75.8713 14.2547H119.154C121.609 14.2547 123.601 16.2469 123.601 18.7019Z" fill="#98D4D3"/>
<path d="M78.3752 18.507C78.3752 19.5932 77.4936 20.4748 76.4074 20.4748C75.3212 20.4748 74.4395 19.5932 74.4395 18.507C74.4395 17.4208 75.3212 16.5392 76.4074 16.5392C77.4936 16.5392 78.3752 17.4208 78.3752 18.507Z" fill="white"/>
<path opacity="0.52" d="M132.345 115.973H62.5692C59.5298 115.973 57.07 118.438 57.07 121.473V179.236C57.07 182.276 59.5347 184.736 62.5692 184.736H132.345C135.384 184.736 137.844 182.271 137.844 179.236V121.473C137.844 118.433 135.379 115.973 132.345 115.973Z" fill="#D5EAFF"/>
<path d="M133.338 35.1654H61.9357C59.4466 35.1654 57.4301 37.1819 57.4301 39.671V107.464C57.4301 109.953 59.4466 111.969 61.9357 111.969H133.338C135.827 111.969 137.844 109.953 137.844 107.464V39.6661C137.844 37.1819 135.827 35.1654 133.338 35.1654Z" fill="#E8F0FF"/>
<path fill-rule="evenodd" clip-rule="evenodd" d="M59.7298 26.6267C59.7298 26.4922 59.8389 26.3832 59.9734 26.3832H65.8233C65.9578 26.3832 66.0669 26.4922 66.0669 26.6267C66.0669 26.7613 65.9578 26.8703 65.8233 26.8703H59.9734C59.8389 26.8703 59.7298 26.7613 59.7298 26.6267Z" fill="#728CBD"/>
<path fill-rule="evenodd" clip-rule="evenodd" d="M59.7295 28.7358C59.7295 28.6013 59.8386 28.4923 59.9731 28.4923H65.823C65.9575 28.4923 66.0666 28.6013 66.0666 28.7358C66.0666 28.8703 65.9575 28.9794 65.823 28.9794H59.9731C59.8386 28.9794 59.7295 28.8703 59.7295 28.7358Z" fill="#728CBD"/>
<path fill-rule="evenodd" clip-rule="evenodd" d="M59.7295 30.845C59.7295 30.7104 59.8386 30.6014 59.9731 30.6014H65.823C65.9575 30.6014 66.0666 30.7104 66.0666 30.845C66.0666 30.9795 65.9575 31.0885 65.823 31.0885H59.9731C59.8386 31.0885 59.7295 30.9795 59.7295 30.845Z" fill="#728CBD"/>
<path d="M123.548 27.1625C123.548 25.9497 120.66 25.2726 120.66 27.1625C120.66 30.163 123.548 31.4879 123.548 31.4879C123.548 31.4879 126.436 30.163 126.436 27.1625C126.436 25.2726 123.548 25.9497 123.548 27.1625Z" fill="#809BCE"/>
<path d="M135.623 30.1971H130.976L130.562 26.6267H136.037L135.623 30.1971Z" fill="#809BCE"/>
<path d="M132.783 30.9131C132.783 31.3077 132.462 31.6292 132.067 31.6292C131.673 31.6292 131.351 31.3077 131.351 30.9131C131.351 30.5186 131.673 30.1971 132.067 30.1971C132.462 30.1971 132.783 30.5186 132.783 30.9131Z" fill="#809BCE"/>
<path d="M135.243 30.9131C135.243 31.3077 134.921 31.6292 134.527 31.6292C134.132 31.6292 133.811 31.3077 133.811 30.9131C133.811 30.5186 134.132 30.1971 134.527 30.1971C134.921 30.1971 135.243 30.5186 135.243 30.9131Z" fill="#809BCE"/>
<path d="M137.542 26.6268H135.243V27.4061H137.542V26.6268Z" fill="#809BCE"/>
<path d="M70.7426 153.65C70.7426 153.65 74.4493 160.888 96.7287 159.344C97.3863 156.027 97.3863 156.027 97.3863 156.027L89.4809 141.619L70.7426 153.65Z" fill="#87A9C1"/>
<path d="M113.08 150.454C113.08 150.454 112.14 170.464 106.31 188.691C97.3864 188.691 97.3864 188.691 97.3864 188.691V146.212L113.08 150.454Z" fill="#FED6BC"/>
<path d="M81.6922 150.454C81.6922 150.454 82.6323 170.464 88.4627 188.691C97.3862 188.691 97.3862 188.691 97.3862 188.691V146.212L81.6922 150.454Z" fill="#FED6BC"/>
<path d="M111.867 162.856C112.842 155.515 113.08 150.459 113.08 150.459L97.3862 146.217L81.6922 150.459C81.6922 150.459 81.775 152.261 82.0526 155.277C85.4428 155.764 91.736 157.171 97.3083 161.204C101.015 163.883 106.743 163.766 111.867 162.856Z" fill="#87A9C1"/>
<path d="M110.358 95.8664C110.358 95.8664 122.715 125.194 124.566 150.454C110.046 161.2 100.377 158.15 92.2381 153.65C84.0988 149.149 70.738 153.65 70.738 153.65C70.738 153.65 73.9041 118.57 84.2498 95.8615C97.3866 95.6472 110.358 95.8664 110.358 95.8664Z" fill="#95B8D1"/>
<path opacity="0.46" d="M104.868 121.005C104.561 126.529 107.123 149.173 108.117 157.658C112.866 157.186 118.258 155.126 124.566 150.454C122.71 125.189 110.358 95.8664 110.358 95.8664C110.358 95.8664 108.356 95.8323 105.136 95.8031L104.479 97.5225C104.479 97.5225 119.939 134.093 114.995 140.693C110.051 147.298 105.248 114.166 104.868 121.005Z" fill="#95B8D1"/>
<path d="M84.2544 95.8664C73.9038 118.57 70.7426 153.655 70.7426 153.655C70.7426 153.655 74.0207 152.549 78.3217 151.984C78.497 144.741 78.8526 136.363 79.5686 129.383C81.215 113.319 88.7356 105.287 86.948 115.296C85.1604 125.301 86.2612 142.359 86.948 133.09C87.6299 123.854 94.0205 95.9589 94.0644 95.7738C90.947 95.7836 87.6105 95.8079 84.2544 95.8664Z" fill="#95B8D1"/>
<path d="M124.956 56.3197C124.956 56.3197 131.77 57.3474 133.363 65.0678C129.412 66.3634 129.412 66.3634 129.412 66.3634L123.806 58.5457L124.956 56.3197Z" fill="#163C7A"/>
<path d="M137.508 76.2952L137.483 76.3147C136.802 76.9138 135.764 76.8407 135.165 76.1588L127.118 66.9528L129.617 64.7707L137.664 73.9767C138.263 74.6586 138.195 75.6961 137.508 76.2952Z" fill="#985C77"/>
<path d="M134.609 41.7996C134.609 41.7996 130.274 53.1926 121.424 61.3659L118.628 64.4395C118.229 64.8778 118.092 65.4916 118.268 66.0566C118.672 67.3571 119.734 69.6416 122.354 70.7521C122.885 70.9762 123.499 70.8934 123.966 70.5524C135.389 62.1989 140.688 59.9388 148.501 57.703C144.531 56.0664 135.243 51.8093 134.609 41.7996Z" fill="#D6A7BC"/>
<path d="M118.628 64.4346C118.229 64.873 118.092 65.4867 118.268 66.0517C118.418 66.5339 118.657 67.1477 119.032 67.7906C126.514 61.1613 132.929 52.1112 136.032 47.3962C135.257 45.7693 134.736 43.9135 134.604 41.8044C134.604 41.8044 130.269 53.1974 121.419 61.3708L118.628 64.4346Z" fill="#E0B4C8"/>
<path d="M120.309 62.3596C120.557 63.6942 121.575 66.4024 125.686 68.9499C126.309 69.3347 127.103 69.3104 127.707 68.9012L133.363 65.0727C133.363 65.0727 128.156 63.967 124.955 56.3246C122.418 58.8769 121.244 60.1823 120.698 60.8399C120.348 61.2637 120.206 61.8141 120.309 62.3596Z" fill="#617BAB"/>
<path d="M150.071 56.9962C152.354 55.001 150.946 49.656 146.928 45.0578C142.909 40.4595 137.8 38.3493 135.518 40.3445C133.235 42.3397 134.642 47.6848 138.66 52.283C142.679 56.8813 147.788 58.9914 150.071 56.9962Z" fill="#985C77"/>
<path d="M149.472 55.9191C151.362 54.2674 149.992 49.608 146.413 45.5121C142.833 41.4163 138.399 39.4349 136.509 41.0867C134.619 42.7384 135.989 47.3978 139.569 51.4936C143.148 55.5895 147.582 57.5709 149.472 55.9191Z" fill="#F7D6E4"/>
<path d="M144.955 50.7669C144.955 50.7669 144.955 50.7669 141.146 46.4075C140.041 47.3719 138.204 48.4094 137.542 48.7699C138.102 49.6807 138.779 50.6013 139.558 51.4927C140.357 52.4084 141.2 53.217 142.047 53.9038C143.226 52.2477 144.955 50.7669 144.955 50.7669Z" fill="#617BAB"/>
<path d="M143.728 47.9321C144.78 49.1352 145.316 50.3821 144.926 50.7231C144.537 51.064 143.373 50.3626 142.32 49.1644C141.268 47.9613 140.733 46.7143 141.122 46.3734C141.512 46.0275 142.681 46.7289 143.728 47.9321Z" fill="#374F7C"/>
<path d="M106.246 45.3115C106.246 45.3115 108.731 30.4797 97.3083 31.1713C91.2441 31.1713 87.5519 36.2955 86.1101 45.3115C84.6732 54.3324 81.2782 53.7722 76.7532 60.1872C72.2281 66.6021 65.5696 94.2103 89.8997 93.6307C114.23 93.0462 108.701 72.3059 106.646 60.8983C104.6 49.4907 106.246 45.3115 106.246 45.3115Z" fill="black"/>
<path d="M110.357 60.1872C110.357 60.1872 113.445 61.5754 114.838 64.2008C116.227 66.8262 120.552 79.0716 120.552 79.0716L132.534 66.2417C133.436 65.2772 135.004 65.4039 135.735 66.5047L136.986 68.3849C138.306 70.3624 138.082 72.9927 136.441 74.717L121.838 90.109C119.325 92.7588 114.902 91.8479 113.64 88.4188L109.105 76.1004C109.11 76.1052 107.118 64.9753 110.357 60.1872Z" fill="#FED6BC"/>
<path fill-rule="evenodd" clip-rule="evenodd" d="M120.713 78.9049C120.805 78.9937 120.808 79.1404 120.719 79.2325L117.631 82.4327C117.542 82.5247 117.395 82.5273 117.303 82.4385C117.211 82.3496 117.209 82.203 117.297 82.1109L120.386 78.9107C120.474 78.8186 120.621 78.816 120.713 78.9049Z" fill="#E5B99C"/>
<path d="M114.839 64.2008C113.451 61.5754 110.358 60.1872 110.358 60.1872C107.114 64.9753 109.111 76.1052 109.111 76.1052L109.647 77.5567C110.494 75.584 112.574 72.8515 117.654 71.1126C116.558 68.19 115.433 65.3211 114.839 64.2008Z" fill="#DBC4FA"/>
<path d="M91.6678 46.4074C91.6678 46.4074 92.2085 54.4444 86.1102 60.1823C80.0118 65.9202 78.5944 86.9283 85.1457 89.505C91.7019 92.0866 97.8831 89.505 97.8831 89.505L105.262 61.5169C105.262 61.5169 101.955 54.3324 102.525 46.2759C103.095 38.2292 91.6678 46.4074 91.6678 46.4074Z" fill="black"/>
<path d="M106.305 45.8034C106.305 46.953 105.37 47.8882 104.22 47.8882C103.071 47.8882 102.136 46.953 102.136 45.8034C102.136 44.6539 103.071 43.7187 104.22 43.7187C105.375 43.7187 106.305 44.649 106.305 45.8034Z" fill="#F5CFB5"/>
<path d="M110.357 60.1872L98.5648 56.724L97.3032 56.8945L96.0417 56.724L84.2493 60.1872C84.2493 60.1872 87.1815 80.8836 84.2493 95.8664C89.8118 101.58 97.2984 101.429 97.2984 101.429C97.2984 101.429 104.79 101.585 110.347 95.8664C107.425 80.8836 110.357 60.1872 110.357 60.1872Z" fill="#E3D4F7"/>
<path d="M97.4155 62.7736H97.3571C95.7789 62.7736 94.4979 61.4926 94.4979 59.9144V51.0153H100.28V59.9095C100.275 61.4926 98.9937 62.7736 97.4155 62.7736Z" fill="#FED6BC"/>
<path d="M94.493 51.0153V57.2159C98.0341 56.2953 100.275 51.9992 100.275 51.9992V51.0153H94.493Z" fill="#FED6BC"/>
<path d="M92.2426 58.0781C92.2426 58.0781 87.396 64.04 91.6532 67.6104C95.6376 70.947 97.3862 62.7687 97.3862 62.7687L92.2426 58.0781Z" fill="white"/>
<path d="M102.53 58.0781C102.53 58.0781 107.377 64.04 103.119 67.6104C99.1351 70.947 97.3864 62.7687 97.3864 62.7687L102.53 58.0781Z" fill="white"/>
<path d="M84.2545 60.1872C84.2545 60.1872 81.1664 61.5754 79.7733 64.2008C78.3851 66.8262 74.0597 79.0716 74.0597 79.0716L60.3141 64.3566L57.0847 67.9514C55.5991 69.6026 55.638 72.116 57.1675 73.7234L72.7738 90.1139C75.2872 92.7636 79.71 91.8528 80.9715 88.4237L85.5063 76.1052C85.5063 76.1052 87.4985 64.9753 84.2545 60.1872Z" fill="#FED6BC"/>
<path fill-rule="evenodd" clip-rule="evenodd" d="M73.9037 78.9049C73.9958 78.816 74.1425 78.8186 74.2313 78.9107L77.3195 82.1109C77.4083 82.203 77.4057 82.3496 77.3136 82.4385C77.2216 82.5273 77.0749 82.5247 76.986 82.4327L73.8979 79.2325C73.809 79.1404 73.8117 78.9937 73.9037 78.9049Z" fill="#E5B99C"/>
<path d="M79.7779 64.2008C81.1661 61.5754 84.2591 60.1872 84.2591 60.1872C87.5031 64.9753 85.506 76.1052 85.506 76.1052L84.9702 77.5567C84.1227 75.584 82.0428 72.8515 76.9625 71.1126C78.0584 68.19 79.1836 65.3211 79.7779 64.2008Z" fill="#DBC4FA"/>
<path d="M63.4409 67.6981L57.9904 61.9261C57.4643 61.3708 56.573 61.3903 56.0713 61.965L56.0566 61.9845C55.6572 62.4424 55.6329 63.1194 55.9933 63.6065L58.5359 67.0259C58.5359 67.0259 57.6299 70.8349 60.9908 73.5772C64.3518 76.3195 65.9932 70.4258 65.9932 70.4258L63.4409 67.6981Z" fill="#FED6BC"/>
<path d="M102.525 57.8832L98.5649 56.7191L97.3034 56.8896L96.0418 56.7191L92.2376 57.8345C92.3545 60.5768 94.6098 62.7687 97.3813 62.7687C100.143 62.7736 102.389 60.606 102.525 57.8832Z" fill="#FED6BC"/>
<path d="M88.4382 45.8034C88.4382 46.953 89.3735 47.8882 90.523 47.8882C91.6725 47.8882 92.6077 46.953 92.6077 45.8034C92.6077 44.6539 91.6725 43.7187 90.523 43.7187C89.3735 43.7187 88.4382 44.649 88.4382 45.8034Z" fill="#F5CFB5"/>
<path d="M98.0732 35.1654H97.3767H96.6802C93.5628 35.1654 91.0348 37.6934 91.0348 40.8108V44.7124C91.0348 47.6398 92.3548 50.46 94.7269 52.1843C95.5696 52.798 96.4853 53.2315 97.3816 53.2315C98.2778 53.2315 99.1935 52.798 100.036 52.1843C102.403 50.46 103.728 47.6398 103.728 44.7124V40.8108C103.719 37.6934 101.191 35.1654 98.0732 35.1654Z" fill="#FFDDC7"/>
<path d="M95.5303 39.9632C95.5303 39.9632 93.7427 39.5736 92.2571 40.4016" stroke="#2D0101" stroke-width="0.31992" stroke-miterlimit="10"/>
<path d="M101.069 36.0324C100.202 35.4869 100.319 34.4104 99.2178 34.4104H98.1316H96.6168C93.4994 34.4104 89.9047 37.4012 89.9047 40.5185L91.0299 42.2477C96.193 41.4683 99.7001 37.7421 101.069 36.0324Z" fill="black"/>
<path d="M109.077 82.2669C109.038 80.1383 109.057 78.0438 109.111 76.037C108.921 76.9089 107.294 79.5538 95.5307 83.5187C80.9716 88.4237 86.2468 88.6088 97.6544 85.0141C103.641 83.129 107.119 82.4715 109.077 82.2669Z" fill="#E3D4F7"/>
<path fill-rule="evenodd" clip-rule="evenodd" d="M135.579 66.5184C135.673 66.6045 135.68 66.751 135.594 66.8457L132.457 70.2943C132.371 70.3889 132.225 70.3958 132.13 70.3097C132.036 70.2236 132.029 70.0771 132.115 69.9825L135.252 66.5339C135.338 66.4392 135.484 66.4323 135.579 66.5184Z" fill="#E5B99C"/>
<path fill-rule="evenodd" clip-rule="evenodd" d="M137.152 68.6957C137.246 68.7818 137.253 68.9283 137.167 69.023L134.026 72.4765C133.939 72.5711 133.793 72.578 133.698 72.4919C133.604 72.4058 133.597 72.2593 133.683 72.1646L136.824 68.7112C136.911 68.6165 137.057 68.6096 137.152 68.6957Z" fill="#E5B99C"/>
<path fill-rule="evenodd" clip-rule="evenodd" d="M130.635 68.2232C130.74 68.1507 130.885 68.1774 130.957 68.2828L134.61 73.597C134.683 73.7024 134.656 73.8466 134.551 73.9191C134.445 73.9916 134.301 73.9649 134.228 73.8595L130.575 68.5453C130.503 68.4399 130.529 68.2956 130.635 68.2232Z" fill="#E5B99C"/>
<path fill-rule="evenodd" clip-rule="evenodd" d="M97.3862 160.968C97.5142 160.968 97.6179 161.072 97.6179 161.2V188.691C97.6179 188.819 97.5142 188.922 97.3862 188.922C97.2583 188.922 97.1545 188.819 97.1545 188.691V161.2C97.1545 161.072 97.2583 160.968 97.3862 160.968Z" fill="#E5B99C"/>
<g filter="url(#filter1_d)">
<path d="M177.727 38.4711C182.296 33.9021 182.296 26.4942 177.727 21.9252C173.158 17.3561 165.75 17.3561 161.181 21.9252C156.612 26.4942 156.612 33.9021 161.181 38.4711C165.75 43.0401 173.158 43.0402 177.727 38.4711Z" fill="white"/>
</g>
<path d="M169.461 26.5098C171.726 23.8893 177.089 23.1879 177.079 27.9565C177.069 32.7299 169.437 37.5326 169.437 37.5326C169.437 37.5326 161.824 32.6958 161.838 27.9224C161.843 23.1538 167.206 23.8795 169.461 26.5098Z" fill="#E0B4C8"/>
<g filter="url(#filter2_d)">
<path d="M121.566 168.253C121.566 171.521 124.215 174.171 127.484 174.171C130.752 174.171 133.402 171.521 133.402 168.253C133.402 164.984 130.752 162.334 127.484 162.334C124.215 162.334 121.566 164.984 121.566 168.253Z" fill="#FFFFFD"/>
</g>
<path d="M127.489 166.387C128.634 165.062 131.347 164.707 131.342 167.118C131.337 169.529 127.474 171.959 127.474 171.959C127.474 171.959 123.626 169.514 123.631 167.098C123.636 164.692 126.349 165.057 127.489 166.387Z" fill="#BF376A"/>
<g filter="url(#filter3_d)">
<path d="M66.2671 48.2866H13.0138C12.439 48.2866 11.9763 47.819 11.9763 47.2491V35.1109C11.9763 34.5361 12.4439 34.0734 13.0138 34.0734H66.2671C66.8419 34.0734 67.3046 34.541 67.3046 35.1109V47.2491C67.3046 47.819 66.8419 48.2866 66.2671 48.2866Z" fill="white"/>
<path d="M24.9183 48.0187L19.8038 54.0294L20.9631 48.0187H24.9183Z" fill="white"/>
</g>
<path d="M20.5295 37.1323L21.567 39.2365L23.8856 39.5726C24.1632 39.6116 24.2752 39.9574 24.0755 40.1522L22.3951 41.7888L22.7896 44.0976C22.8383 44.3753 22.5461 44.5896 22.2977 44.4581L20.2227 43.367L18.1477 44.4581C17.8993 44.5896 17.607 44.3753 17.6557 44.0976L18.0503 41.7888L16.3698 40.1522C16.1701 39.9574 16.2772 39.6116 16.5598 39.5726L18.8783 39.2365L19.9158 37.1323C20.0424 36.879 20.4029 36.879 20.5295 37.1323Z" fill="#E4B66C"/>
<path opacity="0.62" d="M19.6284 39.368C19.5796 39.4703 19.4579 39.5093 19.3556 39.4606C19.2533 39.4118 19.2143 39.2901 19.263 39.1878L19.9742 37.7704C20.0229 37.6681 20.1447 37.6291 20.247 37.6778C20.3492 37.7265 20.3882 37.8483 20.3395 37.9506L19.6284 39.368Z" fill="white"/>
<path d="M30.2129 37.1323L31.2504 39.2365L33.569 39.5726C33.8466 39.6116 33.9587 39.9574 33.7589 40.1522L32.0785 41.7888L32.473 44.0976C32.5217 44.3753 32.2295 44.5896 31.9811 44.4581L29.9061 43.367L27.8311 44.4581C27.5827 44.5896 27.2904 44.3753 27.3391 44.0976L27.7337 41.7888L26.0532 40.1522C25.8486 39.9574 25.9607 39.6116 26.2432 39.5726L28.5617 39.2365L29.5992 37.1323C29.7259 36.879 30.0863 36.879 30.2129 37.1323Z" fill="#E4B66C"/>
<path opacity="0.62" d="M29.312 39.368C29.2633 39.4703 29.1415 39.5093 29.0392 39.4606C28.9369 39.4118 28.898 39.2901 28.9467 39.1878L29.6578 37.7704C29.7065 37.6681 29.8283 37.6291 29.9306 37.6778C30.0329 37.7265 30.0719 37.8483 30.0231 37.9506L29.312 39.368Z" fill="white"/>
<path d="M39.8959 37.1323L40.9334 39.2365L43.2519 39.5726C43.5296 39.6116 43.6416 39.9574 43.4419 40.1522L41.7615 41.7888L42.156 44.0976C42.2047 44.3753 41.9125 44.5896 41.664 44.4581L39.589 43.367L37.514 44.4581C37.2656 44.5896 36.9734 44.3753 37.0221 44.0976L37.4166 41.7888L35.7362 40.1522C35.5316 39.9574 35.6436 39.6116 35.9261 39.5726L38.2447 39.2365L39.2822 37.1323C39.4088 36.879 39.7693 36.879 39.8959 37.1323Z" fill="#E4B66C"/>
<path opacity="0.62" d="M38.9951 39.368C38.9464 39.4703 38.8246 39.5093 38.7223 39.4606C38.6201 39.4118 38.5811 39.2901 38.6298 39.1878L39.3409 37.7704C39.3897 37.6681 39.5114 37.6291 39.6137 37.6778C39.716 37.7265 39.755 37.8483 39.7063 37.9506L38.9951 39.368Z" fill="white"/>
<path d="M49.5797 37.1323L50.6172 39.2365L52.9358 39.5726C53.2134 39.6116 53.3254 39.9574 53.1257 40.1522L51.4453 41.7888L51.8398 44.0976C51.8885 44.3753 51.5963 44.5896 51.3479 44.4581L49.2729 43.367L47.1979 44.4581C46.9495 44.5896 46.6572 44.3753 46.7059 44.0976L47.1005 41.7888L45.42 40.1522C45.2154 39.9574 45.3275 39.6116 45.61 39.5726L47.9285 39.2365L48.966 37.1323C49.0927 36.879 49.4531 36.879 49.5797 37.1323Z" fill="#E4B66C"/>
<path opacity="0.62" d="M48.6784 39.368C48.6297 39.4703 48.5079 39.5093 48.4056 39.4606C48.3033 39.4118 48.2643 39.2901 48.313 39.1878L49.0242 37.7704C49.0729 37.6681 49.1947 37.6291 49.297 37.6778C49.3993 37.7265 49.4382 37.8483 49.3895 37.9506L48.6784 39.368Z" fill="white"/>
<path d="M59.229 37.1323L58.1915 39.2365L55.873 39.5726C55.5954 39.6115 55.4833 39.9574 55.683 40.1522L57.3635 41.7888L56.9689 44.0976C56.9202 44.3753 57.2125 44.5896 57.4609 44.4581L59.5359 43.367L61.6109 44.4581C61.8593 44.5896 62.1516 44.3753 62.1029 44.0976L61.7083 41.7888L63.3888 40.1522C63.5933 39.9574 63.4813 39.6115 63.1988 39.5726L60.8803 39.2365L59.8428 37.1323C59.7161 36.879 59.3557 36.879 59.229 37.1323Z" fill="#E4B66C"/>
<path d="M75.6674 173.849C76.6147 169.808 74.1064 165.764 70.0652 164.817C66.0239 163.869 61.9799 166.378 61.0327 170.419C60.0855 174.46 62.5937 178.504 66.635 179.451C70.6762 180.399 74.7202 177.89 75.6674 173.849Z" fill="#E4B66C"/>
<path d="M65.7446 170.698C65.7446 171.321 65.2429 171.823 64.6195 171.823C63.996 171.823 63.4943 171.321 63.4943 170.698C63.4943 170.074 63.996 169.573 64.6195 169.573C65.2429 169.573 65.7446 170.074 65.7446 170.698Z" fill="#A87D1D"/>
<path d="M72.608 170.698C72.608 171.321 72.1063 171.823 71.4829 171.823C70.8594 171.823 70.3577 171.321 70.3577 170.698C70.3577 170.074 70.8594 169.573 71.4829 169.573C72.1015 169.568 72.608 170.074 72.608 170.698Z" fill="#A87D1D"/>
<path d="M72.17 174.029C71.6244 175.671 70.0804 176.859 68.2538 176.859C66.4077 176.859 64.8442 175.647 64.3181 173.976" stroke="#A87D1D" stroke-width="0.859224" stroke-miterlimit="10" stroke-linecap="round"/>
<path opacity="0.19" d="M68.3557 164.624C64.2057 164.624 60.8399 167.99 60.8399 172.14C60.8399 174.531 61.9553 176.66 63.6991 178.038L70.3527 164.892C69.7098 164.716 69.0425 164.624 68.3557 164.624Z" fill="white"/>
<path d="M180.35 87.3283C181.912 79.1717 176.566 71.2932 168.409 69.7312C160.253 68.1691 152.374 73.515 150.812 81.6716C149.25 89.8281 154.596 97.7066 162.753 99.2687C170.909 100.831 178.788 95.4849 180.35 87.3283Z" fill="#E4B66C"/>
<path d="M165.583 95.1563C165.227 95.1563 164.872 95.1611 164.521 95.1563C164.204 95.1514 164.044 94.9955 164.044 94.6741C164.039 93.9873 164.039 93.3005 164.044 92.6137C164.044 92.4822 164 92.4334 163.878 92.3945C161.857 91.7613 160.512 90.0906 160.313 87.9717C160.308 87.923 160.298 87.8694 160.293 87.8207C160.269 87.5236 160.449 87.2947 160.751 87.2898C161.477 87.2801 162.202 87.2801 162.928 87.2898C163.181 87.2898 163.328 87.4603 163.381 87.7282C163.425 87.9376 163.459 88.1519 163.552 88.3419C163.927 89.1164 164.579 89.4914 165.412 89.5694C165.797 89.6035 166.172 89.5694 166.547 89.4573C167.882 89.0677 168.213 87.3385 167.268 86.3887C166.771 85.887 166.167 85.5558 165.52 85.3073C164.808 85.0346 164.078 84.8008 163.376 84.5036C162.475 84.1237 161.672 83.5879 161.082 82.7842C160.405 81.8636 160.162 80.8115 160.308 79.701C160.595 77.5772 161.847 76.2572 163.863 75.6338C164 75.5899 164.044 75.5363 164.044 75.3951C164.034 74.7667 164.039 74.1335 164.039 73.5052C164.039 73.1399 164.19 72.9889 164.545 72.9889C165.237 72.9889 165.929 72.9889 166.62 72.9889C166.956 72.9889 167.112 73.1447 167.112 73.4857C167.112 74.1969 167.117 74.9031 167.112 75.6143C167.112 75.7409 167.151 75.7945 167.268 75.8481C168.949 76.5738 169.908 77.8598 170.2 79.662C170.215 79.7545 170.23 79.852 170.235 79.9445C170.249 80.2319 170.069 80.4413 169.782 80.4462C169.046 80.4559 168.306 80.4559 167.57 80.4462C167.297 80.4413 167.156 80.2903 167.098 79.9689C166.995 79.4331 166.723 79.0239 166.24 78.7657C165.446 78.3371 164.336 78.4978 163.742 79.1311C163.216 79.6912 163.074 80.7141 163.951 81.3181C164.472 81.6785 165.057 81.8929 165.646 82.0926C166.625 82.4189 167.575 82.8086 168.437 83.3882C169.489 84.0945 170.342 84.9761 170.668 86.2328C171.184 88.2007 170.795 89.959 169.285 91.3911C168.715 91.9317 168.023 92.2678 167.263 92.4627C167.137 92.4968 167.107 92.5504 167.107 92.6673C167.112 93.3102 167.112 93.9483 167.107 94.5912C167.107 95.0296 166.981 95.1611 166.547 95.1611C166.236 95.1563 165.909 95.1563 165.583 95.1563Z" fill="white"/>
<path opacity="0.19" d="M165.578 69.4624C157.273 69.4624 150.542 76.1939 150.542 84.4988C150.542 89.282 152.777 93.5391 156.255 96.2912L169.562 69.9933C168.291 69.6523 166.956 69.4624 165.578 69.4624Z" fill="#E4B66C"/>
<g filter="url(#filter4_d)">
<path d="M60.0219 136.16H17.5673C17.0705 136.16 16.6662 135.756 16.6662 135.259V110.013C16.6662 109.516 17.0705 109.112 17.5673 109.112H60.0219C60.5188 109.112 60.923 109.516 60.923 110.013V135.259C60.923 135.756 60.5188 136.16 60.0219 136.16Z" fill="white"/>
</g>
<path d="M58.1028 112.975H19.3647C18.8776 112.975 18.4782 112.58 18.4782 112.088V112.069C18.4782 111.582 18.8727 111.182 19.3647 111.182H58.1028C58.5899 111.182 58.9893 111.577 58.9893 112.069V112.088C58.9845 112.575 58.5899 112.975 58.1028 112.975Z" fill="#98D4D3"/>
<path d="M19.628 112.57C19.897 112.57 20.115 112.352 20.115 112.083C20.115 111.814 19.897 111.596 19.628 111.596C19.3589 111.596 19.1409 111.814 19.1409 112.083C19.1409 112.352 19.3589 112.57 19.628 112.57Z" fill="white"/>
<path d="M21.0987 112.57C21.3677 112.57 21.5858 112.352 21.5858 112.083C21.5858 111.814 21.3677 111.596 21.0987 111.596C20.8297 111.596 20.6116 111.814 20.6116 112.083C20.6116 112.352 20.8297 112.57 21.0987 112.57Z" fill="white"/>
<path d="M22.5697 112.57C22.8388 112.57 23.0568 112.352 23.0568 112.083C23.0568 111.814 22.8388 111.596 22.5697 111.596C22.3007 111.596 22.0827 111.814 22.0827 112.083C22.0827 112.352 22.3007 112.57 22.5697 112.57Z" fill="#809BCE"/>
<path d="M57.645 134.348H19.8177C19.0773 134.348 18.4782 133.749 18.4782 133.009V115.171C18.4782 114.431 19.0773 113.832 19.8177 113.832H57.645C58.3854 113.832 58.9845 114.431 58.9845 115.171V133.009C58.9845 133.749 58.3854 134.348 57.645 134.348Z" fill="#F4F9FF"/>
<path d="M56.7246 118.055C56.7246 118.976 55.9793 119.721 55.0587 119.721H23.2519C22.3313 119.721 21.586 118.976 21.586 118.055C21.586 117.134 22.3313 116.389 23.2519 116.389H55.0587C55.9793 116.389 56.7246 117.134 56.7246 118.055Z" fill="#809BCE"/>
<path d="M26.8855 116.389H23.2519C22.3313 116.389 21.586 117.134 21.586 118.055C21.586 118.976 22.3313 119.721 23.2519 119.721H26.8855V116.389Z" fill="white"/>
<path opacity="0.5" d="M53.2613 122.887C53.2613 123.491 52.7742 123.978 52.1702 123.978H25.4778C24.8738 123.978 24.3867 123.491 24.3867 122.887C24.3867 122.283 24.8738 121.796 25.4778 121.796H52.1653C52.7693 121.796 53.2613 122.283 53.2613 122.887Z" fill="#75BFEF"/>
<path opacity="0.5" d="M53.2613 126.715C53.2613 127.319 52.7742 127.806 52.1702 127.806H25.4778C24.8738 127.806 24.3867 127.319 24.3867 126.715C24.3867 126.111 24.8738 125.624 25.4778 125.624H52.1653C52.7693 125.624 53.2613 126.111 53.2613 126.715Z" fill="#75BFEF"/>
<path d="M25.4735 117.909C25.4735 118.342 25.1228 118.693 24.6893 118.693C24.2557 118.693 23.905 118.342 23.905 117.909C23.905 117.475 24.2557 117.125 24.6893 117.125C25.1228 117.125 25.4735 117.475 25.4735 117.909Z" stroke="#7396C0" stroke-width="0.304382" stroke-miterlimit="10"/>
<path d="M24.0315 118.342L22.882 119.102" stroke="#7396C0" stroke-width="0.304382" stroke-miterlimit="10"/>
<defs>
<filter id="filter0_d" x="33.0436" y="0.0715299" width="128.686" height="221.569" filterUnits="userSpaceOnUse" color-interpolation-filters="sRGB">
<feFlood flood-opacity="0" result="BackgroundImageFix"/>
<feColorMatrix in="SourceAlpha" type="matrix" values="0 0 0 0 0 0 0 0 0 0 0 0 0 0 0 0 0 0 127 0" result="hardAlpha"/>
<feOffset dy="4.68992"/>
<feGaussianBlur stdDeviation="8.79359"/>
<feComposite in2="hardAlpha" operator="out"/>
<feColorMatrix type="matrix" values="0 0 0 0 0 0 0 0 0 0 0 0 0 0 0 0 0 0 0.1 0"/>
<feBlend mode="normal" in2="BackgroundImageFix" result="effect1_dropShadow"/>
<feBlend mode="normal" in="SourceGraphic" in2="effect1_dropShadow" result="shape"/>
</filter>
<filter id="filter1_d" x="146.03" y="11.4635" width="46.8491" height="46.8491" filterUnits="userSpaceOnUse" color-interpolation-filters="sRGB">
<feFlood flood-opacity="0" result="BackgroundImageFix"/>
<feColorMatrix in="SourceAlpha" type="matrix" values="0 0 0 0 0 0 0 0 0 0 0 0 0 0 0 0 0 0 127 0" result="hardAlpha"/>
<feOffset dy="4.68992"/>
<feGaussianBlur stdDeviation="5.86239"/>
<feComposite in2="hardAlpha" operator="out"/>
<feColorMatrix type="matrix" values="0 0 0 0 0 0 0 0 0 0 0 0 0 0 0 0 0 0 0.1 0"/>
<feBlend mode="normal" in2="BackgroundImageFix" result="effect1_dropShadow"/>
<feBlend mode="normal" in="SourceGraphic" in2="effect1_dropShadow" result="shape"/>
</filter>
<filter id="filter2_d" x="109.841" y="155.3" width="35.2858" height="35.2858" filterUnits="userSpaceOnUse" color-interpolation-filters="sRGB">
<feFlood flood-opacity="0" result="BackgroundImageFix"/>
<feColorMatrix in="SourceAlpha" type="matrix" values="0 0 0 0 0 0 0 0 0 0 0 0 0 0 0 0 0 0 127 0" result="hardAlpha"/>
<feOffset dy="4.68992"/>
<feGaussianBlur stdDeviation="5.86239"/>
<feComposite in2="hardAlpha" operator="out"/>
<feColorMatrix type="matrix" values="0 0 0 0 0 0 0 0 0 0 0 0 0 0 0 0 0 0 0.1 0"/>
<feBlend mode="normal" in2="BackgroundImageFix" result="effect1_dropShadow"/>
<feBlend mode="normal" in="SourceGraphic" in2="effect1_dropShadow" result="shape"/>
</filter>
<filter id="filter3_d" x="0.25147" y="27.0385" width="78.778" height="43.4056" filterUnits="userSpaceOnUse" color-interpolation-filters="sRGB">
<feFlood flood-opacity="0" result="BackgroundImageFix"/>
<feColorMatrix in="SourceAlpha" type="matrix" values="0 0 0 0 0 0 0 0 0 0 0 0 0 0 0 0 0 0 127 0" result="hardAlpha"/>
<feOffset dy="4.68992"/>
<feGaussianBlur stdDeviation="5.86239"/>
<feComposite in2="hardAlpha" operator="out"/>
<feColorMatrix type="matrix" values="0 0 0 0 0 0 0 0 0 0 0 0 0 0 0 0 0 0 0.11 0"/>
<feBlend mode="normal" in2="BackgroundImageFix" result="effect1_dropShadow"/>
<feBlend mode="normal" in="SourceGraphic" in2="effect1_dropShadow" result="shape"/>
</filter>
<filter id="filter4_d" x="4.94139" y="102.077" width="67.7064" height="50.4976" filterUnits="userSpaceOnUse" color-interpolation-filters="sRGB">
<feFlood flood-opacity="0" result="BackgroundImageFix"/>
<feColorMatrix in="SourceAlpha" type="matrix" values="0 0 0 0 0 0 0 0 0 0 0 0 0 0 0 0 0 0 127 0" result="hardAlpha"/>
<feOffset dy="4.68992"/>
<feGaussianBlur stdDeviation="5.86239"/>
<feComposite in2="hardAlpha" operator="out"/>
<feColorMatrix type="matrix" values="0 0 0 0 0 0 0 0 0 0 0 0 0 0 0 0 0 0 0.1 0"/>
<feBlend mode="normal" in2="BackgroundImageFix" result="effect1_dropShadow"/>
<feBlend mode="normal" in="SourceGraphic" in2="effect1_dropShadow" result="shape"/>
</filter>
</defs>
</svg>
