<svg width="223" height="166" viewBox="0 0 223 166" fill="none" xmlns="http://www.w3.org/2000/svg">
<path d="M7.00018 80C-18.1233 132.241 36.9974 145.752 61.7748 138.566C61.8949 138.531 62.0117 138.612 62.0259 138.736C64.3617 159.219 89.8219 187.511 173.5 138.5C278.5 77 186.5 -7.5 146 23.5C124.46 39.9872 115.875 45.971 107.561 46.9926C107.521 46.9975 107.48 46.9895 107.444 46.9714C49.988 17.5078 31.2784 29.5163 7.00018 80Z" fill="#F5FAFA"/>
<path fill-rule="evenodd" clip-rule="evenodd" d="M190.224 37.205C190.497 36.9317 190.94 36.9317 191.214 37.205L198.231 44.2222C198.672 44.6632 198.359 45.4172 197.736 45.4172H194.5V57.4172H193.5V45.1172C193.5 44.7306 193.813 44.4172 194.2 44.4172H197.011L190.719 38.1243L184.426 44.4172H187.706C188.093 44.4172 188.406 44.7306 188.406 45.1172V57.4172H187.406V45.4172H183.701C183.078 45.4172 182.765 44.6632 183.206 44.2222L190.224 37.205Z" fill="#98D4D3"/>
<path fill-rule="evenodd" clip-rule="evenodd" d="M140.224 15.205C140.497 14.9317 140.94 14.9317 141.214 15.205L148.231 22.2222C148.672 22.6632 148.359 23.4172 147.736 23.4172H144.5V45.4172H143.5V23.1172C143.5 22.7306 143.813 22.4172 144.2 22.4172H147.011L140.719 16.1243L134.426 22.4172H137.706C138.093 22.4172 138.406 22.7306 138.406 23.1172V45.4172H137.406V23.4172H133.701C133.078 23.4172 132.765 22.6632 133.206 22.2222L140.224 15.205Z" fill="#98D4D3"/>
<path fill-rule="evenodd" clip-rule="evenodd" d="M190.224 0.205025C190.497 -0.0683421 190.94 -0.0683414 191.214 0.205025L198.231 7.22218C198.672 7.66316 198.359 8.41716 197.736 8.41716H194.5V30.4172H193.5V8.11716C193.5 7.73056 193.813 7.41716 194.2 7.41716H197.011L190.719 1.12426L184.426 7.41716H187.706C188.093 7.41716 188.406 7.73056 188.406 8.11716V30.4172H187.406V8.41716H183.701C183.078 8.41716 182.765 7.66316 183.206 7.22218L190.224 0.205025Z" fill="#98D4D3"/>
<path d="M57.2772 123.842L91.159 132.171L126.229 134.171L170.165 123.842L113.721 152.392L57.2772 123.842Z" fill="#6A87BE"/>
<path d="M84.9101 69.3596C87.769 67.3952 90.9296 65.9129 94.2809 65.0003C95.5389 64.6575 102.337 66.6322 106.536 66.5368C112.303 66.4053 118.173 63.781 122.927 64.9642C127.65 66.1398 131.514 67.6788 133.744 69.2642C140.423 74.0154 144.344 82.8731 146.734 91.6459C142.21 96.2913 136.515 98.3562 136.515 98.3562L130.612 136.994C116.699 143.973 102.69 143.076 88.6017 136.02L82.4894 97.7788C82.4894 97.7788 73.3481 93.5226 72.6778 91.9733C72.0075 90.4265 76.8437 74.9048 84.9101 69.3596Z" fill="#98D4D3"/>
<path d="M71.9303 152.392C78.2926 151.134 92.8966 152.364 92.8966 152.364L93.4509 153.993L94.2371 162.029C94.2371 162.029 80.2493 164.112 73.3868 163.895C72.6856 163.872 72.0488 163.748 71.4688 163.547C71.2651 163.354 71.0641 163.153 70.8759 162.933C68.0402 159.665 68.9966 155.019 71.9303 152.392Z" fill="black"/>
<path d="M97.109 152.042L94.629 152.07C93.2962 152.086 92.0279 152.697 91.105 153.761C90.1821 154.828 89.6871 156.259 89.7283 157.736C89.7619 158.915 90.2156 160.028 90.9915 160.833C91.7675 161.637 92.8012 162.065 93.8608 162.021L97.6555 161.869L97.109 152.042Z" fill="#FED6BC"/>
<path d="M182.147 128.057C179.278 121.452 172.258 120.38 166.283 123.468C166.18 123.605 128.338 142.998 94.9692 151.498C95.9257 154.56 96.4155 157.819 96.5237 161.023C96.5418 161.737 96.5315 162.441 96.4902 163.135C122.079 161.82 149.853 153.287 173.717 145.785C181.116 143.398 185.328 135.378 182.147 128.057Z" fill="#809BCE"/>
<path d="M146.378 153.163C140.05 151.709 125.422 152.49 125.422 152.49L124.827 154.101L123.842 162.111C123.842 162.111 137.773 164.622 144.638 164.617C145.339 164.617 145.979 164.511 146.564 164.328C146.773 164.14 146.979 163.947 147.172 163.735C150.085 160.551 149.242 155.878 146.378 153.163Z" fill="black"/>
<path d="M121.218 152.039L123.695 152.145C125.025 152.202 126.281 152.851 127.175 153.944C128.07 155.037 128.531 156.486 128.451 157.961C128.39 159.136 127.907 160.237 127.111 161.016C126.314 161.797 125.273 162.191 124.213 162.116L120.424 161.846L121.218 152.039Z" fill="#FED6BC"/>
<path d="M121.401 161.521C121.3 157.829 122.02 154.393 123.553 151.209C123.597 151.062 123.649 150.923 123.695 150.779C121.79 150.188 119.328 149.389 116.093 148.291C92.3965 140.181 74.32 131.993 57.0659 122.568C50.3633 118.908 42.7429 121.362 40.5981 129.291C38.6827 136.37 42.8898 142.416 49.2728 144.54C68.3701 150.895 102.26 161.036 121.437 162.323C121.424 162.057 121.409 161.789 121.401 161.521Z" fill="#809BCE"/>
<path d="M94.2809 65.0003C94.2809 65.0003 96.8305 76.0442 109.202 75.8148C121.803 75.5853 122.927 64.9642 122.927 64.9642L114.696 63.2035L114.007 54.0312L101.625 54.9489L101.396 63.6624L94.2809 65.0003Z" fill="#FED6BC"/>
<path d="M52.044 117.959C52.044 117.959 49.6027 118.232 48.2029 117.629C46.8031 117.026 41.294 116.513 40.1288 114.868C40.1288 114.868 38.7831 116.992 40.7346 117.784C42.6861 118.578 45.6688 119.97 43.5446 121.836C41.4204 123.702 40.4743 122.143 40.6032 119.962C40.7321 117.781 40.1546 117.928 39.0976 117.639C39.0976 117.639 36.713 121.22 39.688 123.354C39.688 123.354 31.5314 121.916 32.0212 125.172L39.6725 125.203C39.6725 125.203 31.7969 126.904 33.6118 129.897L40.4639 127.575C40.4639 127.575 36.2516 129.049 37.1487 131.111C37.1487 131.111 50.2137 124.37 52.6189 123.839C55.0267 123.308 52.044 117.959 52.044 117.959Z" fill="#FED6BC"/>
<path d="M73.8765 91.6123C73.8765 91.6123 64.4 112.561 52.044 117.959L52.6215 123.842C52.6215 123.842 70.9557 123.171 84.0465 97.5725C84.0439 97.5725 80.5379 89.5087 73.8765 91.6123Z" fill="#FED6BC"/>
<path d="M167.523 117.959C167.523 117.959 169.964 118.232 171.364 117.629C172.763 117.026 178.273 116.513 179.438 114.868C179.438 114.868 180.783 116.992 178.832 117.784C176.88 118.578 173.898 119.97 176.022 121.836C178.146 123.702 179.092 122.143 178.963 119.962C178.835 117.781 179.412 117.928 180.469 117.639C180.469 117.639 182.854 121.22 179.879 123.354C179.879 123.354 188.035 121.916 187.545 125.172L179.894 125.203C179.894 125.203 187.77 126.904 185.955 129.897L179.103 127.575C179.103 127.575 183.315 129.049 182.418 131.111C182.418 131.111 169.353 124.37 166.948 123.839C164.537 123.308 167.523 117.959 167.523 117.959Z" fill="#FED6BC"/>
<path d="M145.69 91.6123C145.69 91.6123 155.167 112.561 167.523 117.959L166.945 123.842C166.945 123.842 148.611 123.171 135.52 97.5725C135.52 97.5725 139.026 89.5087 145.69 91.6123Z" fill="#FED6BC"/>
<path d="M99.2486 34.7457C99.2486 34.7457 93.8092 57.0732 107.637 60.5869C117.392 63.0643 120.893 44.3691 118.532 39.734C114.879 32.5647 113.226 33.6862 113.226 33.6862L99.2486 34.7457Z" fill="#FFDDC7"/>
<path d="M118.142 46.2974C118.142 46.2974 118.807 41.9355 120.934 42.6754C123.061 43.4178 121.272 48.9785 118.379 49.4373L118.142 46.2974Z" fill="url(#paint0_linear)"/>
<path d="M99.2382 49.2156L98.8902 46.251C98.8902 46.251 98.0214 42.1753 96.137 42.7476C94.2551 43.3199 95.2502 49.9323 99.2382 49.2156Z" fill="url(#paint1_linear)"/>
<path d="M97.909 43.7195C98.1153 44.2505 98.9041 44.1268 98.9325 43.5571C99.1026 40.1542 99.8193 35.0009 102.696 37.2721C106.488 40.265 110.814 39.2828 113.279 37.7464C114.609 36.9163 116.37 37.3984 116.996 38.8369C117.481 39.9454 117.813 41.8324 117.991 43.6421C118.058 44.3201 118.978 44.4748 119.262 43.8535L119.711 42.8688C119.721 42.8456 119.726 42.8223 119.726 42.7991V41.4767C119.726 41.3916 119.788 41.322 119.87 41.3091C120.329 41.2343 121.68 40.8683 120.814 39.1539C120.773 39.074 120.801 38.9735 120.876 38.9271C121.214 38.7183 121.964 38.0145 121.157 36.1687C121.126 36.0965 121.144 36.0114 121.208 35.965C121.832 35.5345 124.81 33.2299 122.992 29.6079C121.239 26.1096 118.772 27.3805 118.146 27.7801C118.063 27.8317 117.963 27.8085 117.914 27.7234C117.604 27.1794 116.452 25.4832 114.519 26.3932C113.856 26.7051 112.809 26.5633 112.209 26.1431C111.433 25.5992 110.337 25.2151 109.187 26.0348C108.275 26.6871 107.022 26.7051 106.151 25.9987C104.942 25.014 103.003 24.336 100.304 26.0555C95.9549 28.8242 96.7309 32.5209 96.999 33.418C97.0299 33.5186 96.9603 33.6191 96.8572 33.6294C96.3906 33.6784 95.2976 33.9646 95.2486 35.5345C95.1893 37.4499 96.9114 40.461 97.0557 40.711C97.0635 40.7239 97.0686 40.7342 97.0712 40.7471L97.9039 43.7014C97.9064 43.7092 97.9064 43.7143 97.909 43.7195Z" fill="black"/>
<path d="M169.656 42.575C168.484 42.575 167.55 42.233 166.881 41.558C166.461 41.1352 166.172 40.6095 166.021 39.9951C165.141 39.8724 164.484 39.5409 164.068 39.0092C163.652 39.5409 162.996 39.8724 162.115 39.9951C161.964 40.6095 161.675 41.1352 161.256 41.5583C160.586 42.233 159.652 42.5753 158.481 42.5753C158.366 42.5753 158.247 42.572 158.128 42.5654C156.886 42.4969 155.646 42.2454 154.636 41.8574C153.46 41.4054 152.648 40.7866 152.287 40.0676C152.228 39.9489 152.18 39.8262 152.144 39.7034C152.066 39.4303 151.895 39.189 151.664 39.0237L151.658 39.0196C150.721 38.3479 150.046 37.2463 149.654 35.7455C149.013 33.2961 149.083 31.0359 149.84 29.6992C150.021 29.3781 150.095 29.0176 150.052 28.6566C149.976 28.0218 149.964 27.3895 150.017 26.7778C150.095 25.8807 150.311 25.0375 150.658 24.2718C151.004 23.5077 151.484 22.8166 152.083 22.218C152.417 21.8848 152.597 21.412 152.579 20.9209C152.568 20.6399 152.581 20.3565 152.616 20.0788C152.762 18.9461 153.376 17.3185 155.466 15.9796C155.69 15.3066 156.323 14.0807 158.078 13.1217C159.406 12.3959 160.672 12.2241 161.641 12.6381C162.027 12.8031 162.357 13.0609 162.597 13.3856C162.897 13.4478 163.172 13.5726 163.414 13.7568C163.568 13.8739 163.707 14.0141 163.828 14.1736C163.886 14.2497 163.974 14.2932 164.069 14.2932C164.164 14.2932 164.251 14.2495 164.309 14.1736C164.43 14.0141 164.57 13.8736 164.723 13.7568C164.965 13.5726 165.24 13.448 165.54 13.3856C165.781 13.0609 166.11 12.8031 166.496 12.6381C167.466 12.2241 168.731 12.3956 170.059 13.1217C171.814 14.0807 172.447 15.3066 172.671 15.9796C174.762 17.3185 175.375 18.9461 175.521 20.0791C175.576 20.5083 175.576 20.9451 175.521 21.3776C175.496 21.5755 175.571 21.7738 175.724 21.9085C176.423 22.5257 176.982 23.2534 177.385 24.0714C177.788 24.8906 178.036 25.8015 178.12 26.7786C178.173 27.3856 178.162 28.013 178.088 28.6429C178.044 29.0116 178.119 29.3816 178.305 29.7132C179.055 31.0513 179.121 33.3065 178.484 35.7463C178.091 37.2471 177.417 38.349 176.478 39.021L176.472 39.0251C176.242 39.1898 176.071 39.4309 175.993 39.7039C175.957 39.8268 175.909 39.9494 175.85 40.0682C175.49 40.7871 174.677 41.406 173.501 41.858C172.491 42.2459 171.251 42.4972 170.009 42.5659C169.89 42.5717 169.771 42.575 169.656 42.575ZM164.068 38.6718C164.11 38.6718 164.149 38.6927 164.172 38.7276C164.194 38.762 164.214 38.7909 164.235 38.8192C164.62 39.3366 165.26 39.6533 166.137 39.7605C166.189 39.7669 166.232 39.8053 166.243 39.8565C166.377 40.4613 166.651 40.9752 167.056 41.3837C167.678 42.01 168.552 42.3276 169.656 42.3276C169.766 42.3276 169.88 42.3243 169.995 42.3179C172.273 42.192 174.898 41.4131 175.628 39.9566C175.681 39.8513 175.723 39.7429 175.754 39.6346C175.848 39.3083 176.052 39.0196 176.329 38.8222L176.332 38.82C177.224 38.1813 177.866 37.1262 178.244 35.6825C178.865 33.3032 178.808 31.1164 178.089 29.8328C177.877 29.4553 177.792 29.0333 177.841 28.6127C177.914 27.9993 177.924 27.3892 177.873 26.7987C177.71 24.9118 176.91 23.2845 175.56 22.0927C175.346 21.9038 175.239 21.6245 175.275 21.3449C175.328 20.9336 175.328 20.5179 175.275 20.1096C175.135 19.0225 174.541 17.4557 172.501 16.1638C172.476 16.1481 172.458 16.1245 172.449 16.0967C172.249 15.4691 171.657 14.2764 169.94 13.3378C168.68 12.6494 167.491 12.4814 166.593 12.8649C166.233 13.0186 165.929 13.2619 165.712 13.5685C165.694 13.5949 165.665 13.613 165.634 13.6188C165.353 13.6702 165.097 13.7826 164.873 13.9531C164.737 14.0565 164.613 14.181 164.506 14.3226C164.401 14.4609 164.242 14.5401 164.068 14.5401C163.895 14.5401 163.736 14.4609 163.631 14.3226C163.523 14.1807 163.4 14.0565 163.264 13.9531C163.04 13.7826 162.784 13.6702 162.503 13.6188C162.471 13.613 162.443 13.5949 162.424 13.5685C162.208 13.2619 161.903 13.0186 161.543 12.8649C160.645 12.4814 159.456 12.6494 158.196 13.3381C156.479 14.2764 155.887 15.4693 155.687 16.097C155.679 16.1248 155.66 16.1484 155.636 16.1641C153.596 17.456 153.001 19.0231 152.861 20.1099C152.827 20.3741 152.815 20.6435 152.825 20.911C152.847 21.4708 152.64 22.011 152.258 22.3926C151.086 23.563 150.415 25.0454 150.263 26.7987C150.212 27.3936 150.223 28.0089 150.297 28.627C150.346 29.0404 150.262 29.4534 150.055 29.8207C149.329 31.1027 149.269 33.2942 149.893 35.6825C150.27 37.1259 150.913 38.1811 151.803 38.8186L151.807 38.8219C152.084 39.0196 152.288 39.308 152.382 39.6346C152.413 39.7429 152.456 39.8513 152.509 39.9566C153.238 41.4131 155.864 42.1923 158.142 42.3179C158.256 42.3243 158.37 42.3276 158.481 42.3276C159.584 42.3276 160.459 42.01 161.08 41.3837C161.485 40.9752 161.759 40.4613 161.893 39.8565C161.904 39.8053 161.947 39.7669 161.999 39.7605C162.876 39.6536 163.516 39.3369 163.902 38.8194C163.923 38.7911 163.942 38.7623 163.965 38.7279C163.988 38.693 164.027 38.6718 164.068 38.6718Z" fill="#83C7C6"/>
<path d="M163.469 16.6559V37.3511C163.469 37.3511 164.001 39.0644 161.211 39.0369C161.211 39.0369 161.381 41.7312 158.184 41.5545C154.986 41.378 152.353 39.9863 153.265 38.6155C153.265 38.6155 151.431 38.542 150.632 35.4889C149.835 32.4361 150.326 30.1185 151.265 29.6192C151.265 29.6192 149.771 24.7821 153.829 22.0952C153.829 22.0952 152.431 18.8829 156.344 16.629C156.344 16.629 156.508 15.1323 158.563 14.0092C160.494 12.9537 161.733 13.4907 161.972 14.377C161.972 14.3768 163.469 13.9624 163.469 16.6559Z" fill="#98D4D3"/>
<path d="M164.667 16.6559V37.351C164.667 37.351 164.135 39.0644 166.925 39.0369C166.925 39.0369 166.755 41.7312 169.952 41.5545C173.15 41.378 175.783 39.9863 174.871 38.6155C174.871 38.6155 176.705 38.542 177.504 35.4889C178.302 32.4358 177.811 30.1182 176.872 29.6189C176.872 29.6189 178.366 24.7818 174.307 22.0949C174.307 22.0949 175.705 18.8826 171.792 16.6287C171.792 16.6287 171.629 15.132 169.574 14.0089C167.642 12.9537 166.403 13.4907 166.164 14.3768C166.164 14.3768 164.667 13.9624 164.667 16.6559Z" fill="#98D4D3"/>
<path d="M171.129 32.3261C170.586 32.3261 169.879 32.0243 169.009 31.0584C168.053 29.9978 167.196 29.5263 166.461 29.6568C165.601 29.8097 165.209 30.7629 165.205 30.7725C165.194 30.8006 165.162 30.8143 165.134 30.803C165.106 30.7918 165.092 30.7599 165.103 30.7315C165.12 30.69 165.521 29.7129 166.441 29.5488C167.216 29.4108 168.107 29.8938 169.091 30.985C170.388 32.4243 171.29 32.3424 171.818 32.0201C172.603 31.5415 172.944 30.3233 172.801 29.8663C172.639 29.8182 171.864 29.5502 171.546 28.7284C171.2 27.8346 171.522 26.631 172.502 25.1513C172.519 25.1265 172.552 25.1191 172.577 25.1348C172.581 25.1378 173.052 25.4314 173.524 25.8974C173.963 26.3305 174.494 27.006 174.529 27.7639C174.561 28.4444 174.196 29.0773 173.446 29.6456C173.434 29.6546 173.419 29.6582 173.404 29.656C173.389 29.6538 173.377 29.6456 173.368 29.6335C173.359 29.6203 172.449 28.3097 172.743 26.9353C172.75 26.9056 172.779 26.8866 172.809 26.893C172.839 26.8993 172.858 26.9284 172.851 26.9584C172.598 28.1409 173.27 29.2785 173.426 29.5224C174.115 28.9868 174.449 28.3971 174.419 27.7692C174.36 26.5042 172.846 25.4441 172.564 25.2574C171.628 26.6846 171.32 27.839 171.649 28.6885C171.978 29.5372 172.849 29.7654 172.858 29.7676C172.875 29.772 172.889 29.7847 172.896 29.8015C172.989 30.0475 172.94 30.4959 172.77 30.9435C172.655 31.247 172.387 31.8024 171.876 32.1139C171.676 32.2354 171.427 32.3261 171.129 32.3261Z" fill="#83C7C6"/>
<path d="M170.95 40.2051C170.944 40.2051 170.937 40.204 170.93 40.2012C170.905 40.1913 170.891 40.165 170.896 40.1386C170.897 40.1325 171 39.4243 169.017 37.9853C168.406 37.5416 168.091 37.042 168.082 36.5007C168.068 35.741 168.655 35.1252 168.906 34.897C168.668 34.8849 168.172 34.8374 167.667 34.6523C166.747 34.3161 166.249 33.6832 166.228 32.8221C166.211 32.1587 166.384 31.6605 166.741 31.3411C167.27 30.8682 168.003 30.9625 168.034 30.9669C168.064 30.971 168.085 30.9988 168.081 31.0287C168.077 31.0587 168.049 31.0799 168.019 31.0758C168.012 31.0749 167.304 30.9845 166.813 31.4238C166.482 31.7207 166.322 32.1903 166.337 32.8196C166.358 33.6425 166.817 34.224 167.701 34.5484C168.37 34.7934 169.042 34.7917 169.049 34.7914H169.049C169.073 34.7914 169.093 34.8063 169.101 34.8283C169.109 34.8505 169.102 34.8753 169.083 34.8896C169.074 34.8967 168.175 35.6096 168.191 36.4996C168.2 37.0044 168.5 37.4745 169.081 37.8965C170.561 38.9701 170.91 39.6541 170.987 39.9659C171.24 39.4732 171.95 37.9075 171.503 36.5735C171.267 35.8672 170.741 35.3251 169.938 34.96C170.23 35.5071 171.229 37.4805 171.055 38.5052C171.05 38.5352 171.021 38.5555 170.992 38.5503C170.962 38.5451 170.941 38.5167 170.946 38.4868C171.139 37.353 169.78 34.8976 169.766 34.8731C169.755 34.8527 169.757 34.8272 169.773 34.8099C169.788 34.7923 169.813 34.7865 169.835 34.7956C170.75 35.1725 171.347 35.7592 171.608 36.5392C171.896 37.4011 171.714 38.3455 171.511 38.9858C171.291 39.677 171 40.1735 170.997 40.1784C170.987 40.1955 170.969 40.2051 170.95 40.2051Z" fill="#83C7C6"/>
<path d="M175.515 37.6122C175.508 37.6122 175.5 37.6106 175.493 37.6075C175.469 37.5968 175.456 37.571 175.462 37.5454C175.463 37.5391 175.587 36.8776 174.444 36.0817C174.022 35.7881 173.805 35.4777 173.798 35.1593C173.793 34.8981 173.931 34.6974 174.033 34.5855C173.422 34.5674 172.922 34.2446 172.581 33.6453C172.307 33.1636 172.233 32.6808 172.23 32.6605C172.225 32.6305 172.246 32.6024 172.276 32.598C172.305 32.5936 172.334 32.6143 172.338 32.6442C172.339 32.6489 172.413 33.1295 172.678 33.5936C173.028 34.2072 173.53 34.5033 174.17 34.4744C174.194 34.4739 174.216 34.4879 174.224 34.5107C174.232 34.5333 174.225 34.5586 174.206 34.5731C174.203 34.5753 173.901 34.8104 173.908 35.1582C173.915 35.4389 174.116 35.7193 174.507 35.9915C175.351 36.579 175.537 37.1 175.571 37.3717C175.8 37 176.319 36.0281 176.02 35.277C175.853 34.8588 175.455 34.5663 174.836 34.4054C175.119 34.6581 175.609 35.219 175.57 36.0393C175.569 36.0696 175.543 36.0924 175.513 36.0916C175.483 36.0902 175.459 36.0644 175.461 36.0341C175.512 34.9558 174.594 34.3515 174.585 34.3458C174.563 34.3315 174.554 34.3034 174.564 34.279C174.574 34.2545 174.599 34.2405 174.625 34.2454C175.417 34.3975 175.921 34.731 176.122 35.2365C176.52 36.2365 175.599 37.5347 175.56 37.5897C175.549 37.604 175.533 37.6122 175.515 37.6122Z" fill="#83C7C6"/>
<path d="M167.865 28.0301C166.885 28.0301 165.84 27.2724 165.789 27.2347C165.768 27.2201 165.761 27.1937 165.77 27.1706C165.8 27.0912 166.531 25.2239 167.762 25.0331C168.874 24.861 169.205 25.8246 169.266 26.05C169.855 26.0151 170.412 25.6552 170.763 25.0801C171.023 24.655 171.104 24.1967 170.969 23.9124C170.793 23.541 170.561 23.3136 170.259 23.2169C169.892 23.0992 169.42 23.1682 168.818 23.428C168.1 23.7373 167.414 23.726 166.934 23.3967C166.587 23.1586 166.183 22.6414 166.227 21.5288C166.267 20.5116 166.808 19.9581 167.255 19.6733C167.738 19.3659 168.204 19.2991 168.224 19.2966C168.254 19.2925 168.282 19.3137 168.286 19.3437C168.29 19.3736 168.269 19.4014 168.239 19.4055C168.234 19.4061 167.774 19.4726 167.311 19.7681C166.695 20.1621 166.367 20.756 166.336 21.5329C166.303 22.3739 166.531 22.987 166.996 23.3057C167.444 23.6133 168.092 23.621 168.774 23.3266C169.929 22.8284 170.658 22.9994 171.068 23.8649C171.221 24.1868 171.14 24.6743 170.857 25.137C170.477 25.7583 169.867 26.1413 169.225 26.1617C169.224 26.1617 169.224 26.1617 169.223 26.1617C169.197 26.1617 169.175 26.1432 169.169 26.1174C169.16 26.0701 168.924 24.9638 167.778 25.1414C166.705 25.3077 166.001 26.8976 165.888 27.1701C166.113 27.3257 167.379 28.1571 168.32 27.8519C168.728 27.7197 169.026 27.3878 169.205 26.8655C168.994 26.7987 168.126 26.5749 167.055 26.998C167.027 27.009 166.995 26.9952 166.984 26.9669C166.972 26.9386 166.986 26.9067 167.015 26.8954C168.285 26.3934 169.254 26.7638 169.295 26.7797C169.322 26.7904 169.336 26.8201 169.327 26.8476C169.138 27.4354 168.811 27.8085 168.354 27.9564C168.196 28.0081 168.032 28.0301 167.865 28.0301Z" fill="#83C7C6"/>
<path d="M170.078 22.0957C170.056 22.0957 170.034 22.0817 170.026 22.0591C170.018 22.0347 169.817 21.4532 170.122 21.0103C170.329 20.7111 170.713 20.5531 171.264 20.5404C171.783 20.5286 172.107 20.2825 172.152 19.8657C172.226 19.1966 171.525 18.0732 170.02 17.6924C169.933 17.7515 169.591 17.9745 169.165 18.1271C168.512 18.361 167.981 18.3105 167.63 17.9808C166.804 17.2072 166.497 15.0971 166.484 15.0077C166.482 14.9929 166.486 14.9777 166.496 14.9659C166.505 14.9541 166.518 14.9467 166.533 14.945C166.642 14.9343 169.192 14.6937 170.148 15.78C170.478 16.1547 170.576 16.6441 170.439 17.2347C170.435 17.255 170.419 17.2709 170.399 17.2756C170.379 17.2806 170.357 17.2734 170.344 17.2575C170.327 17.2377 168.666 15.2837 167.739 15.6533C167.711 15.6645 167.679 15.6508 167.668 15.6225C167.656 15.5941 167.67 15.5622 167.698 15.551C168.592 15.1947 170.013 16.7159 170.355 17.1019C170.448 16.596 170.351 16.1759 170.065 15.852C169.224 14.8953 166.991 15.0193 166.602 15.049C166.658 15.397 166.982 17.2217 167.705 17.8997C168.484 18.6299 169.963 17.5978 169.978 17.5871C169.991 17.5778 170.007 17.5747 170.023 17.5786C170.709 17.7477 171.318 18.0996 171.737 18.5694C172.11 18.9873 172.306 19.4762 172.262 19.8767C172.209 20.3546 171.846 20.6361 171.266 20.6493C170.752 20.6611 170.398 20.8032 170.213 21.0716C169.939 21.4686 170.128 22.0157 170.13 22.0212C170.14 22.0498 170.125 22.0811 170.096 22.0913C170.091 22.0946 170.084 22.0957 170.078 22.0957Z" fill="#83C7C6"/>
<path d="M173.463 23.9812C173.456 23.9812 173.449 23.9798 173.442 23.9768C173.414 23.965 173.401 23.9328 173.413 23.9047C173.67 23.2955 173.686 22.8303 173.462 22.5221C173.101 22.0256 172.226 22.0946 172.217 22.0954C172.186 22.0979 172.16 22.0756 172.158 22.0454C172.155 22.0151 172.178 21.9885 172.208 21.986C172.246 21.9827 173.154 21.9118 173.551 22.4578C173.799 22.7992 173.787 23.3007 173.514 23.9476C173.505 23.9685 173.485 23.9812 173.463 23.9812Z" fill="#83C7C6"/>
<path d="M156.698 32.3261C156.4 32.3261 156.151 32.2354 155.952 32.1136C155.441 31.8021 155.172 31.2468 155.057 30.9432C154.888 30.4957 154.838 30.0475 154.932 29.8012C154.938 29.7844 154.952 29.7718 154.97 29.7674C154.979 29.7652 155.851 29.535 156.179 28.6869C156.507 27.8374 156.199 26.6835 155.264 25.2571C154.982 25.4441 153.467 26.5048 153.408 27.7692C153.379 28.3971 153.713 28.9866 154.402 29.5221C154.558 29.278 155.23 28.1395 154.977 26.9581C154.97 26.9284 154.989 26.8993 155.019 26.8927C155.049 26.8864 155.078 26.9053 155.084 26.935C155.379 28.3094 154.469 29.62 154.46 29.6332C154.452 29.6453 154.438 29.6535 154.424 29.6557C154.409 29.6579 154.394 29.6544 154.382 29.6453C153.631 29.077 153.267 28.4439 153.299 27.7637C153.335 27.0057 153.865 26.3302 154.303 25.8972C154.775 25.4312 155.246 25.1373 155.251 25.1345C155.276 25.1188 155.31 25.1263 155.326 25.151C156.306 26.6307 156.628 27.8343 156.281 28.7281C155.963 29.5499 155.189 29.818 155.026 29.8661C154.883 30.323 155.225 31.5409 156.01 32.0199C156.538 32.3421 157.44 32.4243 158.737 30.9848C159.721 29.8936 160.612 29.4105 161.387 29.5485C162.307 29.7127 162.708 30.6898 162.724 30.7313C162.736 30.7596 162.722 30.7915 162.694 30.8028C162.666 30.814 162.634 30.8003 162.622 30.7722C162.619 30.7626 162.227 29.8097 161.367 29.6566C160.632 29.5263 159.775 29.9975 158.819 31.0582C157.948 32.0243 157.241 32.3261 156.698 32.3261Z" fill="#83C7C6"/>
<path d="M156.877 40.2051C156.858 40.2051 156.84 40.1952 156.829 40.1782C156.826 40.1732 156.535 39.6767 156.315 38.9855C156.112 38.3452 155.93 37.4011 156.218 36.5389C156.479 35.7589 157.076 35.1725 157.991 34.7953C158.013 34.7862 158.038 34.7923 158.053 34.8096C158.069 34.8272 158.072 34.8525 158.06 34.8728C158.047 34.8976 156.687 37.353 156.88 38.4865C156.885 38.5165 156.865 38.5448 156.835 38.55C156.804 38.5552 156.776 38.5349 156.771 38.5049C156.597 37.4803 157.596 35.5068 157.888 34.9597C157.085 35.3245 156.559 35.867 156.323 36.5733C155.876 37.9072 156.586 39.473 156.84 39.9656C156.917 39.6541 157.266 38.9698 158.745 37.8962C159.327 37.4739 159.626 37.0041 159.635 36.4993C159.651 35.6094 158.753 34.8965 158.743 34.8893C158.725 34.8748 158.718 34.85 158.725 34.828C158.733 34.806 158.754 34.7912 158.777 34.7912C158.778 34.7912 158.778 34.7912 158.779 34.7912C158.816 34.7912 159.473 34.7873 160.125 34.5481C161.01 34.224 161.469 33.6422 161.489 32.8194C161.505 32.1898 161.345 31.7199 161.013 31.423C160.521 30.9837 159.815 31.0747 159.808 31.0758C159.778 31.0799 159.75 31.059 159.746 31.0288C159.742 30.9988 159.763 30.971 159.793 30.9669C159.824 30.9625 160.557 30.8682 161.086 31.3411C161.443 31.6605 161.616 32.1587 161.599 32.8221C161.578 33.6832 161.08 34.3161 160.16 34.6523C159.655 34.8374 159.159 34.8849 158.921 34.897C159.172 35.1252 159.759 35.7411 159.745 36.5007C159.736 37.042 159.421 37.5416 158.81 37.9853C156.807 39.4386 156.929 40.1317 156.931 40.1386C156.936 40.165 156.922 40.1914 156.897 40.2013C156.89 40.204 156.883 40.2051 156.877 40.2051Z" fill="#83C7C6"/>
<path d="M152.311 37.612C152.294 37.612 152.278 37.604 152.267 37.5891C152.228 37.5344 151.307 36.2359 151.705 35.236C151.906 34.7304 152.41 34.3969 153.202 34.2449C153.228 34.2399 153.254 34.254 153.263 34.2784C153.273 34.3029 153.264 34.3309 153.242 34.3452C153.233 34.3513 152.315 34.9572 152.366 36.0336C152.368 36.0638 152.344 36.0897 152.314 36.091C152.285 36.0919 152.258 36.069 152.257 36.0388C152.218 35.2184 152.708 34.6576 152.991 34.4049C152.372 34.5657 151.974 34.8583 151.807 35.2767C151.508 36.0286 152.027 37 152.256 37.3714C152.289 37.0998 152.476 36.5788 153.32 35.9912C153.711 35.7191 153.913 35.4386 153.919 35.1579C153.926 34.8104 153.624 34.5753 153.621 34.5729C153.602 34.5583 153.595 34.533 153.603 34.5105C153.611 34.4879 153.633 34.4736 153.657 34.4742C154.298 34.5028 154.8 34.2058 155.151 33.5905C155.415 33.1265 155.488 32.6486 155.489 32.644C155.493 32.614 155.521 32.5934 155.551 32.5978C155.581 32.6022 155.602 32.6302 155.597 32.6602C155.594 32.6805 155.52 33.1633 155.246 33.645C154.905 34.2443 154.405 34.5671 153.793 34.5852C153.896 34.6974 154.034 34.8978 154.028 35.159C154.022 35.4774 153.805 35.7875 153.383 36.0814C152.24 36.8771 152.364 37.5388 152.365 37.5454C152.371 37.5707 152.357 37.5968 152.333 37.6073C152.327 37.6106 152.319 37.612 152.311 37.612Z" fill="#83C7C6"/>
<path d="M159.962 28.0301C159.795 28.0301 159.63 28.0081 159.473 27.9569C159.016 27.809 158.689 27.436 158.5 26.8482C158.491 26.8207 158.505 26.791 158.532 26.7802C158.573 26.7643 159.542 26.394 160.812 26.896C160.84 26.9073 160.854 26.9392 160.843 26.9675C160.832 26.9958 160.8 27.0095 160.772 26.9985C159.701 26.5754 158.833 26.7992 158.621 26.866C158.801 27.3884 159.098 27.7202 159.506 27.8525C160.447 28.1576 161.713 27.3265 161.938 27.1706C161.825 26.8982 161.121 25.308 160.048 25.1419C159.566 25.0672 159.186 25.2079 158.918 25.5601C158.717 25.8254 158.658 26.1149 158.657 26.1179C158.652 26.1438 158.629 26.1622 158.603 26.1622C158.603 26.1622 158.602 26.1622 158.602 26.1622C157.959 26.1419 157.349 25.7589 156.97 25.1375C156.687 24.6746 156.606 24.1871 156.758 23.8654C157.169 23 157.897 22.8289 159.053 23.3271C159.735 23.6213 160.383 23.6136 160.831 23.3062C161.296 22.9873 161.524 22.3745 161.49 21.5335C161.459 20.7562 161.132 20.1627 160.516 19.7687C160.053 19.4729 159.592 19.4066 159.588 19.4061C159.558 19.4019 159.537 19.3742 159.541 19.3442C159.545 19.3142 159.573 19.2931 159.603 19.2972C159.622 19.2999 160.089 19.3665 160.571 19.6738C161.019 19.9587 161.56 20.5118 161.601 21.5294C161.645 22.642 161.24 23.1591 160.893 23.3972C160.413 23.7266 159.727 23.7381 159.009 23.4286C158.407 23.1688 157.935 23.0995 157.568 23.2174C157.266 23.3139 157.034 23.5416 156.858 23.913C156.723 24.1973 156.804 24.6556 157.064 25.0806C157.415 25.6558 157.972 26.0157 158.561 26.0506C158.622 25.8251 158.953 24.8612 160.065 25.0336C161.296 25.2244 162.027 27.0917 162.057 27.1712C162.066 27.1943 162.058 27.2204 162.038 27.2353C161.987 27.2724 160.942 28.0298 159.962 28.0301Z" fill="#83C7C6"/>
<path d="M157.748 22.0957C157.742 22.0957 157.736 22.0946 157.73 22.0924C157.701 22.0822 157.686 22.0509 157.696 22.0223C157.698 22.0168 157.887 21.468 157.613 21.0721C157.428 20.8041 157.073 20.6622 156.56 20.6504C155.98 20.6369 155.617 20.3554 155.565 19.8779C155.521 19.4773 155.717 18.9885 156.089 18.5706C156.508 18.1007 157.117 17.7491 157.804 17.5797C157.819 17.5759 157.836 17.5789 157.848 17.5882C157.863 17.5987 159.343 18.6305 160.121 17.9008C160.845 17.2226 161.168 15.3979 161.224 15.0501C160.835 15.0207 158.602 14.8967 157.76 15.8531C157.476 16.177 157.379 16.5971 157.471 17.103C157.813 16.7167 159.234 15.1958 160.128 15.5521C160.156 15.5634 160.17 15.5953 160.158 15.6236C160.147 15.6519 160.115 15.6656 160.087 15.6544C159.16 15.2849 157.499 17.2388 157.482 17.2586C157.469 17.2745 157.448 17.2814 157.427 17.2767C157.407 17.2718 157.391 17.2558 157.387 17.2358C157.25 16.6452 157.348 16.1556 157.678 15.7811C158.634 14.6938 161.185 14.9343 161.293 14.945C161.308 14.9464 161.322 14.9541 161.331 14.9659C161.34 14.9778 161.344 14.9929 161.342 15.0077C161.33 15.0971 161.022 17.2072 160.197 17.9808C159.845 18.3105 159.314 18.3611 158.662 18.1271C158.236 17.9745 157.894 17.7515 157.806 17.6924C156.301 18.0732 155.601 19.1966 155.674 19.8658C155.72 20.2825 156.044 20.5286 156.563 20.5404C157.114 20.5531 157.498 20.7112 157.704 21.0103C158.01 21.4532 157.809 22.0344 157.8 22.0591C157.792 22.0814 157.771 22.0957 157.748 22.0957Z" fill="#83C7C6"/>
<path d="M154.363 23.9812C154.342 23.9812 154.321 23.9685 154.313 23.9476C154.04 23.3005 154.027 22.7993 154.275 22.4578C154.672 21.9118 155.58 21.9827 155.619 21.986C155.649 21.9885 155.671 22.0152 155.669 22.0454C155.666 22.0756 155.64 22.0979 155.609 22.0954C155.6 22.0946 154.724 22.0267 154.364 22.5227C154.14 22.8309 154.157 23.2961 154.414 23.905C154.426 23.9331 154.412 23.9652 154.384 23.9771C154.378 23.9798 154.37 23.9812 154.363 23.9812Z" fill="#83C7C6"/>
<defs>
<linearGradient id="paint0_linear" x1="110.419" y1="-5.24205" x2="116.864" y2="29.3022" gradientUnits="userSpaceOnUse">
<stop stop-color="#FF928E"/>
<stop offset="1" stop-color="#FEB3B1"/>
</linearGradient>
<linearGradient id="paint1_linear" x1="88.3095" y1="-1.11728" x2="94.7544" y2="33.4271" gradientUnits="userSpaceOnUse">
<stop stop-color="#FF928E"/>
<stop offset="1" stop-color="#FEB3B1"/>
</linearGradient>
</defs>
</svg>
