<svg width="1920" height="1080" viewBox="0 0 1920 1080" fill="none" xmlns="http://www.w3.org/2000/svg">
<g clip-path="url(#clip0)">
<rect width="1920" height="1080" fill="white"/>
<g filter="url(#filter0_f)">
<path d="M361 196.5C241.8 333.7 70 273.5 0 226.5V0H625C586.667 8.33333 480.2 59.3 361 196.5Z" fill="#98D5D3"/>
<path d="M1202.32 681.811L1920 868V0H986L1054.29 514.532C1065 595.221 1123.54 661.37 1202.32 681.811Z" fill="#E5FCFF"/>
<path d="M1229.58 642.313L1920 828V0H1016L1083.5 477.187C1094.72 556.522 1152.21 621.503 1229.58 642.313Z" fill="#F5FEFF"/>
<path d="M497.225 530.723L0 438V1080H550.5L617.401 704.49C631.849 623.396 578.2 545.823 497.225 530.723Z" fill="#F2FEFF"/>
<path d="M477.224 549.847L0 458V1080H530.5L596.365 724.468C611.382 643.412 558.174 565.427 477.224 549.847Z" fill="#FAFFFF"/>
<path d="M1276.5 947C1104.5 917.4 1059 999.5 1017.5 1080H1920V947C1920 947 1833 1029.5 1744.5 963C1656 896.5 1578 937.556 1478 963C1421.67 977.333 1448.5 976.6 1276.5 947Z" fill="#98D4D3"/>
</g>
<g filter="url(#filter1_f)">
<path d="M137.848 84.536V98.072C137.848 98.2 137.848 98.312 137.848 98.408C137.88 98.472 137.912 98.536 137.944 98.6C138.04 98.568 138.136 98.52 138.232 98.456C138.328 98.392 138.44 98.264 138.568 98.072C139.144 97.368 139.928 96.808 140.92 96.392C141.944 95.976 143.032 95.768 144.184 95.768C147.224 95.768 149.848 97.032 152.056 99.56C154.264 102.088 155.368 105.096 155.368 108.584C155.368 111.816 154.424 114.472 152.536 116.552C150.648 118.632 148.2 119.672 145.192 119.672C142.888 119.672 140.792 118.968 138.904 117.56C138.392 117.176 137.976 116.984 137.656 116.984C137.368 116.984 137 117.096 136.552 117.32L134.248 118.28C133.768 118.44 133.352 118.6 133 118.76C132.648 118.92 132.344 119.064 132.088 119.192C131.544 119.512 131.112 119.672 130.792 119.672C130.248 119.672 129.976 119.352 129.976 118.712L130.12 117.32L130.216 114.92V92.12C130.216 90.648 129.736 89.784 128.776 89.528L128.296 89.384C127.816 89.16 127.576 88.808 127.576 88.328C127.576 87.88 127.8 87.576 128.248 87.416L136.744 83.864L137.176 83.816C137.528 83.816 137.752 84.056 137.848 84.536ZM143.08 98.6C141.64 98.6 140.392 99.24 139.336 100.52C138.312 101.768 137.8 103.32 137.8 105.176L137.704 109.352V109.688C137.704 111.512 138.12 112.952 138.952 114.008C139.784 115.064 140.952 115.592 142.456 115.592C144.312 115.592 145.784 114.76 146.872 113.096C147.96 111.432 148.504 109.144 148.504 106.232C148.504 103.96 148.008 102.12 147.016 100.712C146.024 99.304 144.712 98.6 143.08 98.6ZM167.754 96.344V113.432C167.754 114.616 167.882 115.416 168.138 115.832C168.394 116.248 168.954 116.552 169.818 116.744C170.682 116.936 171.114 117.336 171.114 117.944C171.114 118.648 170.682 119 169.818 119H158.298C157.402 119 156.954 118.632 156.954 117.896C156.954 117.384 157.274 117.048 157.914 116.888C158.554 116.696 159.002 116.52 159.258 116.36C159.546 116.168 159.77 115.928 159.93 115.64C160.058 115.288 160.122 114.92 160.122 114.536C160.154 114.12 160.17 113.752 160.17 113.432V112.568V103.688C160.17 102.376 159.69 101.56 158.73 101.24L158.25 101.096C157.77 100.936 157.53 100.584 157.53 100.04C157.53 99.592 157.738 99.288 158.154 99.128L166.65 95.672C166.682 95.64 166.73 95.624 166.794 95.624C166.89 95.592 166.986 95.56 167.082 95.528C167.434 95.528 167.658 95.8 167.754 96.344ZM158.394 90.2C158.746 89.112 159.578 88.152 160.89 87.32C162.234 86.488 163.61 86.072 165.018 86.072C165.914 86.072 166.618 86.264 167.13 86.648C167.674 87 167.946 87.496 167.946 88.136C167.946 89.096 167.418 90.024 166.362 90.92C165.69 91.528 164.874 92.024 163.914 92.408C162.954 92.792 162.058 92.984 161.226 92.984C159.242 92.984 158.25 92.312 158.25 90.968L158.394 90.2ZM182.056 96.2H188.104C188.392 96.2 188.536 96.28 188.536 96.44L188.44 96.824L187.768 98.6C187.608 98.984 187.32 99.176 186.904 99.176H182.68C182.296 99.176 182.104 99.4 182.104 99.848V113.816C182.104 115.576 182.856 116.456 184.36 116.456C185.384 116.456 186.248 116.184 186.952 115.64C187.656 115.064 188.136 114.776 188.392 114.776C189.064 114.776 189.4 115.112 189.4 115.784C189.4 116.104 189.176 116.52 188.728 117.032C187 118.792 184.328 119.672 180.712 119.672C178.728 119.672 177.128 119.352 175.912 118.712C174.696 118.072 174.088 117.224 174.088 116.168L174.184 114.92C174.44 113.544 174.568 111.992 174.568 110.264V99.848C174.568 99.4 174.36 99.176 173.944 99.176H171.832C171.16 99.176 170.824 98.824 170.824 98.12C170.824 97.544 171.32 96.92 172.312 96.248C173.496 95.512 174.824 94.408 176.296 92.936C177.768 91.464 178.936 90.056 179.8 88.712C180.184 88.008 180.632 87.656 181.144 87.656C181.752 87.656 182.056 88.024 182.056 88.76V96.2ZM197.652 109.592C197.268 109.688 197.076 109.832 197.076 110.024C197.076 110.216 197.22 110.664 197.508 111.368C199.14 114.472 201.508 116.024 204.612 116.024C205.764 116.024 206.852 115.8 207.876 115.352C208.932 114.904 209.988 114.184 211.044 113.192C211.46 112.808 211.812 112.616 212.1 112.616C212.74 112.616 213.06 112.952 213.06 113.624C213.06 113.912 212.932 114.248 212.676 114.632C211.588 116.232 210.068 117.48 208.116 118.376C206.196 119.272 204.052 119.72 201.684 119.72C197.844 119.72 194.692 118.6 192.228 116.36C189.764 114.12 188.532 111.24 188.532 107.72C188.532 104.264 189.7 101.352 192.036 98.984C194.404 96.584 197.332 95.384 200.82 95.384C202.804 95.384 204.596 95.784 206.196 96.584C207.796 97.352 209.14 98.472 210.228 99.944C210.836 100.776 211.38 101.704 211.859 102.728C212.18 103.464 212.34 103.976 212.34 104.264C212.34 104.552 212.196 104.744 211.908 104.84L197.652 109.592ZM196.548 107L196.932 106.904L204.516 104.408C204.9 104.248 205.092 104.072 205.092 103.88C205.092 103.656 204.932 103.144 204.612 102.344C204.324 101.512 203.876 100.744 203.268 100.04C202.276 98.888 201.108 98.312 199.764 98.312C198.548 98.312 197.556 98.808 196.788 99.8C196.052 100.76 195.684 102.056 195.684 103.688C195.684 104.616 195.764 105.4 195.924 106.04C196.116 106.68 196.324 107 196.548 107ZM227.932 103.688L230.62 104.504C233.372 105.4 235.388 106.456 236.668 107.672C237.948 108.888 238.588 110.392 238.588 112.184C238.588 114.328 237.724 116.104 235.996 117.512C234.268 118.92 232.092 119.624 229.468 119.624C228.604 119.624 227.564 119.544 226.348 119.384C225.132 119.224 223.98 119.016 222.892 118.76C222.316 118.568 221.916 118.472 221.692 118.472C221.34 118.472 220.988 118.76 220.636 119.336C220.316 119.912 219.948 120.2 219.532 120.2C219.212 120.2 218.988 120.136 218.86 120.008C218.732 119.88 218.572 119.624 218.38 119.24L214.204 112.712C213.98 112.36 213.868 111.976 213.868 111.56C213.868 111.304 213.948 111.096 214.108 110.936C214.3 110.744 214.524 110.648 214.78 110.648C215.196 110.648 215.692 111 216.268 111.704L218.236 113.384L220.588 115.112C222.572 116.392 224.7 117.032 226.972 117.032C228.06 117.032 228.94 116.776 229.612 116.264C230.316 115.72 230.668 115 230.668 114.104C230.668 113.272 230.332 112.584 229.66 112.04C229.02 111.464 227.82 110.856 226.06 110.216L222.796 109.016C221.356 108.504 220.332 108.12 219.724 107.864C219.148 107.576 218.492 107.224 217.756 106.808C215.644 105.592 214.588 103.96 214.588 101.912C214.588 100.088 215.388 98.584 216.988 97.4C218.62 96.184 220.668 95.576 223.132 95.576C223.996 95.576 224.812 95.64 225.58 95.768C226.348 95.896 227.372 96.12 228.652 96.44L229.516 96.584C229.996 96.584 230.348 96.28 230.572 95.672C230.828 95.032 231.196 94.712 231.676 94.712C232.028 94.712 232.284 94.808 232.444 95C232.604 95.16 232.78 95.416 232.972 95.768L236.284 101.288C236.54 101.736 236.668 102.056 236.668 102.248C236.668 102.792 236.38 103.064 235.804 103.064C235.452 103.064 235.004 102.792 234.46 102.248C233.18 101 231.708 100.008 230.044 99.272C228.412 98.536 226.828 98.168 225.292 98.168C224.396 98.168 223.66 98.376 223.084 98.792C222.508 99.208 222.22 99.752 222.22 100.424C222.22 100.936 222.396 101.368 222.748 101.72C223.132 102.04 223.852 102.376 224.908 102.728L227.932 103.688ZM250.301 96.344V113.432C250.301 114.616 250.429 115.416 250.685 115.832C250.941 116.248 251.501 116.552 252.365 116.744C253.229 116.936 253.661 117.336 253.661 117.944C253.661 118.648 253.229 119 252.365 119H240.845C239.949 119 239.501 118.632 239.501 117.896C239.501 117.384 239.821 117.048 240.461 116.888C241.101 116.696 241.549 116.52 241.805 116.36C242.093 116.168 242.317 115.928 242.477 115.64C242.605 115.288 242.669 114.92 242.669 114.536C242.701 114.12 242.717 113.752 242.717 113.432V112.568V103.688C242.717 102.376 242.237 101.56 241.277 101.24L240.797 101.096C240.317 100.936 240.077 100.584 240.077 100.04C240.077 99.592 240.285 99.288 240.701 99.128L249.197 95.672C249.229 95.64 249.277 95.624 249.341 95.624C249.437 95.592 249.533 95.56 249.629 95.528C249.981 95.528 250.205 95.8 250.301 96.344ZM240.941 90.2C241.293 89.112 242.125 88.152 243.437 87.32C244.781 86.488 246.157 86.072 247.565 86.072C248.461 86.072 249.165 86.264 249.677 86.648C250.221 87 250.493 87.496 250.493 88.136C250.493 89.096 249.965 90.024 248.909 90.92C248.237 91.528 247.421 92.024 246.461 92.408C245.501 92.792 244.605 92.984 243.773 92.984C241.789 92.984 240.797 92.312 240.797 90.968L240.941 90.2ZM254.139 119C253.37 119 252.986 118.6 252.986 117.8C252.986 117.48 253.05 117.256 253.178 117.128L267.674 99.512L267.819 99.128C267.659 99.064 267.451 99.016 267.195 98.984C266.939 98.952 266.731 98.936 266.571 98.936C262.059 98.936 258.939 100.056 257.211 102.296C256.699 102.968 256.315 103.4 256.059 103.592C255.835 103.752 255.515 103.832 255.099 103.832C254.523 103.832 254.235 103.528 254.235 102.92L254.331 102.44L257.931 95.576C258.091 95.224 258.395 95.048 258.843 95.048C259.163 95.048 259.419 95.144 259.611 95.336L259.995 95.72C260.347 96.04 260.891 96.2 261.627 96.2L277.802 96.344C278.475 96.344 278.811 96.648 278.811 97.256C278.811 97.544 278.731 97.8 278.571 98.024L264.315 115.448L264.075 115.832C264.075 115.992 264.187 116.104 264.411 116.168C264.635 116.2 265.035 116.216 265.611 116.216L266.811 116.168L270.795 115.88C272.043 115.752 273.163 115.416 274.155 114.872C275.147 114.328 275.915 113.624 276.459 112.76C276.875 112.056 277.211 111.592 277.467 111.368C277.723 111.144 278.011 111.032 278.331 111.032C279.035 111.032 279.387 111.384 279.387 112.088L279.291 112.52L275.787 119.48C275.435 120.024 275.051 120.296 274.635 120.296C274.315 120.296 274.059 120.2 273.867 120.008L273.339 119.576C273.083 119.384 272.779 119.256 272.427 119.192C272.075 119.128 271.787 119.096 271.563 119.096L254.139 119ZM289.62 109.592C289.236 109.688 289.044 109.832 289.044 110.024C289.044 110.216 289.188 110.664 289.476 111.368C291.108 114.472 293.476 116.024 296.58 116.024C297.732 116.024 298.82 115.8 299.844 115.352C300.9 114.904 301.956 114.184 303.012 113.192C303.428 112.808 303.78 112.616 304.068 112.616C304.708 112.616 305.028 112.952 305.028 113.624C305.028 113.912 304.9 114.248 304.644 114.632C303.556 116.232 302.036 117.48 300.084 118.376C298.164 119.272 296.02 119.72 293.652 119.72C289.812 119.72 286.66 118.6 284.196 116.36C281.732 114.12 280.5 111.24 280.5 107.72C280.5 104.264 281.668 101.352 284.004 98.984C286.372 96.584 289.3 95.384 292.788 95.384C294.772 95.384 296.564 95.784 298.164 96.584C299.764 97.352 301.108 98.472 302.196 99.944C302.804 100.776 303.348 101.704 303.828 102.728C304.148 103.464 304.308 103.976 304.308 104.264C304.308 104.552 304.164 104.744 303.876 104.84L289.62 109.592ZM288.516 107L288.9 106.904L296.484 104.408C296.868 104.248 297.06 104.072 297.06 103.88C297.06 103.656 296.9 103.144 296.58 102.344C296.292 101.512 295.844 100.744 295.236 100.04C294.244 98.888 293.076 98.312 291.732 98.312C290.516 98.312 289.524 98.808 288.756 99.8C288.02 100.76 287.652 102.056 287.652 103.688C287.652 104.616 287.732 105.4 287.892 106.04C288.084 106.68 288.292 107 288.516 107Z" fill="#FCFEFF"/>
</g>
<path d="M253.22 979.5C254.646 979.807 255.753 980.353 256.54 981.14C257.326 981.927 257.72 982.88 257.72 984C257.72 985.2 257.26 986.167 256.34 986.9C255.433 987.633 254.226 988 252.72 988H244.76C244.28 988 244.04 987.82 244.04 987.46C244.04 987.18 244.213 987.013 244.56 986.96C244.92 986.893 245.153 986.72 245.26 986.44C245.286 986.32 245.306 986.2 245.32 986.08C245.333 985.947 245.34 985.693 245.34 985.32V976.28C245.34 975.667 245.3 975.26 245.22 975.06C245.14 974.847 244.96 974.72 244.68 974.68C244.4 974.64 244.226 974.593 244.16 974.54C244.106 974.487 244.08 974.353 244.08 974.14C244.08 973.793 244.32 973.62 244.8 973.62H250.22C251.9 973.62 253.233 973.933 254.22 974.56C255.22 975.173 255.72 976.007 255.72 977.06C255.72 977.647 255.526 978.153 255.14 978.58C254.926 978.793 254.686 978.967 254.42 979.1C254.153 979.22 253.753 979.353 253.22 979.5ZM249.92 974.78C249.493 974.78 249.2 974.847 249.04 974.98C248.893 975.1 248.82 975.34 248.82 975.7V978.16C248.82 978.44 248.893 978.633 249.04 978.74C249.2 978.847 249.493 978.9 249.92 978.9C251.56 978.9 252.38 978.273 252.38 977.02C252.38 976.34 252.153 975.8 251.7 975.4C251.26 974.987 250.666 974.78 249.92 974.78ZM250.08 980.16C249.573 980.16 249.233 980.22 249.06 980.34C248.886 980.447 248.8 980.673 248.8 981.02V985.58C248.8 986.007 248.913 986.3 249.14 986.46C249.366 986.607 249.786 986.68 250.4 986.68C252.773 986.68 253.96 985.673 253.96 983.66C253.96 982.553 253.62 981.693 252.94 981.08C252.26 980.467 251.306 980.16 250.08 980.16ZM264.581 982.4L264.341 981.24C264.128 980.12 263.528 979.56 262.541 979.56C261.875 979.56 261.281 979.8 260.761 980.28L260.421 980.6C260.235 980.76 260.075 980.84 259.941 980.84C259.821 980.84 259.715 980.807 259.621 980.74C259.541 980.66 259.501 980.567 259.501 980.46C259.501 980.313 259.575 980.14 259.721 979.94C259.868 979.74 260.075 979.527 260.341 979.3C261.288 978.553 262.388 978.18 263.641 978.18C265.708 978.18 266.961 979.093 267.401 980.92L268.381 985.14C268.608 986.18 268.941 986.7 269.381 986.7C269.608 986.7 269.755 986.627 269.821 986.48L269.901 986.34L270.041 986.3C270.188 986.3 270.261 986.427 270.261 986.68C270.261 987.133 270.041 987.513 269.601 987.82C269.175 988.113 268.635 988.26 267.981 988.26C267.155 988.26 266.508 988 266.041 987.48C265.935 987.36 265.868 987.293 265.841 987.28C265.815 987.267 265.795 987.253 265.781 987.24L265.661 987.28L265.401 987.48C264.681 988 263.741 988.26 262.581 988.26C261.435 988.26 260.481 987.96 259.721 987.36C258.961 986.76 258.581 986.007 258.581 985.1C258.581 984.18 258.961 983.44 259.721 982.88C260.481 982.32 261.481 982.04 262.721 982.04C263.121 982.04 263.421 982.06 263.621 982.1C263.821 982.14 264.141 982.24 264.581 982.4ZM265.281 985.38L264.861 983.56C264.448 983.213 263.981 983.04 263.461 983.04C262.928 983.04 262.481 983.22 262.121 983.58C261.775 983.927 261.601 984.373 261.601 984.92C261.601 985.507 261.795 986 262.181 986.4C262.581 986.787 263.075 986.98 263.661 986.98C264.128 986.98 264.521 986.867 264.841 986.64C265.161 986.413 265.321 986.133 265.321 985.8L265.281 985.38ZM278.986 982.16C278.879 982.44 278.726 982.58 278.526 982.58C278.246 982.58 278.106 982.447 278.106 982.18L278.146 981.86C278.173 981.767 278.186 981.667 278.186 981.56C278.186 981.453 278.186 981.367 278.186 981.3C278.186 980.7 277.999 980.207 277.626 979.82C277.253 979.433 276.773 979.24 276.186 979.24C275.386 979.24 274.739 979.607 274.246 980.34C273.753 981.073 273.506 982.053 273.506 983.28C273.506 984.44 273.759 985.36 274.266 986.04C274.786 986.707 275.493 987.04 276.386 987.04C277.466 987.04 278.319 986.48 278.946 985.36C279.119 985.067 279.293 984.92 279.466 984.92C279.746 984.92 279.886 985.073 279.886 985.38C279.886 985.727 279.679 986.18 279.266 986.74C278.506 987.793 277.266 988.32 275.546 988.32C273.999 988.32 272.719 987.873 271.706 986.98C270.693 986.087 270.186 984.94 270.186 983.54C270.186 982.007 270.719 980.733 271.786 979.72C272.853 978.707 274.206 978.2 275.846 978.2C276.459 978.2 277.006 978.267 277.486 978.4C277.979 978.533 278.546 978.773 279.186 979.12C279.653 979.333 279.886 979.54 279.886 979.74L279.766 980.04L278.986 982.16ZM280.554 988C280.194 988 280.014 987.847 280.014 987.54C280.014 987.3 280.187 987.14 280.534 987.06C280.894 986.98 281.127 986.867 281.234 986.72C281.354 986.56 281.414 986.26 281.414 985.82V985.68L281.394 985.32V976.72C281.394 976.4 281.347 976.173 281.254 976.04C281.174 975.893 281.021 975.787 280.794 975.72L280.594 975.66C280.394 975.58 280.294 975.433 280.294 975.22C280.294 975.033 280.381 974.907 280.554 974.84L284.094 973.36L284.274 973.34C284.421 973.34 284.514 973.44 284.554 973.64V976.7V982.22C284.554 982.3 284.561 982.373 284.574 982.44C284.587 982.493 284.607 982.54 284.634 982.58C284.674 982.567 284.714 982.547 284.754 982.52C284.807 982.493 284.867 982.447 284.934 982.38L286.474 980.86C286.621 980.713 286.807 980.513 287.034 980.26C287.207 980.073 287.294 979.927 287.294 979.82C287.294 979.647 287.127 979.527 286.794 979.46C286.461 979.393 286.294 979.233 286.294 978.98C286.294 978.7 286.474 978.56 286.834 978.56H290.554C290.914 978.56 291.094 978.7 291.094 978.98C291.094 979.247 290.914 979.42 290.554 979.5C290.194 979.567 289.934 979.627 289.774 979.68C289.627 979.733 289.474 979.8 289.314 979.88C289.167 979.96 289.054 980.027 288.974 980.08C288.894 980.133 288.781 980.233 288.634 980.38L288.314 980.7C288.207 980.793 288.154 980.913 288.154 981.06C288.154 981.167 288.187 981.273 288.254 981.38L290.494 985.68C290.627 985.933 290.727 986.127 290.794 986.26C290.874 986.38 290.974 986.493 291.094 986.6C291.267 986.773 291.661 986.933 292.274 987.08C292.594 987.16 292.754 987.32 292.754 987.56C292.754 987.853 292.567 988 292.194 988H288.554C288.314 988 288.147 987.887 288.054 987.66L285.994 983.46C285.941 983.34 285.894 983.267 285.854 983.24C285.814 983.2 285.781 983.173 285.754 983.16C285.674 983.16 285.567 983.227 285.434 983.36L284.554 984.24V985.68C284.554 986.173 284.607 986.507 284.714 986.68C284.834 986.84 285.081 986.967 285.454 987.06C285.827 987.153 286.014 987.32 286.014 987.56C286.014 987.853 285.834 988 285.474 988H280.554Z" fill="white"/>
<path d="M223.2 980H200.8" stroke="white" stroke-width="3.5" stroke-linecap="round" stroke-linejoin="round"/>
<path d="M208.8 988L200.8 980L208.8 972" stroke="white" stroke-width="3.5" stroke-linecap="round" stroke-linejoin="round"/>
</g>
<defs>
<filter id="filter0_f" x="-16" y="-16" width="1952" height="1112" filterUnits="userSpaceOnUse" color-interpolation-filters="sRGB">
<feFlood flood-opacity="0" result="BackgroundImageFix"/>
<feBlend mode="normal" in="SourceGraphic" in2="BackgroundImageFix" result="shape"/>
<feGaussianBlur stdDeviation="8" result="effect1_foregroundBlur"/>
</filter>
<filter id="filter1_f" x="123.576" y="79.816" width="185.452" height="44.48" filterUnits="userSpaceOnUse" color-interpolation-filters="sRGB">
<feFlood flood-opacity="0" result="BackgroundImageFix"/>
<feBlend mode="normal" in="SourceGraphic" in2="BackgroundImageFix" result="shape"/>
<feGaussianBlur stdDeviation="2" result="effect1_foregroundBlur"/>
</filter>
<clipPath id="clip0">
<rect width="1920" height="1080" fill="white"/>
</clipPath>
</defs>
</svg>
