<svg width="241" height="192" viewBox="0 0 241 192" fill="none" xmlns="http://www.w3.org/2000/svg">
<path d="M228.315 123.568C227.097 119.087 225.2 114.295 222.711 109.324C222.716 109.313 222.722 109.303 222.727 109.287C223.692 107.305 224.525 105.164 225.01 102.818C225.495 100.483 225.6 97.8996 225.047 95.348C224.783 94.0722 224.33 92.8334 223.771 91.6577C223.644 91.352 223.47 91.0831 223.312 90.8037L222.822 89.9655L222.701 89.7599L222.585 89.5859L222.347 89.2432L221.873 88.5526C220.581 86.7444 219.205 85.0047 217.719 83.3915C211.799 76.8966 204.819 71.551 197.422 66.7167C191.692 62.9896 185.661 59.6209 179.403 56.5474C149.433 31.1214 111.428 14.125 80.8201 27.5102C73.1602 30.8578 66.7549 36.1244 61.4462 42.7299C55.721 45.1286 50.3595 48.239 45.6571 52.0663C42.3674 54.7286 39.4047 57.8074 36.948 61.1708C34.5019 64.5448 32.5513 68.1929 31.0857 71.9306C29.6149 75.6736 28.6238 79.5009 28.007 83.2914C27.3849 87.0871 27.1371 90.8459 27.1424 94.5151C27.153 98.1895 27.4166 101.774 27.8594 105.259C28.2969 108.744 28.9296 112.123 29.6887 115.391C30.4478 118.66 31.3124 121.828 32.2772 124.881C33.2472 127.933 34.3016 130.88 35.4034 133.727C37.3118 138.582 39.3836 143.127 41.5398 147.37C44.3391 166.834 50.1856 181.337 57.2762 183.514C59.6327 184.236 63.5971 184.611 68.7687 184.647C72.5592 188.259 79.3493 193.283 90.6468 191.564C92.3391 191.39 94.3634 191.063 96.6672 190.51C99.2241 189.898 102.118 189.018 105.313 187.884C108.508 186.756 111.998 185.354 115.767 183.725C119.521 182.112 123.543 180.267 127.824 178.221C144.746 175.111 162.396 170.909 178.122 165.706C209.4 155.368 233.076 141.086 228.315 123.568ZM39.9688 130.416C39.1674 128.086 38.3978 125.698 37.6861 123.246C36.8426 120.294 36.0887 117.258 35.4455 114.137C34.7971 111.016 34.2752 107.816 33.9378 104.542C33.5951 101.274 33.4159 97.9365 33.4739 94.5625C33.5899 87.8304 34.66 80.8979 37.317 74.4347C38.6403 71.2083 40.3589 68.1085 42.4834 65.2617C44.6238 62.4149 47.1648 59.8423 50.059 57.5596C51.1767 56.6739 52.3365 55.8304 53.5332 55.0291C42.4149 76.4854 38.8195 105.412 39.9688 130.416ZM104.227 185.117C103.963 185.233 103.705 185.338 103.447 185.449C99.7934 186.962 84.1414 192.829 74.9789 186.35C74.32 185.818 73.6399 185.233 72.9387 184.605C82.312 184.394 94.6376 183.303 108.265 181.389C110.147 181.126 112.05 180.846 113.98 180.551C110.453 182.296 107.195 183.836 104.227 185.117ZM218.119 101.02C213.765 93.8192 208.346 86.407 202.125 79.1477C202.583 79.5009 203.047 79.8489 203.495 80.2021C205.077 81.4831 206.648 82.7747 208.114 84.1348C209.6 85.4792 211.003 86.8762 212.331 88.3049C213.67 89.7282 214.872 91.2254 215.979 92.7437L216.385 93.3184L216.585 93.603L216.686 93.7454C216.717 93.7928 216.733 93.8297 216.759 93.8719L217.044 94.3569C217.139 94.5203 217.255 94.6732 217.318 94.8472C217.634 95.5114 217.903 96.1862 218.051 96.8979C218.341 98.1895 218.351 99.5813 218.119 101.02Z" fill="#F5FAFA"/>
<path d="M218.896 27.6122H216.553C216.385 27.0806 216.174 26.5703 215.917 26.0815L217.576 24.4224C217.989 24.0099 217.989 23.3408 217.576 22.9314L215.019 20.374C214.606 19.9616 213.94 19.9616 213.528 20.374L211.869 22.0331C211.383 21.7795 210.87 21.5656 210.338 21.3976V19.0541C210.338 18.4705 209.867 18 209.284 18H205.666C205.083 18 204.612 18.4705 204.612 19.0541V21.3976C204.081 21.5656 203.567 21.7795 203.081 22.0331L201.422 20.374C201.01 19.9616 200.344 19.9616 199.931 20.374L197.374 22.9314C196.962 23.3439 196.962 24.0099 197.374 24.4224L199.033 26.0815C198.78 26.5673 198.566 27.0775 198.398 27.6122H196.054C195.471 27.6122 195 28.0858 195 28.6663V32.2839C195 32.8675 195.471 33.338 196.054 33.338H198.398C198.566 33.8697 198.78 34.383 199.033 34.8688L197.374 36.5278C196.962 36.9403 196.962 37.6064 197.374 38.0189L199.931 40.5762C200.344 40.9887 201.01 40.9887 201.422 40.5762L203.081 38.9172C203.567 39.1707 204.081 39.3846 204.612 39.5527V41.8962C204.612 42.4797 205.083 42.9503 205.666 42.9503H209.284C209.867 42.9503 210.338 42.4797 210.338 41.8962V39.5527C210.87 39.3846 211.383 39.1707 211.869 38.9172L213.528 40.5762C213.94 40.9887 214.606 40.9887 215.019 40.5762L217.576 38.0189C217.989 37.6064 217.989 36.9373 217.576 36.5278L215.917 34.8688C216.171 34.383 216.385 33.8697 216.553 33.338H218.896C219.48 33.338 219.95 32.8675 219.95 32.2839V28.6663C219.953 28.0858 219.48 27.6122 218.896 27.6122ZM207.475 35.1896C204.872 35.1896 202.761 33.0783 202.761 30.4751C202.761 27.8719 204.872 25.7607 207.475 25.7607C210.078 25.7607 212.19 27.8719 212.19 30.4751C212.19 33.0783 210.081 35.1896 207.475 35.1896Z" fill="#D7E7F3"/>
<path d="M207.475 38.7247C202.926 38.7247 199.226 35.0246 199.226 30.4751C199.226 25.9257 202.926 22.2256 207.475 22.2256C212.025 22.2256 215.725 25.9257 215.725 30.4751C215.725 35.0246 212.025 38.7247 207.475 38.7247ZM207.475 23.0353C203.375 23.0353 200.035 26.3718 200.035 30.4751C200.035 34.5755 203.372 37.915 207.475 37.915C211.578 37.915 214.915 34.5785 214.915 30.4751C214.915 26.3718 211.578 23.0353 207.475 23.0353Z" fill="#D7E7F3"/>
<path d="M83.5298 45.5557C79.5706 45.5557 76.3495 42.3346 76.3495 38.3754V35.07H78.7113V38.3754C78.7113 41.0324 80.8728 43.1939 83.5298 43.1939C86.1868 43.1939 88.3482 41.0324 88.3482 38.3754V27.932C88.3482 23.9728 91.5693 20.7517 95.5284 20.7517H98.1644C102.123 20.7517 105.345 23.9728 105.345 27.932V54.5336H102.983V27.932C102.983 25.275 100.821 23.1135 98.1644 23.1135H95.5284C92.8714 23.1135 90.71 25.275 90.71 27.932V38.3754C90.7153 42.3346 87.4889 45.5557 83.5298 45.5557Z" fill="#E9D9FD"/>
<path d="M89.0389 11.5102C89.0389 4.88356 83.4349 -0.435713 76.7081 0.0282071C71.0725 0.418322 66.4913 4.95736 66.0484 10.5877C65.8376 13.2868 66.5598 15.8015 67.9199 17.8575C70.2395 21.358 71.4732 25.4595 71.4732 29.6559H83.5667C83.5667 25.4911 84.7423 21.3844 87.0725 17.9313C88.3219 16.102 89.0389 13.8931 89.0389 11.5102Z" fill="#FFFFC9"/>
<path d="M78.7746 11.6367V14.5995H78.3581H76.6975H76.281V11.6367H72.1901V15.6697H75.2161V31.1425H76.281V15.6697H76.6975H78.3581H78.7746V31.1425H79.8395V15.6697H82.8655V11.6367H78.7746ZM75.2161 14.5995H73.2602V12.7017H75.2161V14.5995ZM81.8006 14.5995H79.8447V12.7017H81.8006V14.5995Z" fill="#004443"/>
<path d="M80.3773 35.4127H74.6837V38.1382H80.3773V35.4127Z" fill="#87C7C6"/>
<path d="M81.0626 36.6568H73.9931C72.6066 36.6568 71.4784 35.5339 71.4784 34.1422V29.6558H83.572V34.1422C83.5772 35.5339 82.4543 36.6568 81.0626 36.6568Z" fill="#98D4D3"/>
<path d="M198.31 52.8613L182.099 55.8293L185.658 60.0099L174.877 69.1776L162.34 55.1809L141 73.1947L144.553 77.4016L161.808 62.8408L174.355 76.8533L189.227 64.201L192.78 68.3815L198.31 52.8613Z" fill="#809BCE"/>
<path d="M189.828 38L176.917 40.367L179.748 43.6936L171.165 51.0003L161.181 39.8504L144.179 54.2003L147.01 57.5532L160.754 45.9499L170.749 57.1104L182.595 47.0359L185.426 50.3624L189.828 38Z" fill="#98D4D3"/>
<path d="M219.975 80.2706C219.321 80.2706 218.794 80.7978 218.794 81.4515V82.6324C218.794 83.2861 219.321 83.8133 219.975 83.8133C220.629 83.8133 221.156 83.2861 221.156 82.6324V81.4515C221.156 80.8031 220.629 80.2706 219.975 80.2706Z" fill="white"/>
<path d="M219.975 89.0429C219.321 89.0429 218.794 89.5701 218.794 90.2238V92.7543C218.794 93.408 219.321 93.9352 219.975 93.9352C220.629 93.9352 221.156 93.408 221.156 92.7543V90.2238C221.156 89.5701 220.629 89.0429 219.975 89.0429Z" fill="white"/>
<path d="M178.897 120.579H177.716C177.062 120.579 176.535 121.106 176.535 121.76C176.535 122.414 177.062 122.941 177.716 122.941H178.897C179.551 122.941 180.078 122.414 180.078 121.76C180.078 121.106 179.545 120.579 178.897 120.579Z" fill="white"/>
<g filter="url(#filter0_d)">
<path d="M61.7948 87.5284L10 103.152L21.1432 140.093L72.938 124.469L61.7948 87.5284Z" fill="#B8E0D2"/>
</g>
<path d="M60.4488 94.9263L15.2155 108.571L23.6166 136.422L68.85 122.777L60.4488 94.9263Z" fill="white"/>
<path d="M50.2435 95.2268C50.4438 95.8805 50.0695 96.5764 49.4158 96.7714C48.7621 96.9717 48.0662 96.5974 47.8711 95.9437C47.6708 95.29 48.0451 94.5942 48.6988 94.3991C49.3525 94.1988 50.0431 94.5731 50.2435 95.2268Z" fill="white"/>
<path d="M54.9617 93.8034C55.162 94.4571 54.7877 95.153 54.134 95.348C53.4803 95.5484 52.7845 95.1741 52.5894 94.5203C52.3891 93.8666 52.7634 93.1708 53.4171 92.9757C54.0708 92.7754 54.7667 93.1444 54.9617 93.8034Z" fill="white"/>
<path d="M59.6854 92.38C59.8857 93.0337 59.5114 93.7296 58.8577 93.9246C58.204 94.125 57.5081 93.7507 57.313 93.097C57.1127 92.4432 57.487 91.7474 58.1407 91.5523C58.7944 91.352 59.485 91.721 59.6854 92.38Z" fill="white"/>
<path d="M31.4919 120.181L26.2125 121.775L29.1337 131.455L34.4131 129.862L31.4919 120.181Z" fill="#B8E0D2"/>
<path d="M39.2438 113.2L33.9644 114.794L38.1694 128.729L43.4489 127.136L39.2438 113.2Z" fill="#B8E0D2"/>
<path d="M49.5852 114.798L44.3058 116.39L47.2046 126L52.484 124.408L49.5852 114.798Z" fill="#B8E0D2"/>
<path d="M54.9439 99.8852L49.6645 101.478L56.2387 123.272L61.5181 121.679L54.9439 99.8852Z" fill="#B8E0D2"/>
<path d="M20.9532 110.309C21.1167 110.847 20.8109 111.417 20.2732 111.58C19.7354 111.743 19.1661 111.438 19.0027 110.9C18.8392 110.362 19.145 109.793 19.6827 109.629C20.2257 109.466 20.7951 109.772 20.9532 110.309Z" fill="#EBEBEB"/>
<path d="M33.0223 106.258L22.1102 109.55L22.3401 110.312L33.2522 107.021L33.0223 106.258Z" fill="#EBEBEB"/>
<path d="M21.7914 113.088C21.9548 113.625 21.649 114.195 21.1113 114.358C20.5736 114.522 20.0042 114.216 19.8408 113.678C19.6774 113.14 19.9831 112.571 20.5209 112.408C21.0639 112.244 21.6332 112.55 21.7914 113.088Z" fill="#EBEBEB"/>
<path d="M33.8606 109.037L22.9484 112.328L23.1783 113.09L34.0905 109.799L33.8606 109.037Z" fill="#EBEBEB"/>
<path d="M83.8778 71.4403C83.8778 71.4192 83.8936 71.3981 83.8936 71.3718V58.9461C83.8936 58.925 83.8831 58.9092 83.8831 58.8881C83.8778 58.8459 83.8725 58.809 83.862 58.7721C83.8515 58.7299 83.8356 58.693 83.8145 58.6614C83.804 58.6456 83.804 58.6245 83.7935 58.6087C83.7829 58.5929 83.7671 58.5876 83.7566 58.5718C83.7302 58.5401 83.6986 58.5085 83.6669 58.4822C83.6406 58.4611 83.6089 58.44 83.5773 58.4242C83.5404 58.4031 83.5035 58.3925 83.4666 58.382C83.4297 58.3714 83.3928 58.3609 83.3559 58.3609C83.3348 58.3609 83.319 58.3504 83.2979 58.3504H65.0996C65.0785 58.3504 65.0627 58.3609 65.0469 58.3609C65.0047 58.3662 64.9678 58.3714 64.9309 58.382C64.894 58.3925 64.8571 58.4083 64.8254 58.4242C64.7938 58.44 64.7622 58.4611 64.7358 58.4874C64.7042 58.5138 64.6726 58.5401 64.6462 58.5718C64.6357 58.5876 64.6198 58.5929 64.6093 58.6087C64.5988 58.6245 64.5988 58.6456 64.5882 58.6614C64.5671 58.6983 64.5513 58.7352 64.5408 58.7721C64.5302 58.809 64.5197 58.8512 64.5197 58.8881C64.5197 58.9092 64.5091 58.925 64.5091 58.9461V63.3322H59.3058C59.3006 63.3322 59.2953 63.3375 59.2848 63.3375C59.2373 63.3375 59.1951 63.3533 59.153 63.3639C59.1213 63.3744 59.0897 63.3744 59.0581 63.3902C59.0264 63.406 59.0001 63.4271 58.9684 63.4482C58.9315 63.4746 58.8946 63.4957 58.863 63.5273C58.8577 63.5326 58.8525 63.5326 58.8472 63.5378C58.8261 63.5589 58.8208 63.5853 58.805 63.6116C58.7787 63.6485 58.7576 63.6854 58.7418 63.7223C58.7259 63.7645 58.7207 63.8067 58.7154 63.8489C58.7101 63.8752 58.6996 63.9016 58.6996 63.9332V76.3642C58.6996 76.6963 58.9684 76.9652 59.3006 76.9652H77.4831C77.8152 76.9652 78.0841 76.6963 78.0841 76.3642V73.9497C78.0893 73.9075 78.0893 73.8706 78.0841 73.8284V71.9727H83.2874C83.377 71.9727 83.4613 71.9517 83.5351 71.9148C83.5562 71.9042 83.572 71.8884 83.5931 71.8779C83.6458 71.8462 83.6986 71.804 83.7407 71.7566C83.7513 71.7461 83.7618 71.7461 83.7671 71.7355C83.7829 71.7144 83.7829 71.6933 83.7987 71.6723C83.8198 71.6353 83.8409 71.5985 83.8515 71.5615C83.8673 71.5194 83.8725 71.4825 83.8778 71.4403ZM78.0893 66.7273V63.9279C78.0893 63.8963 78.0788 63.87 78.0735 63.8436C78.0683 63.8014 78.063 63.7592 78.0472 63.7171C78.0314 63.6749 78.005 63.6433 77.9839 63.6064C77.9681 63.5853 77.9628 63.5536 77.9417 63.5326C77.9365 63.5273 77.9312 63.5273 77.9259 63.522C77.8943 63.4904 77.8574 63.464 77.8205 63.4429C77.8152 63.4377 77.8047 63.4324 77.7994 63.4271L82.6917 60.0848V70.1698L78.0893 66.7273ZM59.8857 65.2512L65.3737 70.0169L59.8857 72.869V65.2512ZM66.8235 69.6848L60.8927 64.5342H65.0732C65.0785 64.5342 65.0785 64.5342 65.0838 64.5342C65.089 64.5342 65.089 64.5342 65.0943 64.5342H72.3694C72.3747 64.5342 72.38 64.5342 72.3852 64.5342C72.3905 64.5342 72.3958 64.5342 72.4063 64.5342H75.8646L69.9391 69.6848L68.3787 71.0396L66.8235 69.6848ZM75.8014 63.3322H72.575L67.0343 59.5523H81.3368L75.8014 63.3322ZM76.8821 65.2512V72.869L71.3941 70.0222L76.8821 65.2512ZM65.69 60.0848L70.4399 63.327H65.69V60.0848ZM59.8857 75.7632V74.2344L66.3543 70.8709L67.9885 72.2891C68.0992 72.3892 68.2416 72.4367 68.3839 72.4367C68.5263 72.4367 68.6633 72.3892 68.7793 72.2891L70.4136 70.8709L76.8821 74.2238V75.7579H59.8857V75.7632ZM78.0893 68.235L81.4791 70.7708H78.0893V68.235Z" fill="#B8E0D2"/>
<path d="M73.5186 169.976L75.9331 162.996C75.8118 163.228 82.7865 165.98 82.7865 165.98L77.193 160.033C77.193 160.033 77.1825 160.054 77.1667 160.086L77.193 160.033L57.4501 154.63L73.5186 169.976ZM76.8293 160.74L76.8346 160.734C76.8293 160.734 76.8293 160.734 76.8293 160.74Z" fill="#95B8D1"/>
<path d="M82.7865 165.98L78.6059 157.498L57.4501 154.63L77.1983 160.033L82.7865 165.98Z" fill="#8CABC1"/>
<path d="M78.6059 157.498L82.9446 152.104L57.4501 154.63L78.6059 157.498Z" fill="#95B8D1"/>
<path d="M87.1832 166.634C87.0092 166.697 86.8141 166.697 86.6349 166.613C85.9443 166.286 85.5594 166.08 85.5436 166.07C85.201 165.885 85.0744 165.453 85.2589 165.11C85.4435 164.767 85.8758 164.641 86.2184 164.825C86.2237 164.825 86.5874 165.026 87.2359 165.331C87.5891 165.5 87.742 165.922 87.5733 166.275C87.4942 166.449 87.3519 166.57 87.1832 166.634Z" fill="#95B8D1"/>
<path d="M113.822 169.001C113.474 169.132 113.126 169.254 112.778 169.364C112.404 169.486 112.008 169.28 111.887 168.911C111.766 168.537 111.966 168.152 112.34 168.02C113.047 167.788 113.758 167.535 114.449 167.171C114.797 166.997 115.224 167.124 115.403 167.472C115.582 167.82 115.451 168.247 115.103 168.426C114.681 168.647 114.254 168.837 113.822 169.001ZM108.144 170.408C108.096 170.429 108.044 170.44 107.986 170.445C107.19 170.551 106.367 170.624 105.54 170.661C105.15 170.682 104.817 170.377 104.796 169.986C104.775 169.596 105.081 169.264 105.471 169.243C106.257 169.206 107.042 169.138 107.801 169.038C108.191 168.985 108.545 169.259 108.597 169.649C108.639 169.981 108.444 170.292 108.144 170.408ZM118.798 165.548C118.55 165.642 118.261 165.59 118.06 165.395C117.776 165.126 117.77 164.678 118.039 164.393C118.55 163.861 119.057 163.27 119.547 162.632C119.784 162.321 120.232 162.263 120.538 162.506C120.849 162.743 120.907 163.191 120.664 163.497C120.143 164.177 119.6 164.804 119.057 165.374C118.983 165.453 118.893 165.511 118.798 165.548ZM100.969 170.487C100.869 170.524 100.763 170.54 100.653 170.529C99.8619 170.45 99.0447 170.345 98.2329 170.213C97.848 170.15 97.5844 169.786 97.6477 169.401C97.711 169.016 98.0747 168.753 98.4596 168.816C99.2451 168.943 100.025 169.048 100.79 169.122C101.18 169.159 101.465 169.507 101.428 169.897C101.396 170.171 101.211 170.398 100.969 170.487ZM122.974 159.717C122.784 159.785 122.568 159.78 122.378 159.675C122.035 159.485 121.914 159.053 122.104 158.71C122.473 158.051 122.842 157.345 123.2 156.617C123.374 156.264 123.796 156.122 124.149 156.296C124.502 156.47 124.645 156.891 124.471 157.244C124.102 157.993 123.722 158.721 123.343 159.401C123.258 159.548 123.121 159.659 122.974 159.717ZM93.9153 169.132C93.7782 169.185 93.6253 169.196 93.4724 169.154C92.6975 168.937 91.9172 168.69 91.1475 168.431C90.7785 168.305 90.5782 167.904 90.7047 167.535C90.8312 167.166 91.2319 166.966 91.6009 167.092C92.3495 167.345 93.1034 167.583 93.852 167.793C94.2263 167.899 94.4477 168.289 94.3423 168.669C94.2843 168.885 94.1209 169.053 93.9153 169.132ZM126.015 153.201C125.857 153.259 125.678 153.264 125.509 153.196C125.146 153.053 124.966 152.642 125.109 152.278C125.388 151.567 125.673 150.818 125.947 150.054C126.079 149.685 126.485 149.495 126.854 149.627C127.223 149.758 127.412 150.164 127.281 150.533C127.001 151.314 126.717 152.073 126.427 152.8C126.348 152.99 126.195 153.132 126.015 153.201ZM128.351 146.395C128.208 146.448 128.056 146.458 127.897 146.411C127.523 146.3 127.312 145.905 127.423 145.53C127.655 144.756 127.871 143.991 128.082 143.243C128.187 142.863 128.572 142.642 128.952 142.747C129.331 142.852 129.553 143.243 129.447 143.617C129.236 144.376 129.015 145.156 128.783 145.942C128.715 146.158 128.551 146.321 128.351 146.395Z" fill="#95B8D1"/>
<path d="M127.607 101.606C127.607 101.606 132.368 125.45 150.782 132.414C150.782 132.414 153.851 129.936 155.975 130.406C158.1 130.88 161.996 135.482 161.996 135.482H149.955C149.955 135.482 130.243 133.595 120.09 114.353L119.499 107.152L127.607 101.606Z" fill="#FFDDC7"/>
<path d="M117.217 81.3039C117.217 81.3039 129.178 96.5289 130.597 100.546C130.597 100.546 123.042 106.804 120.68 108.928C120.68 108.928 111.723 91.3783 113.242 86.5019C114.66 81.9576 117.217 81.3039 117.217 81.3039Z" fill="#DED0F1"/>
<path d="M99.1185 77.3658C99.1185 77.3658 81.0203 79.8858 77.873 91.8475C74.7258 103.809 99.2397 139.853 99.2397 139.853H127.607C127.607 139.853 120.68 83.5075 117.222 81.3039C113.758 79.1003 109.193 75.3204 99.1185 77.3658Z" fill="#E3D4F7"/>
<path d="M108.877 70.4439L108.197 81.5042C105.64 83.0805 96.4457 80.0386 96.4457 80.0386L97.7004 67.8924L108.877 70.4439Z" fill="#FDD9C1"/>
<path d="M119.03 54.8604C119.03 54.8604 118.698 77.9405 106.046 74.9303C91.1738 71.3876 98.0167 50.1422 98.0167 50.1422L119.03 54.8604Z" fill="#FFDDC7"/>
<path d="M98.0167 61.3131C98.0167 61.3131 96.9939 59.0304 95.3386 59.9741C93.6885 60.9178 93.2931 67.3863 97.7004 67.8924L98.0167 61.3131Z" fill="#FDD9C1"/>
<path d="M95.3439 59.9794C95.3439 59.9794 97.7847 59.584 98.6071 61.8298L99.904 53.4476C99.904 53.4476 108.197 55.8094 112.725 53.4476C112.725 53.4476 116.162 57.9814 118.777 58.4295C121.387 58.8776 125.256 48.1336 118.777 46.009C118.777 46.009 104.338 28.301 96.103 46.009C96.103 46.009 90.6994 46.3623 89.993 52.8571C89.2865 59.352 94.221 63.8225 94.221 63.8225C94.221 63.8225 94.0839 60.6067 95.3439 59.9794Z" fill="black"/>
<path d="M97.9008 121.201C97.9008 121.201 113.953 137.607 129.774 137.607C145.59 137.607 146.301 137.607 146.301 137.607H161.173C161.173 137.607 153.856 128.044 150.313 129.404C146.771 130.764 144.409 132.767 144.409 132.767C144.409 132.767 121.824 128.487 107.738 111.738C107.738 111.743 100.906 111.759 97.9008 121.201Z" fill="#FFDDC7"/>
<path d="M77.873 91.8475C77.873 91.8475 78.1894 114.195 97.3893 124.269C97.3893 124.269 105.023 112.908 107.738 111.743C107.738 111.743 98.3014 90.3029 92.0384 86.1803C88.849 84.0874 82.2803 84.7675 77.873 91.8475Z" fill="#DED0F1"/>
<path d="M128.867 137.612C128.867 137.612 128.082 138.44 128.161 139.853H179.076C179.076 139.853 178.528 137.728 177.816 137.612H128.867Z" fill="#87C7C6"/>
<path d="M161.168 139.853L174.432 98.7747H194.575L181.196 139.853H161.168Z" fill="#98D4D3"/>
<path d="M184.195 117.811C183.8 119.424 182.661 120.537 181.649 120.289C180.637 120.041 180.131 118.534 180.526 116.915C180.921 115.302 182.06 114.19 183.072 114.437C184.084 114.69 184.585 116.198 184.195 117.811Z" fill="white"/>
<path d="M202.773 145.046H53.2959C53.2959 142.178 55.6208 139.853 58.4886 139.853H197.575C200.448 139.853 202.773 142.178 202.773 145.046Z" fill="#809BCE"/>
<path d="M97.6161 139.853H73.6293C71.1516 139.853 69.143 137.844 69.143 135.366C69.143 132.889 71.1516 130.88 73.6293 130.88H97.6161V139.853Z" fill="#95B8D1"/>
<path d="M97.6162 137.343H73.2656C72.1744 137.343 71.2887 136.458 71.2887 135.366C71.2887 134.275 72.1744 133.39 73.2656 133.39H97.6162V137.343Z" fill="white"/>
<path d="M97.6161 130.88H73.6293C71.1516 130.88 69.143 128.872 69.143 126.394C69.143 123.916 71.1516 121.907 73.6293 121.907H97.6161V130.88Z" fill="#87C7C6"/>
<path d="M97.6162 128.371H73.2656C72.1744 128.371 71.2887 127.485 71.2887 126.394C71.2887 125.303 72.1744 124.417 73.2656 124.417H97.6162V128.371Z" fill="white"/>
<path d="M236.66 51.9082H201.719V94.7312H236.66V51.9082Z" fill="#FFFFC9"/>
<path d="M240.593 56.5527V59.6525H236.66V51.9082C238.896 52.2772 240.593 54.2173 240.593 56.5527Z" fill="#F4F4BD"/>
<path d="M211.198 64.297H205.667V69.8271H211.198V64.297Z" fill="#E1E1D6"/>
<path d="M232.712 64.297H213.944V65.6782H232.712V64.297Z" fill="#004443"/>
<path d="M232.712 68.4459H213.944V69.8272H232.712V68.4459Z" fill="#004443"/>
<path d="M211.197 76.807H205.667V82.3425H211.197V76.807Z" fill="#E1E1D6"/>
<path d="M232.712 76.807H213.944V78.1883H232.712V76.807Z" fill="#004443"/>
<path d="M232.712 80.9612H213.944V82.3424H232.712V80.9612Z" fill="#004443"/>
<path d="M208.909 68.2087L206.606 66.2159L207.534 65.1458L208.714 66.1685L211.118 63.1425L212.231 64.0229L208.909 68.2087Z" fill="#004443"/>
<path d="M208.909 80.4024L206.606 78.4149L207.534 77.3448L208.714 78.3675L211.118 75.3362L212.231 76.2166L208.909 80.4024Z" fill="#004443"/>
<defs>
<filter id="filter0_d" x="0" y="81.5284" width="82.938" height="72.5647" filterUnits="userSpaceOnUse" color-interpolation-filters="sRGB">
<feFlood flood-opacity="0" result="BackgroundImageFix"/>
<feColorMatrix in="SourceAlpha" type="matrix" values="0 0 0 0 0 0 0 0 0 0 0 0 0 0 0 0 0 0 127 0" result="hardAlpha"/>
<feOffset dy="4"/>
<feGaussianBlur stdDeviation="5"/>
<feComposite in2="hardAlpha" operator="out"/>
<feColorMatrix type="matrix" values="0 0 0 0 0 0 0 0 0 0 0 0 0 0 0 0 0 0 0.1 0"/>
<feBlend mode="normal" in2="BackgroundImageFix" result="effect1_dropShadow"/>
<feBlend mode="normal" in="SourceGraphic" in2="effect1_dropShadow" result="shape"/>
</filter>
</defs>
</svg>
