<svg width="1920" height="1080" viewBox="0 0 1920 1080" fill="none" xmlns="http://www.w3.org/2000/svg">
<rect width="1920" height="1080" fill="white"/>
<path d="M361 196.5C241.8 333.7 70 273.5 0 226.5V0H625C586.667 8.33333 480.2 59.3 361 196.5Z" fill="#98D5D3"/>
<path d="M1202.32 681.811L1920 868V0H986L1054.29 514.532C1065 595.221 1123.54 661.37 1202.32 681.811Z" fill="#E5FCFF"/>
<path d="M1229.58 642.313L1920 828V0H1016L1083.5 477.187C1094.72 556.522 1152.21 621.503 1229.58 642.313Z" fill="#F5FEFF"/>
<path d="M497.225 530.723L0 438V1080H550.5L617.401 704.49C631.849 623.396 578.2 545.823 497.225 530.723Z" fill="#F2FEFF"/>
<path d="M477.224 549.847L0 458V1080H530.5L596.365 724.468C611.382 643.412 558.174 565.427 477.224 549.847Z" fill="#FAFFFF"/>
<path d="M1276.5 947C1104.5 917.4 1059 999.5 1017.5 1080H1920V947C1920 947 1833 1029.5 1744.5 963C1656 896.5 1578 937.556 1478 963C1421.67 977.333 1448.5 976.6 1276.5 947Z" fill="#98D4D3"/>
<path d="M142.848 101.536V115.072C142.848 115.2 142.848 115.312 142.848 115.408C142.88 115.472 142.912 115.536 142.944 115.6C143.04 115.568 143.136 115.52 143.232 115.456C143.328 115.392 143.44 115.264 143.568 115.072C144.144 114.368 144.928 113.808 145.92 113.392C146.944 112.976 148.032 112.768 149.184 112.768C152.224 112.768 154.848 114.032 157.056 116.56C159.264 119.088 160.368 122.096 160.368 125.584C160.368 128.816 159.424 131.472 157.536 133.552C155.648 135.632 153.2 136.672 150.192 136.672C147.888 136.672 145.792 135.968 143.904 134.56C143.392 134.176 142.976 133.984 142.656 133.984C142.368 133.984 142 134.096 141.552 134.32L139.248 135.28C138.768 135.44 138.352 135.6 138 135.76C137.648 135.92 137.344 136.064 137.088 136.192C136.544 136.512 136.112 136.672 135.792 136.672C135.248 136.672 134.976 136.352 134.976 135.712L135.12 134.32L135.216 131.92V109.12C135.216 107.648 134.736 106.784 133.776 106.528L133.296 106.384C132.816 106.16 132.576 105.808 132.576 105.328C132.576 104.88 132.8 104.576 133.248 104.416L141.744 100.864L142.176 100.816C142.528 100.816 142.752 101.056 142.848 101.536ZM148.08 115.6C146.64 115.6 145.392 116.24 144.336 117.52C143.312 118.768 142.8 120.32 142.8 122.176L142.704 126.352V126.688C142.704 128.512 143.12 129.952 143.952 131.008C144.784 132.064 145.952 132.592 147.456 132.592C149.312 132.592 150.784 131.76 151.872 130.096C152.96 128.432 153.504 126.144 153.504 123.232C153.504 120.96 153.008 119.12 152.016 117.712C151.024 116.304 149.712 115.6 148.08 115.6ZM172.754 113.344V130.432C172.754 131.616 172.882 132.416 173.138 132.832C173.394 133.248 173.954 133.552 174.818 133.744C175.682 133.936 176.114 134.336 176.114 134.944C176.114 135.648 175.682 136 174.818 136H163.298C162.402 136 161.954 135.632 161.954 134.896C161.954 134.384 162.274 134.048 162.914 133.888C163.554 133.696 164.002 133.52 164.258 133.36C164.546 133.168 164.77 132.928 164.93 132.64C165.058 132.288 165.122 131.92 165.122 131.536C165.154 131.12 165.17 130.752 165.17 130.432V129.568V120.688C165.17 119.376 164.69 118.56 163.73 118.24L163.25 118.096C162.77 117.936 162.53 117.584 162.53 117.04C162.53 116.592 162.738 116.288 163.154 116.128L171.65 112.672C171.682 112.64 171.73 112.624 171.794 112.624C171.89 112.592 171.986 112.56 172.082 112.528C172.434 112.528 172.658 112.8 172.754 113.344ZM163.394 107.2C163.746 106.112 164.578 105.152 165.89 104.32C167.234 103.488 168.61 103.072 170.018 103.072C170.914 103.072 171.618 103.264 172.13 103.648C172.674 104 172.946 104.496 172.946 105.136C172.946 106.096 172.418 107.024 171.362 107.92C170.69 108.528 169.874 109.024 168.914 109.408C167.954 109.792 167.058 109.984 166.226 109.984C164.242 109.984 163.25 109.312 163.25 107.968L163.394 107.2ZM187.056 113.2H193.104C193.392 113.2 193.536 113.28 193.536 113.44L193.44 113.824L192.768 115.6C192.608 115.984 192.32 116.176 191.904 116.176H187.68C187.296 116.176 187.104 116.4 187.104 116.848V130.816C187.104 132.576 187.856 133.456 189.36 133.456C190.384 133.456 191.248 133.184 191.952 132.64C192.656 132.064 193.136 131.776 193.392 131.776C194.064 131.776 194.4 132.112 194.4 132.784C194.4 133.104 194.176 133.52 193.728 134.032C192 135.792 189.328 136.672 185.712 136.672C183.728 136.672 182.128 136.352 180.912 135.712C179.696 135.072 179.088 134.224 179.088 133.168L179.184 131.92C179.44 130.544 179.568 128.992 179.568 127.264V116.848C179.568 116.4 179.36 116.176 178.944 116.176H176.832C176.16 116.176 175.824 115.824 175.824 115.12C175.824 114.544 176.32 113.92 177.312 113.248C178.496 112.512 179.824 111.408 181.296 109.936C182.768 108.464 183.936 107.056 184.8 105.712C185.184 105.008 185.632 104.656 186.144 104.656C186.752 104.656 187.056 105.024 187.056 105.76V113.2ZM202.652 126.592C202.268 126.688 202.076 126.832 202.076 127.024C202.076 127.216 202.22 127.664 202.508 128.368C204.14 131.472 206.508 133.024 209.612 133.024C210.764 133.024 211.852 132.8 212.876 132.352C213.932 131.904 214.988 131.184 216.044 130.192C216.46 129.808 216.812 129.616 217.1 129.616C217.74 129.616 218.06 129.952 218.06 130.624C218.06 130.912 217.932 131.248 217.676 131.632C216.588 133.232 215.068 134.48 213.116 135.376C211.196 136.272 209.052 136.72 206.684 136.72C202.844 136.72 199.692 135.6 197.228 133.36C194.764 131.12 193.532 128.24 193.532 124.72C193.532 121.264 194.7 118.352 197.036 115.984C199.404 113.584 202.332 112.384 205.82 112.384C207.804 112.384 209.596 112.784 211.196 113.584C212.796 114.352 214.14 115.472 215.228 116.944C215.836 117.776 216.38 118.704 216.859 119.728C217.18 120.464 217.34 120.976 217.34 121.264C217.34 121.552 217.196 121.744 216.908 121.84L202.652 126.592ZM201.548 124L201.932 123.904L209.516 121.408C209.9 121.248 210.092 121.072 210.092 120.88C210.092 120.656 209.932 120.144 209.612 119.344C209.324 118.512 208.876 117.744 208.268 117.04C207.276 115.888 206.108 115.312 204.764 115.312C203.548 115.312 202.556 115.808 201.788 116.8C201.052 117.76 200.684 119.056 200.684 120.688C200.684 121.616 200.764 122.4 200.924 123.04C201.116 123.68 201.324 124 201.548 124ZM232.932 120.688L235.62 121.504C238.372 122.4 240.388 123.456 241.668 124.672C242.948 125.888 243.588 127.392 243.588 129.184C243.588 131.328 242.724 133.104 240.996 134.512C239.268 135.92 237.092 136.624 234.468 136.624C233.604 136.624 232.564 136.544 231.348 136.384C230.132 136.224 228.98 136.016 227.892 135.76C227.316 135.568 226.916 135.472 226.692 135.472C226.34 135.472 225.988 135.76 225.636 136.336C225.316 136.912 224.948 137.2 224.532 137.2C224.212 137.2 223.988 137.136 223.86 137.008C223.732 136.88 223.572 136.624 223.38 136.24L219.204 129.712C218.98 129.36 218.868 128.976 218.868 128.56C218.868 128.304 218.948 128.096 219.108 127.936C219.3 127.744 219.524 127.648 219.78 127.648C220.196 127.648 220.692 128 221.268 128.704L223.236 130.384L225.588 132.112C227.572 133.392 229.7 134.032 231.972 134.032C233.06 134.032 233.94 133.776 234.612 133.264C235.316 132.72 235.668 132 235.668 131.104C235.668 130.272 235.332 129.584 234.66 129.04C234.02 128.464 232.82 127.856 231.06 127.216L227.796 126.016C226.356 125.504 225.332 125.12 224.724 124.864C224.148 124.576 223.492 124.224 222.756 123.808C220.644 122.592 219.588 120.96 219.588 118.912C219.588 117.088 220.388 115.584 221.988 114.4C223.62 113.184 225.668 112.576 228.132 112.576C228.996 112.576 229.812 112.64 230.58 112.768C231.348 112.896 232.372 113.12 233.652 113.44L234.516 113.584C234.996 113.584 235.348 113.28 235.572 112.672C235.828 112.032 236.196 111.712 236.676 111.712C237.028 111.712 237.284 111.808 237.444 112C237.604 112.16 237.78 112.416 237.972 112.768L241.284 118.288C241.54 118.736 241.668 119.056 241.668 119.248C241.668 119.792 241.38 120.064 240.804 120.064C240.452 120.064 240.004 119.792 239.46 119.248C238.18 118 236.708 117.008 235.044 116.272C233.412 115.536 231.828 115.168 230.292 115.168C229.396 115.168 228.66 115.376 228.084 115.792C227.508 116.208 227.22 116.752 227.22 117.424C227.22 117.936 227.396 118.368 227.748 118.72C228.132 119.04 228.852 119.376 229.908 119.728L232.932 120.688ZM255.301 113.344V130.432C255.301 131.616 255.429 132.416 255.685 132.832C255.941 133.248 256.501 133.552 257.365 133.744C258.229 133.936 258.661 134.336 258.661 134.944C258.661 135.648 258.229 136 257.365 136H245.845C244.949 136 244.501 135.632 244.501 134.896C244.501 134.384 244.821 134.048 245.461 133.888C246.101 133.696 246.549 133.52 246.805 133.36C247.093 133.168 247.317 132.928 247.477 132.64C247.605 132.288 247.669 131.92 247.669 131.536C247.701 131.12 247.717 130.752 247.717 130.432V129.568V120.688C247.717 119.376 247.237 118.56 246.277 118.24L245.797 118.096C245.317 117.936 245.077 117.584 245.077 117.04C245.077 116.592 245.285 116.288 245.701 116.128L254.197 112.672C254.229 112.64 254.277 112.624 254.341 112.624C254.437 112.592 254.533 112.56 254.629 112.528C254.981 112.528 255.205 112.8 255.301 113.344ZM245.941 107.2C246.293 106.112 247.125 105.152 248.437 104.32C249.781 103.488 251.157 103.072 252.565 103.072C253.461 103.072 254.165 103.264 254.677 103.648C255.221 104 255.493 104.496 255.493 105.136C255.493 106.096 254.965 107.024 253.909 107.92C253.237 108.528 252.421 109.024 251.461 109.408C250.501 109.792 249.605 109.984 248.773 109.984C246.789 109.984 245.797 109.312 245.797 107.968L245.941 107.2ZM259.139 136C258.37 136 257.986 135.6 257.986 134.8C257.986 134.48 258.05 134.256 258.178 134.128L272.674 116.512L272.819 116.128C272.659 116.064 272.451 116.016 272.195 115.984C271.939 115.952 271.731 115.936 271.571 115.936C267.059 115.936 263.939 117.056 262.211 119.296C261.699 119.968 261.315 120.4 261.059 120.592C260.835 120.752 260.515 120.832 260.099 120.832C259.523 120.832 259.235 120.528 259.235 119.92L259.331 119.44L262.931 112.576C263.091 112.224 263.395 112.048 263.843 112.048C264.163 112.048 264.419 112.144 264.611 112.336L264.995 112.72C265.347 113.04 265.891 113.2 266.627 113.2L282.802 113.344C283.475 113.344 283.811 113.648 283.811 114.256C283.811 114.544 283.731 114.8 283.571 115.024L269.315 132.448L269.075 132.832C269.075 132.992 269.187 133.104 269.411 133.168C269.635 133.2 270.035 133.216 270.611 133.216L271.811 133.168L275.795 132.88C277.043 132.752 278.163 132.416 279.155 131.872C280.147 131.328 280.915 130.624 281.459 129.76C281.875 129.056 282.211 128.592 282.467 128.368C282.723 128.144 283.011 128.032 283.331 128.032C284.035 128.032 284.387 128.384 284.387 129.088L284.291 129.52L280.787 136.48C280.435 137.024 280.051 137.296 279.635 137.296C279.315 137.296 279.059 137.2 278.867 137.008L278.339 136.576C278.083 136.384 277.779 136.256 277.427 136.192C277.075 136.128 276.787 136.096 276.563 136.096L259.139 136ZM294.62 126.592C294.236 126.688 294.044 126.832 294.044 127.024C294.044 127.216 294.188 127.664 294.476 128.368C296.108 131.472 298.476 133.024 301.58 133.024C302.732 133.024 303.82 132.8 304.844 132.352C305.9 131.904 306.956 131.184 308.012 130.192C308.428 129.808 308.78 129.616 309.068 129.616C309.708 129.616 310.028 129.952 310.028 130.624C310.028 130.912 309.9 131.248 309.644 131.632C308.556 133.232 307.036 134.48 305.084 135.376C303.164 136.272 301.02 136.72 298.652 136.72C294.812 136.72 291.66 135.6 289.196 133.36C286.732 131.12 285.5 128.24 285.5 124.72C285.5 121.264 286.668 118.352 289.004 115.984C291.372 113.584 294.3 112.384 297.788 112.384C299.772 112.384 301.564 112.784 303.164 113.584C304.764 114.352 306.108 115.472 307.196 116.944C307.804 117.776 308.348 118.704 308.828 119.728C309.148 120.464 309.308 120.976 309.308 121.264C309.308 121.552 309.164 121.744 308.876 121.84L294.62 126.592ZM293.516 124L293.9 123.904L301.484 121.408C301.868 121.248 302.06 121.072 302.06 120.88C302.06 120.656 301.9 120.144 301.58 119.344C301.292 118.512 300.844 117.744 300.236 117.04C299.244 115.888 298.076 115.312 296.732 115.312C295.516 115.312 294.524 115.808 293.756 116.8C293.02 117.76 292.652 119.056 292.652 120.688C292.652 121.616 292.732 122.4 292.892 123.04C293.084 123.68 293.292 124 293.516 124Z" fill="#FCFEFF"/>
</svg>
